<?xml version="1.0" encoding="UTF-8"?>
<!-- Created with Inkscape (http://www.inkscape.org/) -->
<svg width="128" height="128" version="1.1" viewBox="0 0 33.867 33.867" xmlns="http://www.w3.org/2000/svg" xmlns:cc="http://creativecommons.org/ns#" xmlns:dc="http://purl.org/dc/elements/1.1/" xmlns:rdf="http://www.w3.org/1999/02/22-rdf-syntax-ns#">
 <metadata>
  <rdf:RDF>
   <cc:Work rdf:about="">
    <dc:format>image/svg+xml</dc:format>
    <dc:type rdf:resource="http://purl.org/dc/dcmitype/StillImage"/>
    <dc:title/>
   </cc:Work>
  </rdf:RDF>
 </metadata>
 <g transform="translate(0 -263.13)">
  <g transform="matrix(1.1228 0 0 1.1228 -2.0795 -34.394)">
   <g transform="matrix(.99219 0 0 .99219 .13232 2.188)">
    <g transform="matrix(1.8703 0 0 1.9868 -120.11 171.24)">
     <path d="m79.967 49.555h-14.615v9.9629h14.615z" fill="#fff" style="paint-order:stroke markers fill"/>
     <path d="m79.967 49.555h-14.615v-2.3721h14.615z" fill="#d05844" style="paint-order:stroke markers fill"/>
     <rect x="66.611" y="57.898" width="11.591" height=".94885" fill="#bec1c3" style="paint-order:markers stroke fill"/>
     <rect x="66.611" y="51.967" width="1.0638" height="5.6931" fill="#efefef" style="paint-order:markers stroke fill"/>
     <rect x="75.822" y="50.781" width="2.3798" height="6.8792" fill="#6fb26f" style="paint-order:markers stroke fill"/>
     <path transform="matrix(.12599 0 0 .11861 65.211 47.183)" d="m50.891 28.34v10l-41.778-1.55e-4v62h96v-72h-54.222zm1.9996 2h8.4434v8l-8.4434 1.55e-4zm10.443 0h8.4453v8h-8.4453zm10.445 0h8.4453v8h-8.4453zm10.445 0h8.4434v8h-8.4434zm10.443 0h8.4453v8h-8.4453zm-83.555 10h8.4434v8h-8.4434zm10.443 0h8.4453v8h-8.4453zm10.445 0h8.4434v8h-8.4434zm10.443 0h8.4457l-3.77e-4 8h-8.4453zm10.445 0h8.4434v8h-8.4434zm10.443 0h8.4453v8h-8.4453zm10.445 0h8.4453v8h-8.4453zm10.445 0h8.4434v8h-8.4434zm10.443 0h8.4453v8h-8.4453zm-83.555 10h8.4434v8h-8.4434zm10.443 0h8.4453v8h-8.4453zm10.445 0h8.4434v8h-8.4434zm10.443 0h8.4453v8h-8.4453zm10.445 0h8.4434v8h-8.4434zm10.443 0h8.4453v8h-8.4453zm10.445 0h8.4453v8h-8.4453zm10.445 0h8.4434v8h-8.4434zm10.443 0h8.4453v8h-8.4453zm-83.555 10h8.4434v8h-8.4434zm10.443 0h8.4453v8h-8.4453zm10.445 0h8.4434v8h-8.4434zm10.443 0h8.4453v8h-8.4453zm10.445 0h8.4434v8h-8.4434zm10.443 0h8.4453v8h-8.4453zm10.445 0h8.4453v8h-8.4453zm10.445 0h8.4434v8h-8.4434zm10.443 0h8.4453v8h-8.4453zm-83.555 10h8.4434v8h-8.4434zm10.443 0h8.4453v8h-8.4453zm10.445 0h8.4434v8h-8.4434zm10.443 0h8.4453v8h-8.4453zm10.445 0h8.4434v8h-8.4434zm10.443 0h8.4453v8h-8.4453zm10.445 0h8.4453v8h-8.4453zm10.445 0h8.4434v8h-8.4434zm10.443 0h8.4453v8h-8.4453zm-83.555 10h8.4434v8h-8.4434zm10.443 0h8.4453v8h-8.4453zm10.445 0h8.4434v8h-8.4434zm10.443 0h8.4453v8h-8.4453zm10.445 0h8.4434v8h-8.4434zm10.443 0h8.4453v8h-8.4453zm10.445 0h8.4453v8h-8.4453zm10.445 0h8.4434v8h-8.4434zm10.443 0h8.4453v8h-8.4453zm-83.555 10h8.4434v8h-8.4434zm10.443 0h8.4453v8h-8.4453zm10.445 0h8.4434v8h-8.4434zm10.443 0h8.4453v8h-8.4453zm10.445 0h8.4434v8h-8.4434zm10.443 0h8.4453v8h-8.4453zm10.445 0h8.4453v8h-8.4453zm10.445 0h8.4434v8h-8.4434zm10.443 0h8.4453v8h-8.4453z" fill="#efefef" style="paint-order:markers stroke fill"/>
    </g>
    <g>
     <g transform="translate(37.042 12.965)">
      <g transform="translate(7.4083 -2.1167)">
       <path transform="matrix(.2375 0 0 .2375 -42.717 254.02)" d="m108.56 96.348a17.825 8.9123 0 0 0-17.822 8.8711h-0.0039v4.457c3e-5 4.9221 7.982 8.9121 17.826 8.9121 9.8442 0 17.824-3.99 17.824-8.9121v-4.457h-2e-3a17.825 8.9123 0 0 0-17.822-8.8711z" fill="#de9349" style="paint-order:markers stroke fill"/>
       <ellipse cx="-16.933" cy="279.02" rx="3.81" ry="1.905" fill="#e8bb4d" style="paint-order:markers stroke fill"/>
      </g>
      <g transform="translate(7.4083 -3.7042)">
       <path transform="matrix(.2375 0 0 .2375 -42.717 255.61)" d="m108.56 89.664a17.825 8.9123 0 0 0-17.822 8.8711h-0.0039v4.457c3e-5 4.9221 7.982 8.9121 17.826 8.9121 9.8442 0 17.824-3.99 17.824-8.9121v-4.457h-2e-3a17.825 8.9123 0 0 0-17.822-8.8711z" fill="#de9349" style="paint-order:markers stroke fill"/>
       <ellipse cx="-16.933" cy="279.02" rx="3.81" ry="1.905" fill="#e8bb4d" style="paint-order:markers stroke fill"/>
      </g>
      <g transform="translate(7.4083 -5.2917)">
       <path transform="matrix(.2375 0 0 .2375 -42.717 257.19)" d="m108.56 82.979a17.825 8.9123 0 0 0-17.822 8.873h-0.0039v4.4551c3e-5 4.9221 7.982 8.9121 17.826 8.9121 9.8442 0 17.824-3.99 17.824-8.9121v-4.4551h-2e-3a17.825 8.9123 0 0 0-17.822-8.873z" fill="#de9349" style="paint-order:markers stroke fill"/>
       <ellipse cx="-16.933" cy="279.02" rx="3.81" ry="1.905" fill="#e8bb4d" style="paint-order:markers stroke fill"/>
      </g>
      <g transform="translate(7.4083 -6.8792)">
       <path transform="matrix(.2375 0 0 .2375 -42.717 258.78)" d="m108.56 76.295a17.825 8.9123 0 0 0-17.822 8.8711h-0.0039v4.457c3e-5 4.9221 7.982 8.9121 17.826 8.9121 9.8442 0 17.824-3.99 17.824-8.9121v-4.457h-2e-3a17.825 8.9123 0 0 0-17.822-8.8711z" fill="#de9349" style="paint-order:markers stroke fill"/>
       <ellipse cx="-16.933" cy="279.02" rx="3.81" ry="1.905" fill="#e8bb4d" style="paint-order:markers stroke fill"/>
      </g>
      <g transform="translate(6.8792 -8.4667)">
       <path transform="matrix(.2375 0 0 .2375 -42.188 260.37)" d="m106.33 69.611a17.825 8.9123 0 0 0-17.82 8.8711h-0.0039v4.457c2.9e-5 4.9221 7.98 8.9121 17.824 8.9121 9.8442 0 17.824-3.99 17.824-8.9121v-4.457h-2e-3a17.825 8.9123 0 0 0-17.822-8.8711z" fill="#de9349" style="paint-order:markers stroke fill"/>
       <ellipse cx="-16.933" cy="279.02" rx="3.81" ry="1.905" fill="#e8bb4d" style="paint-order:markers stroke fill"/>
      </g>
      <g transform="translate(7.4083 -9.525)">
       <path transform="matrix(.2375 0 0 .2375 -42.717 261.43)" d="m108.56 65.154a17.825 8.9123 0 0 0-17.822 8.8711h-0.0039v4.457c3e-5 4.9221 7.982 8.9121 17.826 8.9121 9.8442 0 17.824-3.99 17.824-8.9121v-4.457h-2e-3a17.825 8.9123 0 0 0-17.822-8.8711z" fill="#de9349" style="paint-order:markers stroke fill"/>
       <ellipse cx="-16.933" cy="279.02" rx="3.81" ry="1.905" fill="#e8bb4d" style="paint-order:markers stroke fill"/>
      </g>
      <g transform="translate(7.4083 -11.113)">
       <path transform="matrix(.2375 0 0 .2375 -42.717 263.01)" d="m108.56 58.471a17.825 8.9123 0 0 0-17.822 8.8711h-0.0039v4.457c3e-5 4.9221 7.982 8.9121 17.826 8.9121 9.8442 0 17.824-3.99 17.824-8.9121v-4.457h-2e-3a17.825 8.9123 0 0 0-17.822-8.8711z" fill="#de9349" style="paint-order:markers stroke fill"/>
       <ellipse cx="-16.933" cy="279.02" rx="3.81" ry="1.905" fill="#e8bb4d" style="paint-order:markers stroke fill"/>
      </g>
      <g transform="translate(7.4083 -12.7)">
       <path transform="matrix(.2375 0 0 .2375 -42.717 264.6)" d="m108.56 51.787a17.825 8.9123 0 0 0-17.822 8.8711h-0.0039v4.4551c3e-5 4.9221 7.982 8.9121 17.826 8.9121 9.8442 0 17.824-3.99 17.824-8.9121v-4.4551h-2e-3a17.825 8.9123 0 0 0-17.822-8.8711z" fill="#de9349" style="paint-order:markers stroke fill"/>
       <ellipse cx="-16.933" cy="279.02" rx="3.81" ry="1.905" fill="#e8bb4d" style="paint-order:markers stroke fill"/>
      </g>
      <path transform="matrix(.2375 0 0 .2375 -35.308 251.9)" d="m77.369 105.26a17.825 8.9123 0 0 0-17.82 8.8711h-0.0039v4.457c2.9e-5 4.9221 7.98 8.9121 17.824 8.9121s17.824-3.99 17.824-8.9121v-4.457h-2e-3a17.825 8.9123 0 0 0-17.822-8.8711z" fill="#de9349" style="paint-order:markers stroke fill"/>
      <ellipse cx="-16.933" cy="279.02" rx="3.81" ry="1.905" fill="#e8bb4d" style="paint-order:markers stroke fill"/>
      <g transform="translate(0,-1.5875)">
       <path transform="matrix(.2375 0 0 .2375 -35.308 253.49)" d="m77.369 98.576a17.825 8.9123 0 0 0-17.82 8.8711h-0.0039v4.457c2.9e-5 4.9221 7.98 8.9121 17.824 8.9121s17.824-3.99 17.824-8.9121v-4.457h-2e-3a17.825 8.9123 0 0 0-17.822-8.8711z" fill="#de9349" style="paint-order:markers stroke fill"/>
       <ellipse cx="-16.933" cy="279.02" rx="3.81" ry="1.905" fill="#e8bb4d" style="paint-order:markers stroke fill"/>
      </g>
      <g transform="translate(.52917 -3.175)">
       <path transform="matrix(.2375 0 0 .2375 -35.838 255.08)" d="m79.596 91.891a17.825 8.9123 0 0 0-17.82 8.873h-0.0039v4.4551c3e-5 4.9221 7.98 8.9121 17.824 8.9121s17.826-3.99 17.826-8.9121v-4.4551h-2e-3a17.825 8.9123 0 0 0-17.824-8.873z" fill="#de9349" style="paint-order:markers stroke fill"/>
       <ellipse cx="-16.933" cy="279.02" rx="3.81" ry="1.905" fill="#e8bb4d" style="paint-order:markers stroke fill"/>
      </g>
      <g transform="translate(.52917 -4.7625)">
       <path transform="matrix(.2375 0 0 .2375 -35.838 256.66)" d="m79.596 85.207a17.825 8.9123 0 0 0-17.82 8.8711h-0.0039v4.457c3e-5 4.9221 7.98 8.9121 17.824 8.9121s17.826-3.99 17.826-8.9121v-4.457h-2e-3a17.825 8.9123 0 0 0-17.824-8.8711z" fill="#de9349" style="paint-order:markers stroke fill"/>
       <ellipse cx="-16.933" cy="279.02" rx="3.81" ry="1.905" fill="#e8bb4d" style="paint-order:markers stroke fill"/>
      </g>
      <g transform="translate(0 -6.35)">
       <path transform="matrix(.2375 0 0 .2375 -35.308 258.25)" d="m77.369 78.523a17.825 8.9123 0 0 0-17.82 8.8711h-0.0039v4.457c2.9e-5 4.9221 7.98 8.9121 17.824 8.9121s17.824-3.99 17.824-8.9121v-4.457h-2e-3a17.825 8.9123 0 0 0-17.822-8.8711z" fill="#de9349" style="paint-order:markers stroke fill"/>
       <ellipse cx="-16.933" cy="279.02" rx="3.81" ry="1.905" fill="#e8bb4d" style="paint-order:markers stroke fill"/>
      </g>
     </g>
    </g>
   </g>
  </g>
 </g>
</svg>
