<?xml version="1.0" encoding="UTF-8"?>
<!-- Created with Inkscape (http://www.inkscape.org/) -->
<svg width="128" height="128" enable-background="new" version="1.1" viewBox="0 0 33.867 33.867" xmlns="http://www.w3.org/2000/svg" xmlns:cc="http://creativecommons.org/ns#" xmlns:dc="http://purl.org/dc/elements/1.1/" xmlns:rdf="http://www.w3.org/1999/02/22-rdf-syntax-ns#">
 <metadata>
  <rdf:RDF>
   <cc:Work rdf:about="">
    <dc:format>image/svg+xml</dc:format>
    <dc:type rdf:resource="http://purl.org/dc/dcmitype/StillImage"/>
    <dc:title/>
   </cc:Work>
  </rdf:RDF>
 </metadata>
 <g transform="translate(0 -263.13)">
  <g transform="matrix(2 0 0 2 -25.4 231.11)">
   <path d="m14.15 17.997c-0.803 0-1.4495 0.64652-1.4495 1.4495v9.7485h5.2917v-9.7485c0-0.803-0.64652-1.4495-1.4495-1.4495z" fill="#d05844" style="paint-order:stroke markers fill"/>
   <path d="m15.208 20.114c-0.803 0-1.3361 0.65457-1.4495 1.4495l-1.0583 7.4197c-0.11339 0.79495 0.64652 1.4495 1.4495 1.4495h12.976c0.803 0 1.3361-0.65457 1.4495-1.4495l1.0583-7.4197c0.11339-0.79495-0.64652-1.4495-1.4495-1.4495z" fill="#de9349" style="paint-order:stroke markers fill"/>
   <g transform="matrix(.90094 0 0 .90094 -40.241 -22.018)">
    <path d="m66.242 45.454v14.911h10.798l-5.6e-5 -14.911z" fill="#494949" style="paint-order:stroke markers fill"/>
    <g transform="matrix(1.0202 0 0 1.0838 .081406 -5.5954)">
     <path d="m65.352 47.696v13.758h10.583v-10.931l-2.8272-2.8272z" fill="#fff" style="paint-order:stroke markers fill"/>
     <path d="m75.935 50.524-2.8272-2.8272v2.8272z" fill="#efefef" style="paint-order:stroke markers fill"/>
     <rect x="66.612" y="51.968" width="1.1339" height="1.0675" fill="#fff" stroke="#efefef" stroke-linecap="round" stroke-width=".48897" style="paint-order:markers stroke fill"/>
     <path d="m69.217 52.058c-0.40415-0.02131-0.6337 0.5034-0.33349 0.75754 0.2286 0.20505 0.56265 0.10602 0.84584 0.12964 3.0652-0.0014 1.1829 3e-3 4.2481-0.0022 0.40263-0.01779 0.57516-0.55882 0.25176-0.78384-0.24048-0.16828-0.55574-0.07783-0.83371-0.10105h-4.1785z" fill="#efefef" style="paint-order:stroke markers fill"/>
     <rect x="66.612" y="54.103" width="1.1339" height="1.0675" fill="#fff" stroke="#efefef" stroke-linecap="round" stroke-width=".48897" style="paint-order:markers stroke fill"/>
     <path d="m69.217 54.193c-0.40415-0.02131-0.6337 0.5034-0.33349 0.75754 0.2286 0.20505 0.56265 0.10602 0.84584 0.12964 3.0652-0.0014-1.3369 3e-3 1.7282-0.0022 0.40263-0.01779 0.57516-0.55882 0.25176-0.78384-0.24048-0.16828-0.55574-0.07783-0.83371-0.10105h-1.6586z" fill="#efefef" style="paint-order:stroke markers fill"/>
     <rect x="66.612" y="56.238" width="1.1339" height="1.0675" fill="#fff" stroke="#efefef" stroke-linecap="round" stroke-width=".48897" style="paint-order:markers stroke fill"/>
     <path d="m69.217 56.328c-0.40415-0.02131-0.6337 0.5034-0.33349 0.75754 0.2286 0.20505 0.56265 0.10602 0.84584 0.12964 3.0652-0.0014 0.67896 3e-3 3.7441-0.0022 0.40263-0.01779 0.57516-0.55882 0.25176-0.78384-0.24048-0.16828-0.55574-0.07783-0.83371-0.10105h-3.6745z" fill="#efefef" style="paint-order:stroke markers fill"/>
     <rect x="66.612" y="58.373" width="1.1339" height="1.0675" fill="#fff" stroke="#efefef" stroke-linecap="round" stroke-width=".48897" style="paint-order:markers stroke fill"/>
     <path d="m69.217 58.463c-0.40415-0.02131-0.6337 0.5034-0.33349 0.75754 0.2286 0.20505 0.56265 0.10602 0.84584 0.12964 3.0652-0.0014-0.07699 3e-3 2.9881-0.0022 0.40263-0.01779 0.57516-0.55882 0.25176-0.78384-0.24048-0.16828-0.55574-0.07783-0.83371-0.10105h-2.9185z" fill="#efefef" style="paint-order:stroke markers fill"/>
     <g fill="#970a2c">
      <path d="m67.828 51.563c-0.26422 0.07644-0.56348 0.41065-0.71198 0.71068-0.12972-0.14852-0.29328-0.27966-0.50394-0.306l-0.12183 0.40382c0.2962 0.05557 0.59214 0.40005 0.70329 0.63554 0.10538-0.262 0.43644-0.90443 0.83068-1.0283z"/>
      <path d="m68.028 53.771c-0.26422 0.07644-0.56348 0.41065-0.71198 0.71068-0.12972-0.14852-0.29328-0.27966-0.50394-0.306l-0.12183 0.40382c0.2962 0.05557 0.59214 0.40005 0.70329 0.63554 0.10538-0.262 0.43644-0.90443 0.83068-1.0283z"/>
      <path d="m67.644 58.05c-0.26422 0.07644-0.56348 0.41065-0.71198 0.71068-0.12972-0.14852-0.29328-0.27966-0.50394-0.306l-0.12183 0.40382c0.2962 0.05557 0.59214 0.40005 0.70329 0.63554 0.10538-0.262 0.43644-0.90443 0.83068-1.0283z"/>
     </g>
    </g>
    <path transform="matrix(.12854 0 0 .12854 64.571 45.068)" d="m26.895 0.0058594c-0.64757 0.05597-1.1878 0.51031-1.6074 1.1563l-1.1934 1.8379h1.5938l0.2207-0.33984c0.61225-0.94288 1.4551-1.4773 2.584-0.74414l1.8281 1.1895 0.60742 0.39258 0.19922 0.12891c1.1288 0.73291 1.5441 2.0824 0.93164 3.0254l-8.6719 13.352c-0.47712 0.73431-0.6557 1.0474-1.7031 1.2207l-1.9219 0.43945c-0.69549 0.25509-0.82254-0.05969-0.88672-0.57617l-0.38281-1.9336c-0.26956-1.0284-0.05524-1.3202 0.42187-2.0547l7.0469-10.852-1.1191-0.72656-7.6035 11.707c-0.42079 0.64796-0.40062 0.91058-0.25195 1.7812l0.84766 3.5039c0.06457 0.40376 0.17791 0.60105 0.34766 0.68359 0.17247 0.07702 0.39674 0.04666 0.69726-0.0059l3.5449-0.65039c0.85653-0.21752 1.1027-0.30651 1.5234-0.95508l9.7266-14.977c0.672-1.0349 0.21732-2.5158-1.0215-3.3203l-0.16211-0.10156-1.5664-1.0176-2.7461-1.7832c-0.46384-0.3012-0.8927-0.41347-1.2812-0.38086zm-13.895 20.078-2.666 4.1055c-0.47743 0.73517-0.36429 0.86367-0.14258 1.9922l1.3594 5.8633c0.09219 0.42414 0.22268 0.63751 0.41211 0.73242v2e-3c0.19208 0.08985 0.43795 0.0721 0.76562 0.0332l0.27148-0.052778v-1.3223c-0.30269-0.06543-0.41198-0.34012-0.48242-0.7207l-0.76172-4.5879c-0.2442-0.91651-0.31643-1.2027 0.21289-2.0039l1.0312-1.5879z" fill="#e8bb4d" style="paint-order:markers stroke fill"/>
   </g>
  </g>
 </g>
</svg>
