<?xml version="1.0" encoding="UTF-8"?>
<!-- Created with Inkscape (http://www.inkscape.org/) -->
<svg width="128" height="128" version="1.1" viewBox="0 0 33.867 33.867" xmlns="http://www.w3.org/2000/svg" xmlns:cc="http://creativecommons.org/ns#" xmlns:dc="http://purl.org/dc/elements/1.1/" xmlns:rdf="http://www.w3.org/1999/02/22-rdf-syntax-ns#">
 <metadata>
  <rdf:RDF>
   <cc:Work rdf:about="">
    <dc:format>image/svg+xml</dc:format>
    <dc:type rdf:resource="http://purl.org/dc/dcmitype/StillImage"/>
    <dc:title/>
   </cc:Work>
  </rdf:RDF>
 </metadata>
 <g transform="translate(0 -263.13)">
  <g transform="matrix(1.1228 0 0 1.1228 -2.0795 -34.394)">
   <g>
    <circle cx="13.758" cy="278.74" r="11.642" fill="#848586" style="paint-order:markers stroke fill"/>
    <circle cx="13.758" cy="278.74" r="9.4589" fill="#fff" style="paint-order:markers stroke fill"/>
    <g transform="matrix(.91667 0 0 .91667 1.1465 19.106)" fill="#242424">
     <path d="m13.168 282.71 7.3174-6.9406-6.1377 8.0028z" style="paint-order:markers stroke fill"/>
     <circle cx="13.758" cy="283.24" r="1.5875" style="paint-order:markers stroke fill"/>
    </g>
    <rect x="11.642" y="264.99" width="4.2333" height="2.1167" fill="#848586" style="paint-order:markers stroke fill"/>
   </g>
   <g transform="translate(37.042 12.965)">
    <g transform="translate(7.4083 -2.1167)">
     <path transform="matrix(.23564 0 0 .23564 -42.598 254.14)" d="m108.91 96.602a17.965 8.9825 0 0 0-17.961 8.9414h-0.0039v4.4922c2.9e-5 4.9609 8.0431 8.9824 17.965 8.9824 9.9217 0 17.965-4.0216 17.965-8.9824v-4.4922h-2e-3a17.965 8.9825 0 0 0-17.963-8.9414z" fill="#de9349" style="paint-order:markers stroke fill"/>
     <ellipse cx="-16.933" cy="279.02" rx="3.81" ry="1.905" fill="#e8bb4d" style="paint-order:markers stroke fill"/>
    </g>
    <g transform="translate(7.4083 -3.7042)">
     <path transform="matrix(.23564 0 0 .23564 -42.598 255.72)" d="m108.91 89.865a17.965 8.9825 0 0 0-17.961 8.9414h-0.0039v4.4922c2.9e-5 4.9609 8.0431 8.9824 17.965 8.9824 9.9217 0 17.965-4.0216 17.965-8.9824v-4.4922h-2e-3a17.965 8.9825 0 0 0-17.963-8.9414z" fill="#de9349" style="paint-order:markers stroke fill"/>
     <ellipse cx="-16.933" cy="279.02" rx="3.81" ry="1.905" fill="#e8bb4d" style="paint-order:markers stroke fill"/>
    </g>
    <g transform="translate(7.4083 -5.2917)">
     <path transform="matrix(.23564 0 0 .23564 -42.598 257.31)" d="m108.91 83.129a17.965 8.9825 0 0 0-17.961 8.9414h-0.0039v4.4902c2.9e-5 4.9609 8.0431 8.9824 17.965 8.9824 9.9217 0 17.965-4.0216 17.965-8.9824v-4.4902h-2e-3a17.965 8.9825 0 0 0-17.963-8.9414z" fill="#de9349" style="paint-order:markers stroke fill"/>
     <ellipse cx="-16.933" cy="279.02" rx="3.81" ry="1.905" fill="#e8bb4d" style="paint-order:markers stroke fill"/>
    </g>
    <g transform="translate(7.4083 -6.8792)">
     <path transform="matrix(.23564 0 0 .23564 -42.598 258.9)" d="m108.91 76.393a17.965 8.9825 0 0 0-17.961 8.9414h-0.0039v4.4902c2.9e-5 4.9609 8.0431 8.9824 17.965 8.9824 9.9217 0 17.965-4.0216 17.965-8.9824v-4.4902h-2e-3a17.965 8.9825 0 0 0-17.963-8.9414z" fill="#de9349" style="paint-order:markers stroke fill"/>
     <ellipse cx="-16.933" cy="279.02" rx="3.81" ry="1.905" fill="#e8bb4d" style="paint-order:markers stroke fill"/>
    </g>
    <g transform="translate(6.8792 -8.4667)">
     <path transform="matrix(.23564 0 0 .23564 -42.069 260.49)" d="m106.67 69.654a17.965 8.9825 0 0 0-17.961 8.9414h-0.0039v4.4922c3e-5 4.9609 8.0431 8.9824 17.965 8.9824 9.9217 0 17.965-4.0216 17.965-8.9824v-4.4922h-2e-3a17.965 8.9825 0 0 0-17.963-8.9414z" fill="#de9349" style="paint-order:markers stroke fill"/>
     <ellipse cx="-16.933" cy="279.02" rx="3.81" ry="1.905" fill="#e8bb4d" style="paint-order:markers stroke fill"/>
    </g>
    <g transform="translate(7.4083 -9.525)">
     <path transform="matrix(.23564 0 0 .23564 -42.598 261.55)" d="m108.91 65.164a17.965 8.9825 0 0 0-17.961 8.9414h-0.0039v4.4902c2.9e-5 4.9609 8.0431 8.9824 17.965 8.9824 9.9217 0 17.965-4.0216 17.965-8.9824v-4.4902h-2e-3a17.965 8.9825 0 0 0-17.963-8.9414z" fill="#de9349" style="paint-order:markers stroke fill"/>
     <ellipse cx="-16.933" cy="279.02" rx="3.81" ry="1.905" fill="#e8bb4d" style="paint-order:markers stroke fill"/>
    </g>
    <g transform="translate(7.4083 -11.113)">
     <path transform="matrix(.23564 0 0 .23564 -42.598 263.13)" d="m108.91 58.428a17.965 8.9825 0 0 0-17.961 8.9414h-0.0039v4.4902c2.9e-5 4.9609 8.0431 8.9824 17.965 8.9824 9.9217 0 17.965-4.0216 17.965-8.9824v-4.4902h-2e-3a17.965 8.9825 0 0 0-17.963-8.9414z" fill="#de9349" style="paint-order:markers stroke fill"/>
     <ellipse cx="-16.933" cy="279.02" rx="3.81" ry="1.905" fill="#e8bb4d" style="paint-order:markers stroke fill"/>
    </g>
    <g transform="translate(7.4083 -12.7)">
     <path transform="matrix(.23564 0 0 .23564 -42.598 264.72)" d="m108.91 51.689a17.965 8.9825 0 0 0-17.961 8.9414h-0.0039v4.4922c2.9e-5 4.9609 8.0431 8.9824 17.965 8.9824 9.9217 0 17.965-4.0216 17.965-8.9824v-4.4922h-2e-3a17.965 8.9825 0 0 0-17.963-8.9414z" fill="#de9349" style="paint-order:markers stroke fill"/>
     <ellipse cx="-16.933" cy="279.02" rx="3.81" ry="1.905" fill="#e8bb4d" style="paint-order:markers stroke fill"/>
    </g>
    <path transform="matrix(.23564 0 0 .23564 -35.19 252.02)" d="m77.475 105.58a17.965 8.9825 0 0 0-17.963 8.9414h-0.0039v4.4922c3e-5 4.9609 8.0451 8.9824 17.967 8.9824 9.9217 0 17.965-4.0216 17.965-8.9824v-4.4922h-2e-3a17.965 8.9825 0 0 0-17.963-8.9414z" fill="#de9349" style="paint-order:markers stroke fill"/>
    <ellipse cx="-16.933" cy="279.02" rx="3.81" ry="1.905" fill="#e8bb4d" style="paint-order:markers stroke fill"/>
    <g transform="translate(0,-1.5875)">
     <path transform="matrix(.23564 0 0 .23564 -35.19 253.61)" d="m77.475 98.848a17.965 8.9825 0 0 0-17.963 8.9414h-0.0039v4.4922c3e-5 4.9609 8.0451 8.9824 17.967 8.9824 9.9217 0 17.965-4.0216 17.965-8.9824v-4.4922h-2e-3a17.965 8.9825 0 0 0-17.963-8.9414z" fill="#de9349" style="paint-order:markers stroke fill"/>
     <ellipse cx="-16.933" cy="279.02" rx="3.81" ry="1.905" fill="#e8bb4d" style="paint-order:markers stroke fill"/>
    </g>
    <g transform="translate(.52917 -3.175)">
     <path transform="matrix(.23564 0 0 .23564 -35.719 255.2)" d="m79.719 92.111a17.965 8.9825 0 0 0-17.961 8.9414h-0.0039v4.4902c3e-5 4.9609 8.0431 8.9824 17.965 8.9824s17.965-4.0216 17.965-8.9824v-4.4902h-2e-3a17.965 8.9825 0 0 0-17.963-8.9414z" fill="#de9349" style="paint-order:markers stroke fill"/>
     <ellipse cx="-16.933" cy="279.02" rx="3.81" ry="1.905" fill="#e8bb4d" style="paint-order:markers stroke fill"/>
    </g>
    <g transform="translate(.52917 -4.7625)">
     <path transform="matrix(.23564 0 0 .23564 -35.719 256.78)" d="m79.719 85.375a17.965 8.9825 0 0 0-17.961 8.9414h-0.0039v4.4902c3e-5 4.9609 8.0431 8.9824 17.965 8.9824s17.965-4.0216 17.965-8.9824v-4.4902h-2e-3a17.965 8.9825 0 0 0-17.963-8.9414z" fill="#de9349" style="paint-order:markers stroke fill"/>
     <ellipse cx="-16.933" cy="279.02" rx="3.81" ry="1.905" fill="#e8bb4d" style="paint-order:markers stroke fill"/>
    </g>
    <g transform="translate(0 -6.35)">
     <path transform="matrix(.23564 0 0 .23564 -35.19 258.37)" d="m77.475 78.637a17.965 8.9825 0 0 0-17.963 8.9414h-0.0039v4.4922c3e-5 4.9609 8.0451 8.9824 17.967 8.9824 9.9217 0 17.965-4.0216 17.965-8.9824v-4.4922h-2e-3a17.965 8.9825 0 0 0-17.963-8.9414z" fill="#de9349" style="paint-order:markers stroke fill"/>
     <ellipse cx="-16.933" cy="279.02" rx="3.81" ry="1.905" fill="#e8bb4d" style="paint-order:markers stroke fill"/>
    </g>
   </g>
  </g>
 </g>
</svg>
