<?xml version="1.0" encoding="UTF-8"?>
<!-- Created with Inkscape (http://www.inkscape.org/) -->
<svg width="128" height="128" enable-background="new" version="1.1" viewBox="0 0 33.867 33.867" xmlns="http://www.w3.org/2000/svg" xmlns:cc="http://creativecommons.org/ns#" xmlns:dc="http://purl.org/dc/elements/1.1/" xmlns:rdf="http://www.w3.org/1999/02/22-rdf-syntax-ns#">
 <defs>
  <clipPath id="clipPath2123">
   <path d="m67.024 45.321v15.948h11.548v-12.67l-3.085-3.2771z" fill="#fff" style="paint-order:stroke markers fill"/>
  </clipPath>
 </defs>
 <metadata>
  <rdf:RDF>
   <cc:Work rdf:about="">
    <dc:format>image/svg+xml</dc:format>
    <dc:type rdf:resource="http://purl.org/dc/dcmitype/StillImage"/>
    <dc:title/>
   </cc:Work>
  </rdf:RDF>
 </metadata>
 <g transform="translate(0 -263.13)">
  <g transform="matrix(2.0583 0 0 2.0583 -132.91 170.37)">
   <path d="m67.399 45.84v14.911h10.798v-11.847l-2.8844-3.0641z" fill="#fff" style="paint-order:stroke markers fill"/>
   <g fill="#efefef">
    <path d="m71.718 58.163c-0.37074-0.01874-0.62021 0.45298-0.39886 0.7499 0.15086 0.24801 0.45491 0.21167 0.70316 0.2116 2.2386-0.0015-1.532 0.0033 0.7065-0.0024 0.36917-0.01933 0.5697-0.51121 0.32195-0.78442-0.1931-0.24325-0.51874-0.15939-0.7874-0.17461h-0.54534z" style="paint-order:stroke markers fill"/>
    <path d="m71.718 56.24c-0.41234-0.0231-0.64652 0.54557-0.34025 0.821 0.23323 0.22223 0.57404 0.11491 0.86297 0.1405 3.1273-0.0015 1.2069 0.0033 4.3341-0.0024 0.41078-0.01928 0.58681-0.60564 0.25685-0.84951-0.24535-0.18237-0.56699-0.08435-0.85059-0.10952h-4.263z" style="paint-order:stroke markers fill"/>
    <path d="m71.718 54.317c-0.39118-0.02094-0.63466 0.49827-0.37123 0.78689 0.20885 0.25533 0.55798 0.15372 0.84352 0.17461 2.7435-0.0015 0.43925 0.0033 3.1826-0.0024 0.38962-0.01925 0.57963-0.55752 0.29096-0.81852-0.224-0.21723-0.55258-0.11764-0.83186-0.1405h-3.114z" style="paint-order:stroke markers fill"/>
    <path d="m71.718 52.394c-0.41234-0.0231-0.64652 0.54557-0.34025 0.821 0.23323 0.22223 0.57404 0.1149 0.86297 0.1405 3.1273-0.0015 1.2069 0.0033 4.3341-0.0024 0.41078-0.01928 0.58681-0.60564 0.25685-0.84951-0.24535-0.18237-0.56699-0.08435-0.85059-0.10952h-4.263z" style="paint-order:stroke markers fill"/>
    <path d="m71.718 50.471c-0.41234-0.0231-0.64652 0.54557-0.34025 0.821 0.23323 0.22223 0.57404 0.11491 0.86297 0.1405 3.1273-0.0015 1.2069 0.0033 4.3341-0.0024 0.41078-0.01928 0.58681-0.60564 0.25685-0.84951-0.24535-0.18237-0.56699-0.08435-0.85059-0.10952h-4.263z" style="paint-order:stroke markers fill"/>
    <path d="m69.074 58.163c-0.37075-0.01874-0.62021 0.45298-0.39886 0.7499 0.15086 0.24801 0.4549 0.21167 0.70316 0.2116 2.2386-0.0015-1.7724 0.0033 0.46612-0.0024 0.36916-0.01933 0.5697-0.51121 0.32195-0.78442-0.1931-0.24325-0.51874-0.15939-0.7874-0.17461h-0.30496z" style="paint-order:stroke markers fill"/>
    <path d="m69.074 56.24c-0.41234-0.0231-0.64652 0.54557-0.34026 0.821 0.23323 0.22223 0.57405 0.11491 0.86298 0.1405 3.1273-0.0015-2.6391 0.0033 0.48806-0.0024 0.41079-0.01928 0.58681-0.60564 0.25685-0.84951-0.24535-0.18237-0.56699-0.08435-0.85058-0.10952h-0.41706z" style="paint-order:stroke markers fill"/>
    <path d="m69.074 54.317c-0.39118-0.02094-0.63466 0.49827-0.37124 0.78689 0.20886 0.25533 0.55799 0.15372 0.84352 0.17461 2.7435-0.0015-2.2049 0.0033 0.5385-0.0024 0.38961-0.01925 0.57962-0.55752 0.29096-0.81852-0.22399-0.21723-0.55258-0.11764-0.83186-0.1405h-0.46988z" style="paint-order:stroke markers fill"/>
    <path d="m69.074 52.394c-0.41234-0.0231-0.64652 0.54557-0.34026 0.821 0.23323 0.22223 0.57405 0.1149 0.86298 0.1405 3.1273-0.0015-3.1199 0.0033 0.0075-0.0024 0.41078-0.01928 0.5868-0.60564 0.25686-0.84951-0.24535-0.18237-0.56699-0.08435-0.85059-0.10952h0.06367z" style="paint-order:stroke markers fill"/>
    <path d="m69.074 50.471c-0.41234-0.0231-0.64652 0.54557-0.34026 0.821 0.23323 0.22223 0.57405 0.11491 0.86298 0.1405 3.1273-0.0015-2.6391 0.0033 0.48806-0.0024 0.41079-0.01928 0.58681-0.60564 0.25685-0.84951-0.24535-0.18237-0.56699-0.08435-0.85058-0.10952h-0.41706z" style="paint-order:stroke markers fill"/>
   </g>
   <rect transform="matrix(.935 0 0 .935 4.7319 3.4642)" x="68.301" y="47.058" width="8.9947" height="1.986" rx=".5175" ry=".51417" clip-path="url(#clipPath2123)" fill="#bec1c3" style="paint-order:markers fill stroke"/>
   <path d="m78.197 48.904-2.8844-3.0641v3.0641z" fill="#efefef" style="paint-order:stroke markers fill"/>
  </g>
 </g>
</svg>
