<?xml version="1.0" encoding="UTF-8"?>
<!-- Created with Inkscape (http://www.inkscape.org/) -->
<svg width="128" height="128" version="1.1" viewBox="0 0 33.867 33.867" xmlns="http://www.w3.org/2000/svg" xmlns:cc="http://creativecommons.org/ns#" xmlns:dc="http://purl.org/dc/elements/1.1/" xmlns:rdf="http://www.w3.org/1999/02/22-rdf-syntax-ns#">
 <metadata>
  <rdf:RDF>
   <cc:Work rdf:about="">
    <dc:format>image/svg+xml</dc:format>
    <dc:type rdf:resource="http://purl.org/dc/dcmitype/StillImage"/>
    <dc:title/>
   </cc:Work>
  </rdf:RDF>
 </metadata>
 <g transform="translate(0 -263.13)">
  <g transform="matrix(.91558 0 0 .91558 -1.1909 18.012)">
   <path d="m5.1891 267.94c-0.61276 0.39793-0.78691 1.2172-0.38898 1.83l13.365 20.58 2.219-1.441-13.365-20.58c-0.39793-0.61275-1.2172-0.78691-1.83-0.38898z" fill="#fff" style="paint-order:markers stroke fill"/>
   <path d="m19.167 289.46c-2.9018 1.8878-3.5657 6.047-1.5742 9.2248 0.60798 1.2715 2.9747 3.0209 2.4064 4.6844-0.74494 1.4694 16.204 2.3211 14.937-0.64155-5.9932-3.8662-3.9347-6.9978-6.7006-10.954-2.0934-3.1124-6.1638-4.1974-9.0687-2.3132z" fill="#de9349" style="paint-order:markers stroke fill"/>
   <path transform="matrix(.28911 0 0 .28911 1.4053 267.72)" d="m75.105 93.893s8.1174 20.585 10.727 33.926c2.8682 0.1127 5.7941 0.13166 8.6641 0.0762 0.01756-4.5e-4 0.03518-2e-3 0.05273-2e-3 -3.5419-11.613-13.985-23.131-19.443-34zm13.426 2.3594c0.53676 9.9668 9.656 21.711 14.896 31.141 2.2006-0.23185 4.234-0.54045 5.9961-0.9375-8.9937-8.3457-17.637-22.209-20.893-30.203zm-20.508 1.3281c2.3597 6.1891 1.631 18.27 1.5781 28.52 1.7171 0.36221 3.759 0.68026 6.0332 0.94727-4.3766-13.882-1.9429-22.44-7.6113-29.467z" fill="#d05844" style="paint-order:markers stroke fill"/>
   <path d="m18.897 291.16c-0.96867-0.78308-1.3974-2.0994-3.303-2.8105l4.09-2.3248c0.19902 2.3811 0.95371 3.1558 1.3351 4.2605z" fill="#de9349"/>
   <path d="m17.527 289.63c0.51083-0.58375 1.2144-1.1702 2.5039-1.6896 0.42415-0.17085 0.63446 0.56614 0.38054 0.92851-0.22561 0.32196-1.3738 1.2166-2.3289 1.5374-0.44269 0.14868-0.84223-0.44872-0.55558-0.77629z" fill="#970a2c"/>
  </g>
 </g>
</svg>
