<?xml version="1.0" encoding="UTF-8"?>
<!-- Created with Inkscape (http://www.inkscape.org/) -->
<svg width="128" height="128" version="1.1" viewBox="0 0 33.867 33.867" xmlns="http://www.w3.org/2000/svg" xmlns:cc="http://creativecommons.org/ns#" xmlns:dc="http://purl.org/dc/elements/1.1/" xmlns:rdf="http://www.w3.org/1999/02/22-rdf-syntax-ns#">
 <metadata>
  <rdf:RDF>
   <cc:Work rdf:about="">
    <dc:format>image/svg+xml</dc:format>
    <dc:type rdf:resource="http://purl.org/dc/dcmitype/StillImage"/>
    <dc:title/>
   </cc:Work>
  </rdf:RDF>
 </metadata>
 <g transform="translate(0 -263.13)">
  <g transform="matrix(2.0583 0 0 2.0583 -132.91 170.37)">
   <path d="m66.242 45.454v14.911h10.798l-5.6e-5 -14.911z" fill="#494949" style="paint-order:stroke markers fill"/>
   <g transform="matrix(1.0202 0 0 1.0838 .081406 -5.5954)">
    <path d="m65.352 47.696v13.758h10.583v-10.931l-2.8272-2.8272z" fill="#fff" style="paint-order:stroke markers fill"/>
    <path d="m75.935 50.524-2.8272-2.8272v2.8272z" fill="#efefef" style="paint-order:stroke markers fill"/>
    <g fill="#efefef">
     <path transform="matrix(.12599 0 0 .11861 63.21 46.747)" d="m38 32v8h12v-8zm18 0v8h12v-8zm18 0v8h12v-8z" style="paint-order:markers stroke fill"/>
     <path transform="matrix(.12599 0 0 .11861 63.21 46.747)" d="m25 48v66h68v-66zm2 2h14v9h-14zm16 0h23v9h-23zm25 0h23v9h-23zm-41 11h14v8.75h-14zm16 0h23v8.75h-23zm25 0h23v8.75h-23zm-41 10.75h14v8.75h-14zm16 0h23v8.75h-23zm25 0h23v8.75h-23zm-41 10.75h14v8.75h-14zm16 0h23v8.75h-23zm25 0h23v8.75h-23zm-41 10.75h14v8.75h-14zm16 0h23v8.75h-23zm25 0h23v8.75h-23zm-41 10.75h14v8h-14zm16 0h23v8h-23zm25 0h23v8h-23z" style="paint-order:markers stroke fill"/>
     <path transform="matrix(.12599 0 0 .11861 63.21 46.747)" d="m70 51.5v6h19v-6zm-25 11v6h19v-6zm0 32v6h19v-6z" style="paint-order:markers stroke fill"/>
    </g>
   </g>
   <g transform="matrix(.97166 0 0 .97166 3.0229 1.7435)">
    <circle cx="76.043" cy="58.347" r="3.175" fill="#d05844" style="paint-order:stroke markers fill"/>
    <rect x="73.962" y="57.685" width="4.1623" height="1.3229" fill="#fff" style="paint-order:stroke markers fill"/>
   </g>
   <path transform="matrix(.12854 0 0 .12854 64.571 45.068)" d="m21.264 0.0039062c-0.43228 0.036888-0.79223 0.34045-1.0723 0.77148l-1.4453 2.2246h1.0625l0.79688-1.2266c0.40819-0.62859 0.97009-0.98487 1.7227-0.49609l1.2188 0.79297 0.4043 0.26172 0.13281 0.085938c0.75251 0.48863 1.0294 1.3889 0.62109 2.0176l-5.7812 8.9004c-0.3181 0.48956-0.43647 0.69893-1.1348 0.81445l-1.2812 0.29297c-0.46366 0.17006-0.54901-0.04021-0.5918-0.38476l-0.25391-1.2891c-0.17971-0.68561-0.03685-0.87949 0.28125-1.3691l4.6973-7.2344-0.74609-0.48438-5.0684 7.8047c-0.28053 0.432-0.26708 0.60705-0.16797 1.1875l0.56445 2.3359c0.04279 0.26917 0.11923 0.40008 0.23242 0.45508 0.11498 0.05135 0.26452 0.03118 0.46484-0.0039l2.3633-0.43359c0.57102-0.14501 0.73511-0.20433 1.0156-0.63672l6.4844-9.9844c0.44802-0.68997 0.14423-1.6765-0.68164-2.2129l-0.10742-0.068359-1.0449-0.67773-1.8301-1.1895c-0.30972-0.20112-0.5961-0.27604-0.85547-0.25391zm-8.2637 11.846-2.7773 4.2773c-0.31826 0.49011-0.24351 0.57578-0.0957 1.3281l0.90625 3.9082c0.06146 0.28279 0.14913 0.42503 0.27539 0.48828v2e-3c0.12805 0.0599 0.29132 0.04716 0.50976 0.02148l1.1816-0.22856v-0.88672l-0.63477 0.16602c-0.50038 0.14999-0.61912-0.07782-0.6875-0.44726l-0.50781-3.0586c-0.16283-0.611-0.2103-0.80178 0.14258-1.3359l1.6875-2.5996z" display="none" fill="#e8bb4d" style="paint-order:markers stroke fill"/>
   <path transform="matrix(.12854 0 0 .12854 64.571 45.068)" d="m26.895 0.0058594c-0.64757 0.05597-1.1878 0.51031-1.6074 1.1563l-1.1934 1.8379h1.5938l0.2207-0.33984c0.61225-0.94288 1.4551-1.4773 2.584-0.74414l1.8281 1.1895 0.60742 0.39258 0.19922 0.12891c1.1288 0.73291 1.5441 2.0824 0.93164 3.0254l-8.6719 13.352c-0.47712 0.73431-0.6557 1.0474-1.7031 1.2207l-1.9219 0.43945c-0.69549 0.25509-0.82254-0.05969-0.88672-0.57617l-0.38281-1.9336c-0.26956-1.0284-0.05524-1.3202 0.42187-2.0547l7.0469-10.852-1.1191-0.72656-7.6035 11.707c-0.42079 0.64796-0.40062 0.91058-0.25195 1.7812l0.84766 3.5039c0.06457 0.40376 0.17791 0.60105 0.34766 0.68359 0.17247 0.07702 0.39674 0.04666 0.69726-0.0059l3.5449-0.65039c0.85653-0.21752 1.1027-0.30651 1.5234-0.95508l9.7266-14.977c0.672-1.0349 0.21732-2.5158-1.0215-3.3203l-0.16211-0.10156-1.5664-1.0176-2.7461-1.7832c-0.46384-0.3012-0.8927-0.41347-1.2812-0.38086zm-13.895 20.078-2.666 4.1055c-0.47743 0.73517-0.36429 0.86367-0.14258 1.9922l1.3594 5.8633c0.09219 0.42414 0.22268 0.63751 0.41211 0.73242v2e-3c0.19208 0.08985 0.43795 0.0721 0.76562 0.0332l0.27148-0.052778v-1.3223c-0.30269-0.06543-0.41198-0.34012-0.48242-0.7207l-0.76172-4.5879c-0.2442-0.91651-0.31643-1.2027 0.21289-2.0039l1.0312-1.5879z" fill="#e8bb4d" style="paint-order:markers stroke fill"/>
  </g>
 </g>
</svg>
