<?xml version="1.0" encoding="UTF-8"?>
<!-- Created with Inkscape (http://www.inkscape.org/) -->
<svg width="128" height="128" version="1.1" viewBox="0 0 33.867 33.867" xmlns="http://www.w3.org/2000/svg" xmlns:cc="http://creativecommons.org/ns#" xmlns:dc="http://purl.org/dc/elements/1.1/" xmlns:rdf="http://www.w3.org/1999/02/22-rdf-syntax-ns#">
 <metadata>
  <rdf:RDF>
   <cc:Work rdf:about="">
    <dc:format>image/svg+xml</dc:format>
    <dc:type rdf:resource="http://purl.org/dc/dcmitype/StillImage"/>
    <dc:title/>
   </cc:Work>
  </rdf:RDF>
 </metadata>
 <g transform="translate(0 -263.13)">
  <g transform="matrix(1.0312 0 0 1.0312 52.09 -21.181)">
   <g fill="none">
    <g>
     <path transform="matrix(.25657 0 0 .25657 -50.512 275.7)" d="m61.617 64.809c-9.8204 0.08469-18.031 1.2452-24.865 3.1699 9.8112 15.158 17.08 36.463 22.263 51.294 0.02337-0.40575 13.425-3.3968 13.447-3.811 0.75698-14.464-7.7799-33.763-8.4346-50.618-0.78342-0.02757-1.5831-0.04229-2.4102-0.03516z" fill="#e8bb4d"/>
     <path transform="matrix(.25657 0 0 .25657 -50.512 275.7)" d="m61.617 64.809c0.82375-0.0071 1.62 0.0078 2.4004 0.03516-0.78023-0.0273-1.5769-0.04226-2.4004-0.03516zm2.4102 0.03516c0.6666 17.161 2.4471 35.849 0.13886 49.786-0.02448 0.1478-0.51977 0.0381-0.52834 0.18692-7.9773-13.639-17.075-31.68-26.886-46.838-24.367 6.8632-31.244 23.453-31.244 35.727 0 15.716 19.114 26.432 42.691 23.934 23.578-2.4988 42.691-17.266 42.691-32.982 0-15.169-5.1475-29.048-26.863-29.812zm-6.2891 0.06055c-0.39286 0.01543-0.77085 0.04152-1.1582 0.06055 0.38755-0.01905 0.76514-0.0451 1.1582-0.06055zm-3.7227 0.20898c-0.462 0.03312-0.91142 0.07299-1.3652 0.11133 0.45352-0.03833 0.90355-0.07821 1.3652-0.11133zm-3.5234 0.3125c-0.46299 0.04887-0.9189 0.10186-1.373 0.15625 0.45417-0.05441 0.91004-0.10735 1.373-0.15625zm-3.4512 0.42969c-0.42992 0.0612-0.85762 0.12324-1.2793 0.18945 0.42137-0.06618 0.8497-0.12827 1.2793-0.18945zm-3.1348 0.50391c-0.46082 0.08272-0.92439 0.16318-1.375 0.25195 0.45041-0.08874 0.9144-0.16926 1.375-0.25195zm-3.2227 0.64453c-0.36195 0.08041-0.7328 0.15587-1.0879 0.24024 0.35525-0.08441 0.72577-0.15978 1.0879-0.24024z" fill="#848586" style="paint-order:markers stroke fill"/>
     <path transform="matrix(.25657 0 0 .25657 -50.512 275.7)" d="m61.617 64.809c0.73997-0.0064 1.4522 0.0091 2.1562 0.03125-0.70221-0.02375-1.4157-0.03764-2.1562-0.03125zm2.4102 0.04297c0.67318 17.335 0.67339 34.871-0.16602 49.443-5.1819-14.825-17.288-31.145-27.098-46.299-1.8814 0.53067-3.6795 1.1081-5.3574 1.748 9.6228 15.896 21.454 25.194 33.4 48.125 1.0044-17.436 1.4832-32.995 0.41992-52.965-0.39253-0.0233-0.79705-0.03723-1.1992-0.05273zm-6.5547 0.06641c-0.42719 0.01777-0.84303 0.04242-1.2637 0.06445 0.42089-0.02203 0.83623-0.04669 1.2637-0.06445zm-4.1172 0.24805c-0.40039 0.03122-0.7992 0.06442-1.1934 0.09961 0.39394-0.03512 0.79319-0.06844 1.1934-0.09961zm-4.2109 0.41406c-0.23197 0.02776-0.47149 0.0509-0.70117 0.08008 0.22973-0.02915 0.46915-0.05234 0.70117-0.08008zm-4.3301 0.61133c-0.14884 0.02507-0.28971 0.05634-0.4375 0.08203 0.14778-0.02567 0.28867-0.05699 0.4375-0.08203zm-3.3965 0.65234c-0.27251 0.05783-0.53989 0.11769-0.80859 0.17773 0.26874-0.05999 0.53604-0.11996 0.80859-0.17773zm-3.3047 0.7793c-0.24837 0.06467-0.49924 0.12869-0.74414 0.19531 0.24495-0.06658 0.49571-0.13069 0.74414-0.19531z" fill="#242424"/>
     <path transform="matrix(.25657 0 0 .25657 -50.512 275.7)" d="m57.203 79.014c-2.2031 2.3711-3.3205 2.7527-4.7402 3.6875 1.3802 1.9483 3.1337 3.0891 5.6348 4.0566-0.65363 5.8789-0.88194 10.063-0.86328 13.244 2.6992 4.8562 5.0035 9.6484 6.627 14.293 0.3001-5.2099 0.4889-10.81 0.58203-16.633-1.2-3.1817-2.654-6.7285-4.7129-11.115 1.8545-1.5089 2.8143-3.3941 3.2676-6.1641-2.8441-0.1524-4.6338-0.65592-5.7949-1.3691z" fill="#de9349"/>
    </g>
    <g fill="none" stroke="#bec1c3" stroke-linecap="round" stroke-linejoin="round" stroke-width=".25697">
     <path d="m-43.025 294.51c-0.08108 0.13514 0.35137 5.4057 0.35137 5.4057l3.8921 0.24326-2.4326 2.2163 6.0814 4.73"/>
     <path d="m-33.025 292.97 3.4596 2.5677-2.1893 1.9461 2.5407 0.35137-2.3785 7.6761"/>
     <path d="m-43.726 307.44c-0.27364-0.93035-0.40784-1.71-0.40784-1.71l4.0272-0.40543s0.11006 1.2954-0.01881 2.5929"/>
    </g>
    <path d="m-41.052 305.29-0.1529-1.2996 0.19112-0.0382-0.03822-0.3058 0.22934-0.0191 0.01911 0.30579 0.19112-0.0382 0.26757 2.5037h-0.09556l-0.13378-1.1557z" fill="#de9349"/>
   </g>
   <path d="m-41.557 287.19c1.5961 1.3247 0.2417 5.6394 0.56491 5.998 2.3684 2.6279 6.0766 3.7794 6.7554 1.3269 0.45604-1.6475-0.19991-4.3361-0.66864-6.3877z" fill="#efefef"/>
   <g transform="translate(-17.894 18.311)">
    <path d="m-23.246 271.97c-2.1409-0.56908-3.4378-8.0242-2.2203-10.896 1.4367-3.3892 9.9466-3.8763 10.868-1.2778 1.6448 3.5652 0.40224 7.1198 0.38305 10.836z"/>
    <g fill="#efefef">
     <path d="m-13.754 268.74c-0.49745 2.8038-0.57674 5.5228-3.2484 6.1603-3.0869 0.73654-8.1108-3.6556-7.5257-7.8327 0.66895-4.7754 3.1484-6.7411 6.4382-6.8567 3.598-0.12643 5.0731 4.374 4.3359 8.5291z" style="paint-order:markers stroke fill"/>
     <ellipse transform="matrix(.9939 -.11026 .2604 .9655 0 0)" cx="-94.305" cy="266.65" rx="1.5065" ry="2.1524" style="paint-order:markers stroke fill"/>
    </g>
    <path transform="matrix(.26458 0 0 .26458 0 263.13)" d="m-69.279-13.125c-7.6584-0.03571-15.662 4.8064-17.836 10.842 5.5078-5.2708 10.134-4.3121 19.707-3.9961 6.6141-1.9361 7.9806-1.788 11.383 1.2598-2.9371-5.7732-8.014-8.081-13.254-8.1055zm-17.521 11.264c-6.4821 7.6417-10.893 4.7012-4.9727 12.166 1.4962 0.5108 2.0396 4.8523 1.1914 8.4922 1.0187 0.18028 2.0016 0.45884 3.4277-0.44727 1.2621-10.221-4.2072-12.431 0.35352-20.211z"/>
    <path d="m-15.123 260.67c-0.29494 2.6977-5.3387 0.21475-7.9259 1.8601 1.4741-1.9625 5.5675-0.8808 7.0976-2.2584 0.48178-0.43377 0.86152 0.0938 0.82823 0.39836z"/>
    <path d="m-23.135 262.42c-0.09975 1.503-1.8056 0.11964-2.6806 1.0363 0.49856-1.0934 1.883-0.49073 2.4005-1.2583 0.16294-0.24167 0.29138 0.0522 0.28011 0.22194z" fill="#494949"/>
    <path d="m-23.368 261.81c-0.28317 1.0401-1.5111-0.19999-2.358 0.30632 0.55874-0.68965 1.6247-0.0485 2.1556-0.50629 0.16718-0.14414 0.2343 0.0825 0.20233 0.19997z" fill="#494949"/>
   </g>
   <g transform="matrix(.58653 0 0 .58653 -34.603 133.12)">
    <circle cx="13.758" cy="283.24" r="12.7" fill="#848586" style="paint-order:markers stroke fill"/>
    <circle cx="13.758" cy="283.24" r="10.319" fill="#fff" style="paint-order:markers stroke fill"/>
    <g fill="#242424">
     <path d="m13.168 282.71 6.0194-6.6852 1.298-0.25538-0.11828 1.3176-6.0194 6.6852z" style="paint-order:markers stroke fill"/>
     <path d="m13.923 284.02-6.2112 1.3202-1.2002-0.55635 0.87017-0.99646 6.2112-1.3202z" style="paint-order:markers stroke fill"/>
     <circle cx="13.758" cy="283.24" r="1.5875" style="paint-order:markers stroke fill"/>
    </g>
   </g>
  </g>
 </g>
</svg>
