<?xml version="1.0" encoding="UTF-8"?>
<!-- Created with Inkscape (http://www.inkscape.org/) -->
<svg width="128" height="128" version="1.1" viewBox="0 0 33.867 33.867" xmlns="http://www.w3.org/2000/svg" xmlns:cc="http://creativecommons.org/ns#" xmlns:dc="http://purl.org/dc/elements/1.1/" xmlns:rdf="http://www.w3.org/1999/02/22-rdf-syntax-ns#">
 <metadata>
  <rdf:RDF>
   <cc:Work rdf:about="">
    <dc:format>image/svg+xml</dc:format>
    <dc:type rdf:resource="http://purl.org/dc/dcmitype/StillImage"/>
    <dc:title/>
   </cc:Work>
  </rdf:RDF>
 </metadata>
 <g transform="translate(0 -263.13)">
  <g transform="matrix(1.1429 0 0 1.1429 -1.2095 -37.591)">
   <g transform="translate(0 -6.6667e-6)">
    <path d="m2.1167 274.77 16.933-5.2917v12.7l-16.933 5.2917z" fill="#efefef" style="paint-order:markers stroke fill"/>
    <path d="m18.521 270.01 11.113 4.7625v12.7l-11.113-4.7625z" fill="#bec1c3" style="paint-order:markers stroke fill"/>
    <path transform="matrix(.26458 0 0 .26458 -1.0583 261.02)" d="m76 32-64 20 40 20v48l64-20v-48zm-1.9609 7.2383 23.525 12.273-41.852 13.078-23.523-12.273z" fill="#fff" style="paint-order:markers stroke fill"/>
    <path d="m2.1167 274.77 10.583 5.2917v12.7l-10.583-5.2917z" fill="#848586" style="paint-order:markers stroke fill"/>
   </g>
   <path d="m12.171 263.13v4.9389h-3.7042l7.4083 6.1736 7.4083-6.1736h-3.7042v-4.9389z" fill="#6fb26f" style="paint-order:markers stroke fill"/>
  </g>
 </g>
</svg>
