<?xml version="1.0" encoding="UTF-8"?>
<!-- Created with Inkscape (http://www.inkscape.org/) -->
<svg width="128" height="128" version="1.1" viewBox="0 0 33.867 33.867" xmlns="http://www.w3.org/2000/svg" xmlns:cc="http://creativecommons.org/ns#" xmlns:dc="http://purl.org/dc/elements/1.1/" xmlns:rdf="http://www.w3.org/1999/02/22-rdf-syntax-ns#">
 <metadata>
  <rdf:RDF>
   <cc:Work rdf:about="">
    <dc:format>image/svg+xml</dc:format>
    <dc:type rdf:resource="http://purl.org/dc/dcmitype/StillImage"/>
    <dc:title/>
   </cc:Work>
  </rdf:RDF>
 </metadata>
 <g transform="translate(0 -263.13)">
  <g transform="matrix(1.0312 0 0 1.0312 52.09 -21.181)">
   <g transform="matrix(1.0124 0 0 1.0755 -95.964 236.12)">
    <path d="m65.352 47.696v13.758h10.583v-10.931l-2.8272-2.8272z" fill="#fff" style="paint-order:stroke markers fill"/>
    <path d="m75.935 50.524-2.8272-2.8272v2.8272z" fill="#efefef" style="paint-order:stroke markers fill"/>
    <g fill="#efefef">
     <path transform="matrix(.12599 0 0 .11861 63.21 46.747)" d="m38 32v8h12v-8zm18 0v8h12v-8zm18 0v8h12v-8z" style="paint-order:markers stroke fill"/>
     <path transform="matrix(.12599 0 0 .11861 63.21 46.747)" d="m25 48v66h68v-66zm2 2h14v9h-14zm16 0h23v9h-23zm25 0h23v9h-23zm-41 11h14v8.75h-14zm16 0h23v8.75h-23zm25 0h23v8.75h-23zm-41 10.75h14v8.75h-14zm16 0h23v8.75h-23zm25 0h23v8.75h-23zm-41 10.75h14v8.75h-14zm16 0h23v8.75h-23zm25 0h23v8.75h-23zm-41 10.75h14v8.75h-14zm16 0h23v8.75h-23zm25 0h23v8.75h-23zm-41 10.75h14v8h-14zm16 0h23v8h-23zm25 0h23v8h-23z" style="paint-order:markers stroke fill"/>
     <path transform="matrix(.12599 0 0 .11861 63.21 46.747)" d="m70 51.5v6h19v-6zm-25 11v6h19v-6zm0 32v6h19v-6z" style="paint-order:markers stroke fill"/>
    </g>
   </g>
   <g>
    <path d="m-34.703 292.33c-2.5196 0.0217-4.6262 0.31947-6.3796 0.8133 2.5172 3.8891 4.8991 8.8044 6.2291 12.61 0.0073-0.1264 1.3813-0.29257 1.3892-0.422 0.22304-3.6997-0.45335-8.6939-0.6203-12.992-0.201-7e-3 -0.40616-0.0109-0.61837-9e-3z" fill="#fff"/>
    <path d="m-35.836 295.97c-0.56525 0.60835-0.85194 0.70624-1.2162 0.94609 0.35411 0.49988 0.80401 0.79255 1.4457 1.0408-0.1677 1.5083-0.22628 2.5819-0.22149 3.398 0.69253 1.246 1.2837 2.4755 1.7003 3.6671 0.077-1.3367 0.12544-2.7735 0.14933-4.2674-0.30788-0.81632-0.68094-1.7263-1.2092-2.8518 0.47581-0.38714 0.72206-0.87081 0.83836-1.5815-0.72972-0.0391-1.1889-0.16828-1.4868-0.35127z" fill="#d05844"/>
    <path d="m-35.836 295.97c-0.56525 0.60835-0.85194 0.70624-1.2162 0.94609 0.23504 0.33179 0.51389 0.57138 0.86141 0.7682l1.3375-1.4096c-0.44741-0.0616-0.76034-0.1681-0.98268-0.30467zm1.4587 0.49609-1.36 1.4332c0.04492 0.0187 0.08385 0.0395 0.13079 0.0576-0.10231 0.9202-0.16045 1.6638-0.19192 2.3006l1.133-1.1936c-0.15774-0.36416-0.32636-0.74388-0.52216-1.1611 0.44218-0.35978 0.68468-0.80542 0.81029-1.4367zm-0.10473 3.0242-1.34 1.4116c-0.0031 0.15532-0.0068 0.31359-6e-3 0.453 0.0051 0.16853 0.52222 1.2973 0.62588 1.1881l1.2112-1.2758c0.06094-0.0649 0.07051-0.36842 0.01253-0.51264-0.14877-0.39444-0.31426-0.81236-0.50361-1.2643zm0.47505 2.4178-0.9927 1.0463c-0.09011 0.089 0.58994 1.6707 0.68802 1.5695l0.21698-0.22901c0.10189-0.11777 0.18511-2.4919 0.08769-2.3868z" fill="#494949" style="paint-order:markers stroke fill"/>
    <path transform="matrix(.25657 0 0 .25657 -50.512 275.7)" d="m61.617 64.809c0.82375-0.0074 1.62 0.0081 2.4004 0.03516-0.7803-0.02731-1.5768-0.04227-2.4004-0.03516zm2.4102 0.03516c0.6735 17.338 0.67351 34.877-0.16602 49.451-5.1838-14.831-17.298-31.158-27.109-46.316-24.368 6.8629-31.244 23.453-31.244 35.727 0 15.716 19.114 26.432 42.691 23.934 23.578-2.4988 42.691-17.266 42.691-32.982 0-15.169-5.1476-29.048-26.863-29.812zm-6.2891 0.06055c-0.39286 0.01543-0.77085 0.04152-1.1582 0.06055 0.38755-0.01905 0.76514-0.0451 1.1582-0.06055zm-3.7227 0.20898c-0.462 0.03312-0.91142 0.07299-1.3652 0.11133 0.45352-0.03833 0.90355-0.07821 1.3652-0.11133zm-3.5234 0.3125c-0.46425 0.04901-0.92158 0.10365-1.377 0.1582 0.45549-0.05459 0.91258-0.10916 1.377-0.1582zm-3.4395 0.42774c-0.43314 0.0616-0.86427 0.12472-1.2891 0.19141 0.42462-0.06668 0.85609-0.1298 1.2891-0.19141zm-3.2461 0.52344c-0.40727 0.07361-0.81752 0.14626-1.2168 0.22461 0.39906-0.07832 0.80975-0.15102 1.2168-0.22461zm-3.1875 0.64258c-0.34036 0.07592-0.68915 0.14714-1.0234 0.22656 0.33424-0.07942 0.68312-0.15064 1.0234-0.22656z" fill="#242424" style="paint-order:markers stroke fill"/>
    <g transform="translate(4.2118e-8 2.0853e-5)" fill="none" stroke="#494949" stroke-linecap="round" stroke-linejoin="round" stroke-width=".25697">
     <path d="m-41.229 293.67c-0.08108 0.13514 0.14114 5.119 0.14114 5.119l2.7645-0.27276-2.0121 1.7385 5.6801 5.9532"/>
     <path d="m-33.541 292.95 2.3512 2.7397-1.8453 1.6403 2.0438 0.48516-2.0154 7.6379"/>
    </g>
   </g>
   <path d="m-41.557 287.19c1.5961 1.3247 0.2417 5.6394 0.56491 5.998 2.3684 2.6279 6.0766 3.7794 6.7554 1.3269 0.45604-1.6475-0.19991-4.3361-0.66864-6.3877z" fill="#efefef"/>
   <g transform="translate(-17.894 18.311)">
    <path d="m-23.246 271.97c-2.1409-0.56908-3.4378-8.0242-2.2203-10.896 1.4367-3.3892 9.9466-3.8763 10.868-1.2778 1.6448 3.5652 0.40224 7.1198 0.38305 10.836z"/>
    <g fill="#efefef">
     <path d="m-13.754 268.74c-0.49745 2.8038-0.57674 5.5228-3.2484 6.1603-3.0869 0.73654-8.1108-3.6556-7.5257-7.8327 0.66895-4.7754 3.1484-6.7411 6.4382-6.8567 3.598-0.12643 5.0731 4.374 4.3359 8.5291z" style="paint-order:markers stroke fill"/>
     <ellipse transform="matrix(.9939 -.11026 .2604 .9655 0 0)" cx="-94.305" cy="266.65" rx="1.5065" ry="2.1524" style="paint-order:markers stroke fill"/>
    </g>
    <path transform="matrix(.26458 0 0 .26458 0 263.13)" d="m-69.279-13.125c-7.6584-0.03571-15.662 4.8064-17.836 10.842 5.5078-5.2708 10.134-4.3121 19.707-3.9961 6.6141-1.9361 7.9806-1.788 11.383 1.2598-2.9371-5.7732-8.014-8.081-13.254-8.1055zm-17.521 11.264c-6.4821 7.6417-10.893 4.7012-4.9727 12.166 1.4962 0.5108 2.0396 4.8523 1.1914 8.4922 1.0187 0.18028 2.0016 0.45884 3.4277-0.44727 1.2621-10.221-4.2072-12.431 0.35352-20.211z"/>
   </g>
   <g transform="matrix(.80789 0 0 .80789 -9.6804 55.948)" fill="#d05844">
    <path d="m-20.731 284.18h-4.2166v-1.0024l2.1083-2.7466h-1.9869v-1.3441h3.9963v1.0878l-2.0184 2.6612h2.1173z"/>
    <path d="m-13.457 279.68h-6.0574v-1.2348l3.5535-4.8363h-3.3408v-1.5984h5.7213v1.3583l-3.4574 4.7128h3.5809z"/>
   </g>
   <g display="none">
    <path transform="matrix(.26458 0 0 .26458 0 263.13)" d="m-107.05 120.86c0.49848 2.5277 0.79128 4.5082-0.9414 8.8516 0.49571 5.2565-0.1122 16.023 0.55273 22.799 2.6622-3.6892 4.2979-7.6829 4.6113-11.771 0.0323-0.55357 0.0566-1.0694 0.0566-1.4492 0-0.90007-0.0226-1.7935-0.0625-2.6816-0.0134-0.29777-0.0403-0.5907-0.0586-0.88672-0.0362-0.58691-0.0745-1.173-0.13086-1.752-0.0362-0.36987-0.0859-0.73355-0.13086-1.0996-0.0597-0.48759-0.12319-0.97308-0.19922-1.4531-0.10493-0.66028-0.21556-1.319-0.35352-1.9629-1.3e-4 -6.2e-4 1.4e-4 -1e-3 0-2e-3 -2.6e-4 -1e-3 2.7e-4 -3e-3 0-4e-3 -0.33244-1.5503-0.76507-3.0479-1.3125-4.4785-3e-3 -7e-3 -5e-3 -0.0144-8e-3 -0.0215-3e-3 -7e-3 -5e-3 -0.0144-8e-3 -0.0215-0.12203-0.31728-0.25113-0.63107-0.38477-0.94141-0.0244-0.0568-0.0494-0.11336-0.0742-0.16992-0.13818-0.31446-0.28294-0.62484-0.43359-0.93164-6e-3 -0.0128-0.0113-0.0263-0.0176-0.0391-7e-3 -0.0139-0.0146-0.0272-0.0215-0.041-0.15477-0.31221-0.31426-0.62003-0.48242-0.92383-0.0245-0.0442-0.0515-0.0869-0.0762-0.13086-0.16566-0.29457-0.33682-0.5869-0.51562-0.87304-3e-3 -5e-3 -7e-3 -0.0104-0.01-0.0156zm-0.9414 8.8516c-7.7199 5.0295-30.043 10.885-66.037 10.723 3.9972 12.176 5.88 22.287 10.812 29.76 0.71288 0.17123 1.4376 0.32714 2.1738 0.46875 0.73623 0.14161 1.4841 0.26977 2.2422 0.38086 1.505 0.22052 3.0521 0.37968 4.6348 0.4746 0.0504 3e-3 0.10184 3e-3 0.15234 6e-3 0.69392 0.0398 1.3944 0.0654 2.1016 0.0801 0.16428 3e-3 0.32919 6e-3 0.49414 8e-3 0.59097 7e-3 1.1877 5e-3 1.7871-6e-3 0.23206-4e-3 0.46402-9e-3 0.69727-0.0156 0.59562-0.0174 1.1957-0.0468 1.7988-0.082 0.18001-0.0106 0.35842-0.0171 0.53906-0.0293 0.80305-0.054 1.6109-0.12067 2.4258-0.20703 0.822-0.0871 1.6372-0.19317 2.4473-0.31055 0.20028-0.029 0.39815-0.0629 0.59765-0.0937 0.61542-0.0951 1.2283-0.19656 1.8359-0.30859 0.24156-0.0445 0.48239-0.0915 0.72266-0.13867 0.56545-0.111 1.1256-0.23019 1.6836-0.35547 0.22136-0.0497 0.44394-0.0966 0.66406-0.14844 0.75398-0.1778 1.5035-0.36722 2.2422-0.57031 0.0109-3e-3 0.0223-5e-3 0.0332-8e-3 2e-3 -5.5e-4 4e-3 -1e-3 6e-3 -2e-3 0.79053-0.21787 1.5702-0.45153 2.3418-0.69726 0.10026-0.0319 0.1989-0.0653 0.29883-0.0977 0.64655-0.20956 1.2859-0.42784 1.918-0.65625 0.16538-0.0597 0.32978-0.12065 0.49414-0.18164 0.59347-0.22035 1.1802-0.44912 1.7598-0.68555 0.13958-0.0569 0.27923-0.11406 0.41797-0.17187 0.64309-0.26811 1.2778-0.54483 1.9024-0.83203 0.062-0.0285 0.1257-0.0553 0.1875-0.084 0.71433-0.33159 1.417-0.67576 2.1055-1.0312 0.66678-0.34431 1.3179-0.70079 1.959-1.0664 0.0847-0.0483 0.16775-0.0979 0.25195-0.14649 0.56424-0.32599 1.1192-0.65824 1.6621-1 0.0867-0.0545 0.17363-0.10912 0.25977-0.16406 1.8806-1.2001 3.6299-2.4918 5.2226-3.8613 2e-3 -2e-3 5e-3 -4e-3 8e-3 -6e-3 5e-3 -5e-3 0.0103-9e-3 0.0156-0.0137 0.52513-0.45222 1.0327-0.91447 1.5234-1.3828 0.0103-0.01 0.0209-0.0194 0.0312-0.0293 9e-3 -8e-3 0.0166-0.017 0.0254-0.0254 0.49579-0.47506 0.97467-0.9569 1.4336-1.4473 0.55693-8.4822 1.1216-17.323 2.127-26.045zm-66.037 10.723c-2.4803-1.8062-4.7436-2.4315-7.8184-7.5078-0.32245 0.61818-0.6186 1.2394-0.89453 1.8613-0.0268 0.0604-0.0518 0.12121-0.0781 0.18164-0.24769 0.56752-0.47665 1.135-0.6875 1.7031-0.0273 0.0736-0.0554 0.14716-0.082 0.2207-0.22415 0.61751-0.43045 1.2344-0.61328 1.8496-0.1917 0.64504-0.36116 1.2884-0.50977 1.9277-0.13686 0.58886-0.25127 1.1744-0.35351 1.7559-0.0254 0.14521-0.0489 0.28895-0.0723 0.43359-0.0722 0.44521-0.13454 0.88704-0.1875 1.3262-0.0206 0.17176-0.0408 0.34297-0.0586 0.51368-0.0439 0.41951-0.0783 0.83559-0.10547 1.248-0.0101 0.15465-0.0234 0.31129-0.0312 0.46485-0.0288 0.55823-0.0449 1.1102-0.0449 1.6523 0 0.5117 0.0232 1.0172 0.0644 1.5176 9e-3 0.1045 0.0267 0.20655 0.0371 0.31054 0.0379 0.37962 0.0813 0.75818 0.14258 1.1309 0.0284 0.17269 0.0663 0.34251 0.0996 0.51368 0.0604 0.31024 0.12479 0.61872 0.20117 0.92382 0.0411 0.16454 0.0871 0.32723 0.13281 0.49024 0.0864 0.30781 0.1787 0.61379 0.28125 0.91601 0.0549 0.162 0.11437 0.32207 0.17383 0.48243 0.10979 0.29571 0.22648 0.5889 0.35156 0.8789 0.0679 0.15758 0.13666 0.31484 0.20899 0.47071 0.13541 0.29143 0.28089 0.578 0.43164 0.86328 0.0742 0.14069 0.1467 0.28271 0.22461 0.42187 0.18228 0.32513 0.37612 0.64628 0.57812 0.96289 0.0564 0.0885 0.11007 0.17782 0.16797 0.26563 0.24909 0.37731 0.51246 0.74876 0.78906 1.1133 0.0232 0.0305 0.045 0.0614 0.0684 0.0918 1.2572 1.6384 2.7867 3.1453 4.5566 4.498 0.0122 9e-3 0.0249 0.0181 0.0371 0.0273 0.4249 0.32365 0.86472 0.63757 1.3164 0.94336 0.0344 0.0233 0.069 0.0471 0.10351 0.0703 0.44662 0.29965 0.90544 0.58933 1.377 0.87109 0.0171 0.0102 0.0337 0.0211 0.0508 0.0312 0.48641 0.28944 0.9863 0.56998 1.498 0.83985 0.0162 9e-3 0.0326 0.0169 0.0488 0.0254 0.52033 0.27333 1.0524 0.53652 1.5977 0.78906 3e-3 1e-3 5e-3 3e-3 8e-3 4e-3 -0.36194-6.0608-1.1663-14.171-3.0098-27.084z" display="inline" fill="#e8bb4d" style="paint-order:markers stroke fill"/>
    <g display="inline">
     <path d="m-41.308 293.4s0.08756-2.2745 0.39022-2.047c1.4167 1.0651 3.1371 2.1921 4.9876 2.4569 0.37566 0.0537 0.47553 1.9035 0.47553 1.9035s-0.1452-1.8681 0.11318-2.015c0.41408-0.23536 1.3182-0.80832 1.3182-0.80832 0.73249-0.61177 0.1388 1.6527 0.21313 2.4888-1.0995 1.2823-4.1893 2.171-7.4978-1.979z" fill="#242424"/>
     <path transform="matrix(.26458 0 0 .26458 0 263.13)" d="m-154.85 106.51c-0.18103 0.0459-0.33617 0.35728-0.47265 0.81446 5.2921 3.9418 12.184 8.4883 18.955 9.457 1.4198 0.20296 2.5293 7.4785 2.5293 7.4785s0.0762-7.5563 1.0527-8.1113c1.255-0.71331 4.421-2.7292 5.5059-3.293-0.1363-0.83438-0.51465-1.1394-1.3457-0.44532 0 0-3.4916 2.1651-5.0566 3.0547-0.69183 0.39322-0.55637 4.0288-0.42187 6.1504-0.16463-2.0835-0.57603-5.5853-1.5781-5.7285-6.994-1.0007-13.608-5.2967-18.963-9.3223-0.0715-0.0537-0.13981-0.0712-0.20508-0.0547zm-1.252 7.5742c-3e-3 0.0604-0.0176 0.32813-0.0176 0.32813 0.0189 0.0237 0.0378 0.0447 0.0566 0.0684-0.0181-0.18498-0.0177-0.16293-0.0391-0.39649z" fill="#e8bb4d"/>
    </g>
    <g transform="rotate(13.169 -36.844 295.09)">
     <g fill="#e8bb4d">
      <circle cx="-38.168" cy="294.64" r=".26458" style="paint-order:markers stroke fill"/>
      <circle cx="-37.415" cy="294.64" r=".26458" style="paint-order:markers stroke fill"/>
      <circle cx="-36.663" cy="294.64" r=".26458" style="paint-order:markers stroke fill"/>
     </g>
     <circle cx="-36.663" cy="294.64" r=".15309" fill="#242424" style="paint-order:markers stroke fill"/>
    </g>
    <g transform="matrix(.66746 .006016 .020129 .74557 -3.816 82.555)">
     <path d="m-48.678 294.16c0.13351 0.91862-0.6463 1.4348-1.6784 1.5887s-1.9773-0.27595-2.0592-1.0314c-0.13351-0.91862 0.6463-1.4348 1.6784-1.5887 1.0321-0.15389 1.9692 0.2202 2.0592 1.0314z" fill="#de9349" style="paint-order:markers stroke fill"/>
     <path d="m-51.712 296.17c0.02632-1.1176 0.28332-1.951 1.0345-3.7564 0.86458 1.1343 1.321 1.9464 1.5998 3.5699-0.16516-0.21843-0.4114-0.64659-0.7117-0.84994-0.12348-0.0837-1.0803 0.1993-1.9226 1.0364z" fill="#efefef"/>
    </g>
   </g>
  </g>
 </g>
</svg>
