<?xml version="1.0" encoding="UTF-8"?>
<!-- Created with Inkscape (http://www.inkscape.org/) -->
<svg width="128" height="128" version="1.1" viewBox="0 0 33.867 33.867" xmlns="http://www.w3.org/2000/svg" xmlns:cc="http://creativecommons.org/ns#" xmlns:dc="http://purl.org/dc/elements/1.1/" xmlns:rdf="http://www.w3.org/1999/02/22-rdf-syntax-ns#">
 <metadata>
  <rdf:RDF>
   <cc:Work rdf:about="">
    <dc:format>image/svg+xml</dc:format>
    <dc:type rdf:resource="http://purl.org/dc/dcmitype/StillImage"/>
    <dc:title/>
   </cc:Work>
  </rdf:RDF>
 </metadata>
 <g transform="translate(0 -263.13)">
  <g transform="matrix(1.1852 0 0 1.1931 -5.6298 -54.748)">
   <path transform="matrix(.26458 0 0 .26458 0 263.13)" d="m63.736 32.75c-1.9117 0-3.7188 0.11657-5.4395 0.32422-13.835 1.8798-21.547 7.5341-26.561 15.676-20.872 35.497 1.456 65.603 20.863 69.562a18.687 6.875 0 0 0 11.4 1.4375 18.687 6.875 0 0 0 11.475-1.4531c19.39-4.0214 41.634-34.095 20.789-69.547-7.2318-12.188-15.466-14.33-26.561-15.676-1.7207-0.20765-3.5278-0.32422-5.4395-0.32422-0.08903 0-0.17482 0.007413-0.26367 0.007812-0.08886-4.07e-4 -0.17464-0.007812-0.26367-0.007812z" fill="#d05844" style="paint-order:markers stroke fill"/>
   <ellipse cx="16.933" cy="276.56" rx="8.4667" ry="4.7625" fill="#de9349" style="paint-order:markers stroke fill"/>
   <ellipse cx="16.933" cy="276.56" rx="8.0433" ry="4.2862" fill="#fff" style="paint-order:markers stroke fill"/>
   <ellipse cx="16.933" cy="276.56" rx="7.2591" ry="3.4719" fill="#bec1c3" style="paint-order:markers stroke fill"/>
   <path transform="matrix(.26458 0 0 .26458 0 263.13)" d="m101.79 12.467c-1.1462 0.0018-2.5156 0.7241-3.7656 3.2852l-28.863 47.879a27.436 13.122 0 0 0 5.1055-0.72266l26.064-43.236c0.52866-1.0482 1.3219-2.6907 2.5156-0.94531l15.986 16.137c1.3222 0.7409 3.9606-0.3897 3.7305-2.8086l-18.197-18.402s-1.1024-1.1879-2.5762-1.1855z" fill="#d05844" style="paint-order:markers stroke fill"/>
   <g transform="translate(1.6209 1.7915)">
    <path transform="matrix(.26458 0 0 .26458 -1.6209 261.34)" d="m39.328 22.051a18 18 0 0 0-18 18 18 18 0 0 0 7.3613 14.494c0.89322-1.9132 1.9008-3.8457 3.0469-5.7949 1.2411-2.0156 2.6495-3.8753 4.2734-5.5664 0.90373-0.61856 2.4323-1.1875 2.3203-0.71875-0.14068 0.58878-1.4223 5.4776-1.6797 7.2188l0.02539-2e-3a27.436 13.122 0 0 0-0.11133 1.0684 27.436 13.122 0 0 0 4.5117 7.1992 18 18 0 0 0 16.252-17.898 18 18 0 0 0-18-18z" fill="#e8bb4d" style="paint-order:markers stroke fill"/>
    <path transform="matrix(.26458 0 0 .26458 -1.6209 261.34)" d="m39.328 23.85a16.2 16.2 0 0 0-16.199 16.201 16.2 16.2 0 0 0 6.3594 12.844c0.68766-1.3724 1.4306-2.7544 2.248-4.1445 1.2411-2.0156 2.6495-3.8753 4.2734-5.5664 0.90373-0.61856 2.4323-1.1875 2.3203-0.71875-0.14068 0.58878-1.4223 5.4776-1.6797 7.2188l0.02539-2e-3a27.436 13.122 0 0 0-0.11133 1.0684 27.436 13.122 0 0 0 2.5527 5.4902 16.2 16.2 0 0 0 0.21094 0.009766 16.2 16.2 0 0 0 16.201-16.199 16.2 16.2 0 0 0-16.201-16.201z" fill="#fff" style="paint-order:markers stroke fill"/>
    <path transform="matrix(.26458 0 0 .26458 -1.6209 261.34)" d="m38.33 25.506c-3.1674 0.22363-6.1753 1.4752-8.5664 3.5645l8.5664 8.5664zm2 0.01367v12.117l8.5723-8.5723c-2.3953-2.0834-5.4051-3.328-8.5723-3.5449zm-11.986 4.959c-2.0834 2.3953-3.328 5.4051-3.5449 8.5723h12.117zm21.965 0.0078-8.5645 8.5645h12.131c-0.2246-3.167-1.4768-6.1741-3.5664-8.5644zm-25.523 10.564c0.22363 3.1674 1.4752 6.1753 3.5645 8.5664l8.5664-8.5664zm16.959 0 8.5703 8.5703c2.083-2.3948 3.3276-5.4038 3.5449-8.5703zm-3.4141 1.4141c-1.3342 3.0203-1.8963 6.0964-1.7656 8.2852 0.0079 1.28 0.40727 2.5526 1.1855 3.7773 0.19298 0.02209 0.38637 0.04033 0.58008 0.05469zm2 0v12.131c3.167-0.2246 6.1741-1.4768 8.5645-3.5664zm-9.0039 7.0039-1.5664 1.5664c0.16001 0.13171 0.3228 0.26 0.48828 0.38477 0.34475-0.64826 0.70459-1.299 1.0781-1.9512z" fill="#e8bb4d" style="paint-order:markers stroke fill"/>
    <circle cx="8.7849" cy="271.94" r=".26458" fill="#848586" style="paint-order:markers stroke fill"/>
   </g>
  </g>
 </g>
</svg>
