<?xml version="1.0" encoding="UTF-8"?>
<!-- Created with Inkscape (http://www.inkscape.org/) -->
<svg width="128" height="128" version="1.1" viewBox="0 0 33.867 33.867" xmlns="http://www.w3.org/2000/svg" xmlns:cc="http://creativecommons.org/ns#" xmlns:dc="http://purl.org/dc/elements/1.1/" xmlns:rdf="http://www.w3.org/1999/02/22-rdf-syntax-ns#">
 <metadata>
  <rdf:RDF>
   <cc:Work rdf:about="">
    <dc:format>image/svg+xml</dc:format>
    <dc:type rdf:resource="http://purl.org/dc/dcmitype/StillImage"/>
    <dc:title/>
   </cc:Work>
  </rdf:RDF>
 </metadata>
 <g transform="translate(0 -263.13)">
  <g transform="matrix(2.1343 0 0 2.1347 -58.09 -320.05)">
   <path d="m34.019 273.27 0.18345 0.7307c0.07111 0.2844-0.10058 0.57072-0.38499 0.64182l-0.76998 0.19275c-0.28441 0.0711-0.57072-0.10057-0.64182-0.38498l-0.17518-0.70022c-0.73116 0.28152-1.3937 0.66955-1.9844 1.1374l0.524 0.54157c0.20378 0.21074 0.19838 0.54397-0.01241 0.74776l-0.57051 0.55242c-0.21075 0.20378-0.54449 0.1978-0.74828-0.0129l-0.50178-0.51884c-0.49545 0.61748-0.87899 1.2946-1.1498 1.9777l0.7245 0.20671c0.28185 0.0806 0.44391 0.37237 0.36328 0.65422l-0.21808 0.76326c-0.08062 0.28186-0.37237 0.44391-0.65422 0.36329l-0.69402-0.19844c-0.12322 0.75651-0.11736 1.5375-0.0067 2.2882l0.7307-0.18345c0.2844-0.0711 0.57072 0.10059 0.64182 0.38499l0.19275 0.76998c0.07111 0.2844-0.10058 0.57071-0.38499 0.64182l-0.70022 0.17518c0.28152 0.73116 0.66956 1.3937 1.1374 1.9844l0.54157-0.524c0.21074-0.20378 0.54398-0.19838 0.74776 0.0124l0.55242 0.5705c0.20378 0.21075 0.1978 0.54449-0.01291 0.74828l-0.51883 0.50178c0.61748 0.49545 1.2946 0.87898 1.9777 1.1498l0.2067-0.72451c0.08062-0.28185 0.37237-0.44391 0.65422-0.36328l0.76326 0.21807c0.28185 0.0806 0.4439 0.37237 0.36328 0.65423l-0.19844 0.69401c0.75652 0.12322 1.5375 0.11737 2.2882 7e-3l-0.18345-0.7307c-0.07111-0.28441 0.10058-0.57073 0.38499-0.64183l0.76998-0.19275c0.28441-0.0711 0.57072 0.10058 0.64182 0.38499l0.17518 0.70021c0.73116-0.28151 1.3937-0.66955 1.9844-1.1374l-0.524-0.54157c-0.20378-0.21075-0.19838-0.54398 0.01241-0.74776l0.57051-0.55242c0.21075-0.20379 0.54449-0.1978 0.74828 0.0129l0.50178 0.51883c0.49545-0.61748 0.87899-1.2946 1.1498-1.9776l-0.7245-0.20671c-0.28185-0.0806-0.44391-0.37237-0.36328-0.65422l0.21808-0.76326c0.08061-0.28186 0.37237-0.44391 0.65422-0.36329l0.69402 0.19844c0.12322-0.75652 0.11736-1.5375 0.0067-2.2882l-0.7307 0.18345c-0.2844 0.0711-0.57072-0.10059-0.64182-0.38499l-0.19276-0.76998c-0.07111-0.28441 0.10058-0.57072 0.38499-0.64182l0.70022-0.17519c-0.28152-0.73115-0.66956-1.3937-1.1374-1.9844l-0.54157 0.524c-0.21075 0.20378-0.54398 0.19838-0.74776-0.0124l-0.55242-0.57051c-0.20378-0.21074-0.1978-0.54449 0.01291-0.74827l0.51883-0.50178c-0.61748-0.49545-1.2946-0.87899-1.9777-1.1498l-0.20671 0.7245c-0.08062 0.28186-0.37237 0.44391-0.65422 0.36329l-0.76326-0.21808c-0.28186-0.0806-0.4439-0.37237-0.36328-0.65422l0.19844-0.69401c-0.77086-0.11864-1.5444-0.11429-2.2882-7e-3zm1.1327 4.6746c1.7535 0 3.175 1.4215 3.175 3.175 0 1.7535-1.4215 3.175-3.175 3.175s-3.175-1.4215-3.175-3.175c0-1.7535 1.4215-3.175 3.175-3.175z" fill="#fff" style="paint-order:stroke markers fill"/>
   <g transform="translate(.24794 .24789)" fill="#848586">
    <path d="m35.12 276.05a3.7042 3.7042 0 0 0-3.7042 3.7042 3.7042 3.7042 0 0 0 0.64647 2.0841 3.175 3.175 0 0 1-0.08527-0.71313 3.175 3.175 0 0 1 3.175-3.175 3.175 3.175 0 0 1 1.8996 0.63665c-0.38029 0.49519-0.81083 1.077-0.74672 1.2066 0.13488 0.15696 3.8279 0.28696 4.3723 0.28216 0.06849-0.19531-1.6656-3.4582-1.942-3.9274-0.14608-9e-3 -0.52452 0.62534-0.83613 1.1689a3.7042 3.7042 0 0 0-2.7792-1.2671z" display="none" style="paint-order:stroke markers fill"/>
    <path d="m32.023 284.12 0.37116-1.4422 1.4432-0.16062c-2.599-2.5644 0.12879-5.8116 3.2142-3.9336-0.38029 0.49519-0.81083 1.077-0.74672 1.2066 0.13488 0.15696 3.8279 0.28696 4.3723 0.28216 0.06849-0.19531-1.6656-3.4582-1.942-3.9274-0.14608-9e-3 -0.50207 0.63883-0.83613 1.1689-5.3359-3.6723-9.896 2.9572-5.876 6.8062z" style="paint-order:stroke markers fill"/>
   </g>
   <g fill="#6fb26f">
    <path d="m35.12 276.05a3.7042 3.7042 0 0 0-3.7042 3.7042 3.7042 3.7042 0 0 0 0.64647 2.0841 3.175 3.175 0 0 1-0.08527-0.71313 3.175 3.175 0 0 1 3.175-3.175 3.175 3.175 0 0 1 1.8996 0.63665c-0.38029 0.49519-0.81083 1.077-0.74672 1.2066 0.13488 0.15696 3.8279 0.28696 4.3723 0.28216 0.06849-0.19531-1.6656-3.4582-1.942-3.9274-0.14608-9e-3 -0.52452 0.62534-0.83613 1.1689a3.7042 3.7042 0 0 0-2.7792-1.2671z" display="none" style="paint-order:stroke markers fill"/>
    <path d="m32.023 284.12 0.37116-1.4422 1.4432-0.16062c-2.599-2.5644 0.12879-5.8116 3.2142-3.9336-0.38029 0.49519-0.81083 1.077-0.74672 1.2066 0.13488 0.15696 3.8279 0.28696 4.3723 0.28216 0.06849-0.19531-1.6656-3.4582-1.942-3.9274-0.14608-9e-3 -0.50207 0.63883-0.83613 1.1689-5.3359-3.6723-9.896 2.9572-5.876 6.8062z" style="paint-order:stroke markers fill"/>
   </g>
  </g>
 </g>
</svg>
