<?xml version="1.0" encoding="UTF-8"?>
<!-- Created with Inkscape (http://www.inkscape.org/) -->
<svg width="128" height="128" version="1.1" viewBox="0 0 33.867 33.867" xmlns="http://www.w3.org/2000/svg" xmlns:cc="http://creativecommons.org/ns#" xmlns:dc="http://purl.org/dc/elements/1.1/" xmlns:rdf="http://www.w3.org/1999/02/22-rdf-syntax-ns#">
 <metadata>
  <rdf:RDF>
   <cc:Work rdf:about="">
    <dc:format>image/svg+xml</dc:format>
    <dc:type rdf:resource="http://purl.org/dc/dcmitype/StillImage"/>
    <dc:title/>
   </cc:Work>
  </rdf:RDF>
 </metadata>
 <g transform="translate(0 -263.13)">
  <g transform="translate(.39687 -2.3366e-6)">
   <path d="m26.498 272.86c-1.6903 1.1993-3.3153 3.1446-4.5376 5.4319 0.56058-0.53949 1.1389-1.0217 1.7198-1.434 3.6312-2.574 6.5749-3.418 6.5749-0.0344-9e-6 3.3836-2.9437 9.7136-6.5749 12.288-0.48371 0.34118-0.96573 0.63142-1.4373 0.86549 1.1881 0.38634 2.6962-8e-3 4.2551-1.1124 3.6312-2.574 6.5749-8.2432 6.5749-12.663-1e-6 -4.4194-2.9437-5.9155-6.5749-3.3415z" fill="#fff" style="paint-order:markers stroke fill"/>
   <path transform="matrix(.26458 0 0 .26458 0 263.13)" d="m0 20v88h0.085938a51 21 0 0 0 50.914 20 51 21 0 0 0 50.879-20h0.12109v-88z" fill="#fff" style="paint-order:markers stroke fill"/>
   <ellipse cx="13.494" cy="268.69" rx="13.494" ry="5.5563" fill="#848586" style="paint-order:markers stroke fill"/>
   <ellipse cx="13.494" cy="268.69" rx="11.906" ry="3.9688" fill="#bec1c3" style="paint-order:markers stroke fill"/>
   <path transform="matrix(.26458 0 0 .26458 0 263.13)" d="m51 20a45 15 0 0 0-39.768 8 45 15 0 0 0 39.768 8 45 15 0 0 0 39.768-8 45 15 0 0 0-39.768-8z" fill="#242424" style="paint-order:markers stroke fill"/>
   <path transform="matrix(.26458 0 0 .26458 0 263.13)" d="m74.504 29.352a4 8 54.782 0 0-6.5605 2.3809 4 8 54.782 0 0-3.5664 3.584 45 15 0 0 0 12.482-2.0566 4 8 54.782 0 0-0.07422-2.873 4 8 54.782 0 0-2.2812-1.0352z" fill="#efefef" style="paint-order:markers stroke fill"/>
   <g transform="matrix(.36461 0 0 .36461 26.472 184.56)">
    <path d="m-46.252 253.9c-7.78-0.26345-13.666 14.523 5.9279 24.867 24.588-12.981 9.0519-32.958 0-21.409-1.8387-2.3458-3.9447-3.3908-5.9279-3.4579z" fill="#d05844"/>
    <path transform="matrix(.72566 0 0 .72566 -73.693 215.49)" d="m31.271 57.547c-0.7119-0.02752-1.3029 0.17582-1.7734 0.61133-0.47005 0.42256-0.71907 0.98267-0.74609 1.6816-0.02853 0.73778 0.2059 1.3829 0.70312 1.9336 0.51017 0.55117 1.076 0.83921 1.6973 0.86328 0.45303 0.01752 0.89878-0.09554 1.3359-0.33789 0.4506-0.25479 0.78101-0.59867 0.99219-1.0312 0.22411-0.43208 0.3443-0.86851 0.36133-1.3086 0.02302-0.59541-0.20853-1.1356-0.69531-1.6211-0.48628-0.4984-1.1113-0.76143-1.875-0.79102zm0.48047 8.2246c-0.83304 0.75853-1.5988 1.2784-2.2969 1.5625-1.0281 0.43989-2.2107 0.67313-3.5469 0.69922l-0.04297 1.0879c0.92944 0.10075 1.5794 0.22982 1.9492 0.38672 0.36986 0.1569 0.62294 0.3355 0.75781 0.53516 0.06114 0.43015 0.08388 0.84484 0.06836 1.2461l-0.16211 3.1641-0.01563 0.91211-0.05664 0.9707c0.0118 0.70046 0.01341 1.174 0.0039 1.4199-0.01202 0.31065-0.03818 0.67274-0.08008 1.0859-0.0285 0.40076-0.04676 0.67866-0.05273 0.83398l-0.0078 0.21289c-0.02353 0.60836-0.10379 1.0015-0.24023 1.1777-0.123 0.16376-0.34868 0.28324-0.67578 0.36133l-2.2051 0.20703-0.0098 1.2637c0.22004 0.0085 0.62965 0.0041 1.2266-0.01172 0.59741-0.02912 1.2115-0.03039 1.8457-0.0059 2.2134 0.0856 3.9791 0.18696 5.2969 0.30274 0.40025 0.04153 0.69842 0.06492 0.89258 0.07227 0.16827 0.0068 0.42736 0.01115 0.77734 0.01172l0.06055-1.0684c-0.2041-0.08564-0.48065-0.16124-0.82812-0.22656-0.90055-0.17742-1.5476-0.34406-1.9434-0.50195-0.03475-0.44209-0.0425-0.93488-0.02148-1.4785l0.44336-7.916c0.09911-2.5629 0.15377-4.6488 0.16406-6.2559zm41.369 6.707c-0.0593 9.23e-4 -0.32713 0.02771-0.80078 0.08008-0.46636 0.04479-1.0871 0.07726-1.8652 0.09766-0.54085 0.02384-1.0056 0.04946-1.3906 0.07813-0.15554 0.0096-0.26963 0.01661-0.34375 0.01758-0.20014 0.0028-0.33271 0.03534-0.39844 0.0957-0.02904 0.03762-0.19401 0.39649-0.49414 1.0762-0.29284 0.67215-0.50297 1.176-0.63086 1.5117-0.80317 2.0893-1.4416 3.642-1.9141 4.6582-0.2722 0.57542-0.55076 1.2057-0.83594 1.8926-0.09278 0.21656-0.1902 0.41413-0.29102 0.59375-0.12229-0.22042-0.25241-0.47291-0.39062-0.75978-0.1308-0.28699-0.25638-0.54797-0.37891-0.7832-0.12266-0.24263-0.24181-0.49672-0.35742-0.76172-0.084365-0.16917-0.14701-0.29844-0.18555-0.38672l-1.7969-3.7402-0.12695-0.29883c-0.46948-1.0376-0.84568-1.8248-1.1289-2.3613-0.13006-0.24251-0.25825-0.43587-0.38672-0.58203l-0.51172-0.01367c-0.13355-0.0055-0.23825-0.01096-0.3125-0.01758l-3.2598-0.05664c-0.37062 0.0055-0.69291 0.02209-0.9668 0.04883l0.0059 0.3457c0.0021 0.12595 0.01144 0.27978 0.0293 0.46484 0.11909 0.0277 0.2839 0.06245 0.49219 0.10352 0.83276 0.14188 1.3084 0.29397 1.4297 0.45508 0.12871 0.16098 0.20337 0.76346 0.2207 1.8086 8.64e-4 0.05182-5e-3 0.20046-0.01563 0.44531l-0.09961 4.0273-0.08008 3.9609c-0.07652 0.7501-0.1934 1.2159-0.35352 1.3965-0.24772 0.26361-0.8352 0.46174-1.7598 0.5957l-0.01953 0.75586c1.2886-0.08819 2.017-0.13201 2.1875-0.13476 0.81535-0.01378 1.4688 0.0041 1.959 0.05469 0.49748 0.04368 0.96059 0.06613 1.3906 0.06641l-0.01367-0.81055-0.53516-0.125c-0.69966-0.15895-1.1581-0.35623-1.377-0.58985-0.2116-0.24116-0.32269-0.64173-0.33203-1.2051l0.02148-3.416 2e-3 -5.2598 1.0469 2.1504 1.7168 3.543c0.0153 0.02935 0.02698 0.065 0.03516 0.10938l0.13672 0.27539c0.03076 0.06615 0.08147 0.16651 0.15039 0.29883 0.14624 0.3238 0.34863 0.74744 0.60938 1.2695 0.44491 0.89717 0.76004 1.566 0.94531 2.0078l0.62891 1.6914 0.85742-0.0039c0.11368-0.29846 0.19768-0.54026 0.25391-0.72656 0.21032-0.73009 0.59067-1.7853 1.1387-3.166 0.05709-0.13436 0.16757-0.38396 0.33203-0.75 0.12875-0.28386 0.22481-0.50104 0.28906-0.65039l2.6621-6.4062c0.03323 0.21447 0.0662 0.6007 0.09766 1.1562l0.25391 3.9199c0.03041 1.386 0.07114 2.4684 0.12109 3.2461 0.01047 0.18518 0.01745 0.39993 0.02148 0.64453 0.0089 0.53224-0.02732 0.85087-0.08984 1.041-1.0442 0.35775-2.1798 0.74457-2.4707 0.86328-0.0068 0.22792-6e-3 0.4009 2e-3 0.51953 5e-3 0.07552 0.0171 0.18276 0.03711 0.32226 0.66288 0.03225 1.0987 0.08062 1.3086 0.14258 0.20918 0.05126 0.42848 0.16091 0.65625 0.33008 0.08033 0.23302 0.12984 0.40747 0.14844 0.52539 0.10745 0.48038 0.19713 1.271 0.26953 2.3711l0.30463 4.6426 0.03125 0.69727 0.06055 0.92188 0.35352 6.8496c0.01034 0.48677-0.01559 0.84668-0.07617 1.0781-0.09423 0.0495-0.45293 0.12651-1.0742 0.23242-0.08486 0.0273-0.22206 0.0643-0.41406 0.10938-0.192 0.0451-0.38256 0.12265-0.57031 0.23242 0.0013 0.18407 6e-3 0.33644 0.01367 0.45508 0.0099 0.15101 0.04244 0.31754 0.09766 0.49805l0.95117-0.11133 0.42188-0.01 1.3828-0.2207 0.92188-0.0606c0.37678-0.0356 0.61387-0.0581 0.71094-0.0644 0.18335-0.0124 0.4319-0.0166 0.74609-0.0156 0.58525 6e-3 1.3767-0.01 2.3711-0.043l0.10938-0.0547c0.0138-0.12003 0.01921-0.2078 0.01563-0.26172l-0.03516-0.28906-0.02734-0.40625c-0.12077-0.0243-0.25166-0.0371-0.39258-0.0391-0.51046-0.0205-0.85926-0.0566-1.0469-0.10938-0.12148-0.0353-0.29584-0.12099-0.52148-0.25781l-0.05469-0.59766c-0.02778-0.25814-0.04435-0.43613-0.05078-0.5332l-0.22266-3.3809 0.8418-0.52734 4.4844 4.1895c0.2536 0.23246 0.4714 0.48896 0.65234 0.76953-0.21358 0.0466-0.41306 0.0826-0.5957 0.10547-0.45014 0.073-0.80707 0.16643-1.0703 0.28125-0.04327 0.16531-0.0616 0.28581-0.05664 0.36133l0.0332 0.24218c0.02724 0.0849 0.04599 0.20737 0.05664 0.36914 1.5819-0.15827 3.493-0.31134 5.7363-0.45898 0.24806-0.0165 0.54172-0.0142 0.87891 8e-3 0.58596 0.0156 0.938 0.0182 1.0566 0.01-5.51e-4 -0.17328-0.0041-0.30239-0.0098-0.38867-0.0036-0.0539-0.02012-0.23192-0.05078-0.53321-0.68857-0.25798-1.1515-0.46055-1.3887-0.60742l-1.6211-1.4199-2.8105-2.4805-1.2773-1.1172-0.44531-0.36133c-0.29816-0.25119-0.58669-0.50326-0.86328-0.75586 2.0296-1.5851 3.4761-2.6607 4.3379-3.2266 0.35322-0.22906 0.87298-0.46965 1.5605-0.7207l1.252-0.48828c0.03033-0.19697 0.04221-0.34917 0.03516-0.45703-0.0034-0.05388-0.01461-0.13989-0.0332-0.25781-0.34655 0.0011-0.60673 0.0082-0.7793 0.01953-0.16178 0.01103-0.58601 0.05995-1.2734 0.14844-0.67664 0.08792-1.2026 0.14512-1.5801 0.16992-0.46377 0.03032-0.92934 0.04936-1.3945 0.05859-0.45511-0.0028-0.73106-2.31e-4 -0.82812 0.0059l-1.1953 0.09375c-0.01743 0.22862-0.02269 0.398-0.01563 0.50586 5e-3 0.07552 0.01638 0.18761 0.03711 0.33789 0.58653 0.18888 1.0896 0.31857 1.5059 0.38867 0.16462 0.03252 0.33419 0.08034 0.51172 0.14453-0.13027 0.16021-0.33863 0.36981-0.625 0.62695-0.68429 0.62996-1.3045 1.1574-1.8613 1.584-1.6195 1.2331-2.6871 2.0296-3.2051 2.3887l-0.15234-2.3125-0.12891-2.4297c-0.044-0.66869-0.06813-1.1166-0.07227-1.3438-0.0095-0.63847-0.01596-0.98514-0.01953-1.0391l-0.33984-4.8516c0.20732 0.01385 0.40822 0.02293 0.62305 0.04297 0.80929 0.06849 1.3135 0.10124 1.5137 0.09766 0.0048-0.15579 0.0065-0.31115 0.0039-0.4668-9.82e-4 -0.05926-0.0062-0.14911-0.01563-0.26758-1.2664-0.35716-1.9367-0.5607-2.0117-0.61133-0.06757-0.05085-0.10682-0.16598-0.11719-0.34375-0.0011-0.0667-0.01061-0.15898-0.02734-0.27734-0.08997-0.95495-0.15102-1.743-0.18359-2.3652-0.14243-2.7782-0.22647-4.322-0.25387-4.633l-0.24609-3.4004-2e-3 -0.16602c-0.0037-0.22236 0.14387-0.41117 0.44531-0.56445 0.43388-0.21481 0.99832-0.37882 1.6934-0.49414 0.0052-0.13353 0.0089-0.23408 0.0078-0.30078l0.01563-0.33398c-9.99e-4 -0.05926-0.0065-0.1405-0.01563-0.24414-0.10402-0.0124-0.1915-0.01841-0.26562-0.01758zm11.412 4.4824c-0.19149 0.02315-0.47884 0.07248-0.85938 0.14844-0.61453 0.12499-1.0457 0.19808-1.2969 0.21875l-0.60156 0.02734-0.90234 0.01758c-0.09605 0.0083-0.25418 0.02956-0.47461 0.0625-0.01116 0.13491-0.01462 0.23195-0.0098 0.29102 3e-3 0.03693 0.01186 0.09081 0.02539 0.16406l0.04688 0.15234 0.36133 0.06055c0.38045 0.01378 0.62399 0.03411 0.73047 0.0625 0.10588 0.02108 0.24373 0.08268 0.41602 0.1875 0.05836 0.16629 0.09158 0.28746 0.09766 0.36133 0.0068 0.08131-0.0011 0.17775-0.02148 0.29102-0.03467 0.21113-0.29828 1.1525-0.79297 2.8223-0.41195 1.4101-0.6368 2.1616-0.67383 2.2539l-0.72459-1.2246c-0.51513-0.83529-1.0268-1.7523-1.5332-2.752l-0.62109-1.043c-0.05407-0.11452-0.11097-0.25798-0.16992-0.43164 0.0087-0.0751 0.06739-0.13118 0.17578-0.16992 0.09484-0.02274 0.18166-0.04491 0.26172-0.06641 0.07945-0.0288 0.20299-0.06141 0.37109-0.09766 0.0585-0.0124 0.14296-0.03499 0.25195-0.06641 0.0074-0.08985 0.0086-0.29808 0.0039-0.625-0.04859-0.04809-0.10326-0.09131-0.16602-0.13086l-1.5664 0.21875-0.57617 0.04687c-0.42113 0.03473-0.9705 0.05733-1.6465 0.06836-0.11143 0.0014-0.21212 0.0068-0.30078 0.01367-0.16993 0.01392-0.38178 0.05341-0.63672 0.11914 0.04233 0.15272 0.08968 0.31359 0.14062 0.48047 0.13108 0.05609 0.24588 0.09127 0.34375 0.10547 0.18158 0.03707 0.31559 0.08475 0.40234 0.14453 0.09413 0.05912 0.25878 0.26483 0.49609 0.61719 0.46601 0.69058 1.1586 1.9094 2.0762 3.6562l2.4219 4.3418c-0.14148 0.53978-0.48354 1.4601-1.0234 2.7617-0.06232 0.14643-0.15565 0.22594-0.28125 0.23633-0.1256 0.01103-0.29866-0.062-0.51953-0.21484-0.47191-0.3107-0.87456-0.45121-1.207-0.42383-0.14776 0.0124-0.36763 0.1261-0.66211 0.34375-0.31863 0.37586-0.46121 0.76748-0.42773 1.1738 0.01644 0.19949 0.10953 0.3804 0.2793 0.54492 0.24174 0.2256 0.51716 0.36324 0.82617 0.41211 0.37368 0.02108 0.57829 0.03024 0.61524 0.02734 0.38419-0.0317 0.72244-0.11851 1.0156-0.26172 0.17801-0.09646 0.33139-0.22781 0.45898-0.39453 0.34332-0.43741 0.6327-0.94856 0.86719-1.5332l1.0332-3.0312 1.4863-4.5625 0.62305-2.2051c0.30627-0.97736 0.51081-1.6112 0.61328-1.9023 0.03207-0.06215 0.0996-0.14245 0.20312-0.24023 0.19461-0.07552 0.42114-0.15772 0.68164-0.24609 0.1595-0.0503 0.30413-0.11396 0.43164-0.19141 9.2e-5 -0.0893-0.0021-0.1569-0.0059-0.20117-0.0079-0.09605-0.02665-0.23447-0.05664-0.41797zm-68.748 14.385c-0.03248 0.13781-0.05443 0.28146-0.06641 0.43164-0.0085 0.10776-0.01597 0.26514-0.02148 0.4707 0.08017 0.08227 0.27958 0.16936 0.59766 0.25976 0.32972 0.08048 0.61625 0.22684 0.85938 0.44141 0.1414 0.1305 0.28611 0.35933 0.43359 0.68555l2.2617 6.1016 2.0938 5.5664 0.87109 0.0859 0.56641 0.0273c0.23345-0.48016 0.4926-0.94122 0.77734-1.3848 0.29552-0.44269 0.61435-0.96466 0.95508-1.5664l2.2598-3.8535 0.16602-0.24805c0.1022 0.21416 0.18708 0.42224 0.25781 0.62305l0.24219 0.6543 2.2715 6.377 1.2129 0.0977c0.09001-0.17714 0.21807-0.42714 0.38476-0.75 1.1996-2.3982 2.0445-4.023 2.5352-4.873l2.9004-5.3633c0.08831-0.15561 0.16629-0.25308 0.23438-0.29102 0.28482-0.17246 0.96802-0.37329 2.0488-0.60156 0.03051-0.24698 0.0478-0.41188 0.05469-0.49805l0.03906-0.46875c-0.23704-0.0186-0.54125-0.02815-0.91016-0.02539-0.84728 0.01915-1.4753 0.01244-1.8848-0.01953-0.15084-0.0124-0.67142-0.08667-1.5605-0.22266-0.8775-0.14629-1.3591-0.22208-1.4453-0.22852-0.10775-0.0083-0.24292-0.0083-0.40625 0l-0.14844 0.83398c0.17801 0.07924 0.52314 0.17147 1.0352 0.27734 0.71463 0.28469 1.1028 0.45177 1.1641 0.5 0.21424 0.16887 0.31585 0.32282 0.30469 0.46289-0.04123 0.51718-0.35778 1.2901-0.94922 2.3164-0.06332 0.11424-0.28328 0.56251-0.66016 1.3457-0.11672 0.24007-0.47857 0.906-1.0859 1.9961l-0.74023 1.3379-0.49609-1.3398-1.4277-3.9199-0.16602-0.37109c-0.14748-0.3262-0.43692-1.1777-0.86914-2.5566 0.33097-0.07125 0.70917-0.11145 1.1328-0.12109 0.42364-0.0096 0.69508-0.01661 0.81445-0.01758l0.12109-0.91602-0.79102-0.06445c-0.15084-0.0124-0.57348-0.02804-1.2656-0.05078-0.69129-0.03349-1.274-0.06952-1.748-0.10742-0.95893-0.07648-1.6787-0.15651-2.1602-0.23828-0.28833-0.05554-0.8305-0.11907-1.627-0.19336l-0.07031 0.88867c0.32542 0.13436 0.68329 0.26578 1.0742 0.39453 0.22197 0.07193 0.42754 0.14158 0.61719 0.21094 0.27943 0.57527 0.54258 1.2103 0.79102 1.9023l0.60547 1.5918c-0.64516 1.5642-1.5458 3.2004-2.7012 4.9082-0.06254-0.16764-0.18254-0.50188-0.35938-1.0039-0.33463-0.69895-0.71293-1.6671-1.1348-2.9043l-1.2949-3.7461c-0.07723-0.25555-0.14466-0.54879-0.20508-0.87891 0.04178-0.1159 0.09004-0.18683 0.14648-0.21484 0.19176-0.09316 0.52882-0.16448 1.0098-0.21289 0.21807-0.01516 0.41026-0.04306 0.57617-0.08398 0.0543-0.1367 0.08521-0.25944 0.09375-0.36719 0.01034-0.12926 0.01305-0.29747 0.0078-0.50391-0.25773-0.03128-0.45759-0.05134-0.59766-0.0625-0.17239-0.01378-0.64877-0.02033-1.4297-0.01758-0.78092 0.0028-1.3874-0.01242-1.8184-0.04687-0.56027-0.04465-1.1711-0.12622-1.834-0.24414-0.65209-0.11741-1.0212-0.17911-1.1074-0.18555l-0.24219-0.01953zm45.076 0.54883-1.1328 0.07617c-0.12666 0.13271-0.27429 0.32362-0.44141 0.57617-0.31362 0.46137-0.78969 0.92274-1.4277 1.3809-0.63829 0.44732-1.3552 0.73272-2.1523 0.85938l0.0625 0.59961c0.04749 0.18273 0.17911 0.29869 0.39648 0.34766 0.46716 0.09729 0.83792 0.21348 1.1113 0.34766 0.1543 0.12609 0.2439 0.27488 0.26953 0.44727 0.14123 0.95896 0.24501 2.8052 0.30859 5.5391 0.03469 1.4912 0.0052 2.3673-0.08594 2.6289-0.48978 0.32491-1.0083 0.55386-1.5566 0.68554-0.22566 0.0593-0.40721 0.14935-0.54492 0.27149-0.02866 0.16284-0.04303 0.28855-0.04102 0.375 0.0021 0.0864 0.02216 0.21457 0.05859 0.38672 1.0469-0.0784 1.608-0.11722 1.6836-0.11914l0.27539-8e-3c0.63603-0.0797 1.3431-0.12843 2.1211-0.14648l3.0996 0.0898 1.5234-0.0352c0.0603-0.19601 0.08869-0.35379 0.08594-0.47266-0.0048-0.20528-0.06181-0.34963-0.17188-0.43359-0.11031-0.0947-0.41404-0.15776-0.91211-0.18946-0.49807-0.0316-0.84982-0.0766-1.0566-0.13672-0.19601-0.0604-0.39378-0.16379-0.5918-0.31054-0.17918-0.26612-0.28748-0.53336-0.32617-0.80274-0.09022-2.9495-0.1667-4.8244-0.22852-5.623l-0.04297-0.4375c-0.01351-0.58351 0.12407-1.148 0.41406-1.6953 0.17591-0.33924 0.3764-0.54993 0.60156-0.63086l0.11328-0.01953c0.1837-0.0041 0.43019 0.10913 0.73828 0.33984 0.51692 0.37723 1.008 0.56161 1.4727 0.55078 0.52948-0.0124 0.94593-0.2218 1.25-0.62891 0.31462-0.41816 0.46689-0.88276 0.45508-1.3906-0.01185-0.50787-0.23359-0.95088-0.66406-1.3301-0.43047-0.37921-0.93315-0.56214-1.5059-0.54883-0.46465 0.01102-0.87717 0.1549-1.2383 0.43359-0.4659 0.42167-0.74536 0.69332-0.83984 0.81445-0.19928 0.26412-0.51206 0.78017-0.9375 1.5469-0.02891-0.77776-0.04413-1.2268-0.04687-1.3457-0.0058-0.24852-0.0078-0.561-0.0059-0.93945 0.0068-0.17315 0.0085-0.31863 0.0059-0.4375-0.0039-0.16209-0.0359-0.36796-0.0957-0.61524zm-14.117 0.66016c-1.0375-0.0186-1.9251 0.07925-2.6641 0.29297-0.72795 0.20313-1.458 0.55874-2.1914 1.0645-0.50372 0.3585-0.97116 0.80318-1.4023 1.3359-0.42038 0.53298-0.75685 1.1659-1.0078 1.8965-0.25076 0.71979-0.38151 1.44-0.39453 2.1641-0.02565 1.4265 0.19986 2.6269 0.67969 3.5977 0.49064 0.97095 1.3132 1.8436 2.4668 2.6211 1.1644 0.77767 2.5895 1.1826 4.2754 1.2129 1.5022 0.027 2.8265-0.26754 3.9727-0.88476 1.1462-0.6172 2.0656-1.59 2.7598-2.918 0.45902-0.87821 0.70249-2.0421 0.72852-3.4902 0.01379-0.76729-0.14433-1.5863-0.47461-2.457-0.31928-0.88138-0.81845-1.6632-1.498-2.3457-1.2405-1.352-2.9914-2.0492-5.25-2.0898zm-0.14844 1.1016c1.0591 0.01902 1.9054 0.44436 2.5391 1.2773 0.63384 0.82218 0.93184 2.2167 0.89648 4.1836-0.02875 1.5994-0.12319 2.7495-0.28711 3.4492-0.25699 1.0656-0.66146 1.8475-1.2109 2.3457-0.54928 0.48738-1.2189 0.72314-2.0078 0.70898-0.65922-0.0124-1.2225-0.15201-1.6934-0.41992s-0.80655-0.57146-1.0059-0.91015c-0.29327-0.52418-0.50338-1.1484-0.63086-1.875-0.03954-0.20613-0.09675-0.98047-0.16992-2.3223 0.056-1.9124 0.15956-3.1592 0.31055-3.7402 0.23246-0.90389 0.62318-1.5841 1.1719-2.0391 0.55951-0.4548 1.2558-0.67318 2.0879-0.6582z"/>
   </g>
  </g>
 </g>
</svg>
