<?xml version="1.0" encoding="UTF-8"?>
<!-- Created with Inkscape (http://www.inkscape.org/) -->
<svg width="128" height="128" version="1.1" viewBox="0 0 33.867 33.867" xmlns="http://www.w3.org/2000/svg" xmlns:cc="http://creativecommons.org/ns#" xmlns:dc="http://purl.org/dc/elements/1.1/" xmlns:rdf="http://www.w3.org/1999/02/22-rdf-syntax-ns#">
 <metadata>
  <rdf:RDF>
   <cc:Work rdf:about="">
    <dc:format>image/svg+xml</dc:format>
    <dc:type rdf:resource="http://purl.org/dc/dcmitype/StillImage"/>
    <dc:title/>
   </cc:Work>
  </rdf:RDF>
 </metadata>
 <g transform="translate(0 -263.13)">
  <g transform="matrix(1.3203 0 0 1.3203 103.39 -78.917)">
   <path d="m-53.426 260.57c0.34541 0.34541 0.62965 0.7285 0.85551 1.1353h-4.806l-0.70488 2.4782 0.70489 2.4548 4.8182 1e-5c-0.22768 0.41502-0.51606 0.80561-0.86766 1.1572-1.7656 2.1014-6.4142 1.3554-7.9154 2.8549l-13.455 13.455c-0.82563 0.82563-2.1642 0.82562-2.9899 0-0.82564-0.82564-0.82563-2.1643-2e-6 -2.9899l13.455-13.455c2.3339-2.3273 1.7885-5.1346 3.6797-7.0905 1.9953-1.9953 5.2303-1.9953 7.2256 1e-5zm-21.869 21.043a1.2333 1.2333 0 0 0-1.7441 0 1.2333 1.2333 0 0 0-2e-6 1.7441 1.2333 1.2333 0 0 0 1.7441 1e-5 1.2333 1.2333 0 0 0 2e-6 -1.7441z" fill="#848586" style="paint-order:markers stroke fill"/>
   <g transform="matrix(.45258 -.45258 .45258 .45258 -173.64 136.9)">
    <path d="m-30.96 243.02 0.52917-1.5875h1.5875l0.52917 1.5875-0.52906 2.1167v23.283h-1.5875v-23.283z" fill="#efefef" style="paint-order:markers stroke fill"/>
    <path transform="matrix(.26458 0 0 .26458 0 263.13)" d="m-112.38 19.336c0.11799-9.6e-4 0.2373 0.0041 0.35547 0.0078-0.3227 8.31e-4 -0.64596 0.0043-0.9707 0.01563 0.18365-0.0068 0.36679-0.01685 0.55078-0.02148-0.25664 0.0031-0.51191 0.01748-0.76758 0.02734-2.9074 0.12617-5.907 0.68748-9.1328 1.7344-3e-3 8.5e-4 -5e-3 0.0011-8e-3 2e-3 -9e-3 0.0028-0.0168 5e-3 -0.0254 0.0078-0.53924 0.17914-1.0807 0.36951-1.627 0.57422-0.022 0.293-0.029 0.62146-0.0273 0.9707 1.9e-4 0.04085-5e-4 0.07952 0 0.12109 0.0677 5.701 2.9532 18.098 3.0273 23.225v5c-0.0794 2.9913-3.1486 6.2107-3 10v52.684c2e-3 0.36162 0.091 0.69319 0.23633 1.0059 1.1934 1.9102 6.324 3.128 11.52 3.291 6.2105-0.12104 12.508-1.7496 12.236-4.2969v-92c-0.28599-0.10504-0.56531-0.19525-0.84766-0.29297 0.28063 0.09713 0.55758 0.18865 0.8418 0.29297v0.76367c-2e-3 -0.2657-4e-3 -0.53316-0.0215-0.76367-0.27522-0.10318-0.54699-0.19621-0.82031-0.29297-3.5482-1.2281-6.8197-1.8889-9.9785-2.0254-0.51609-0.02229-1.03-0.0343-1.541-0.0293zm0.13086 98.645c-1.7875 0.0351-3.555-0.0645-5.168-0.29492 1.616 0.23238 3.3781 0.3298 5.168 0.29492zm-10.096-96.881c0.7281-0.24109 1.4507-0.45572 2.1699-0.64844-0.71938 0.19334-1.4415 0.40712-2.1699 0.64844zm9.1328-1.7344c-1.531 0.05909-3.0481 0.23713-4.5684 0.53125 1.521-0.29261 3.037-0.47246 4.5684-0.53125zm-4.5684 0.53125c-0.73937 0.14304-1.4806 0.31361-2.2246 0.50977 0.74436-0.1956 1.4849-0.36745 2.2246-0.50977zm17.762 3.0312v90.756c0.03704 0.34885-0.0598 0.67894-0.25195 0.99219 0.14135-0.30879 0.22827-0.63581 0.23046-0.99219v-52.684c0.14865-3.7893-2.9206-7.0087-3-10v-5c0.0735-5.084 2.9081-17.309 3.0215-23.072zm-23.746 91.771c0.0541 0.11503 0.12147 0.22545 0.19336 0.33398-0.0718-0.1084-0.13925-0.21906-0.19336-0.33398zm0.28321 0.4668c0.0752 0.10085 0.15972 0.19791 0.25 0.29296-0.09-0.0948-0.17496-0.19235-0.25-0.29296zm0.38086 0.42382c0.0984 0.0937 0.20165 0.18562 0.31445 0.27344-0.11313-0.088-0.21579-0.17953-0.31445-0.27344zm0.44531 0.36914c0.12953 0.0941 0.26263 0.1863 0.4082 0.27344-0.14564-0.0871-0.2786-0.17941-0.4082-0.27344zm0.44336 0.29297c0.71913 0.42439 1.6222 0.7646 2.6523 1.0293-1.0303-0.26371-1.933-0.60546-2.6523-1.0293zm2.6523 1.0293c0.4951 0.12721 1.0239 0.23199 1.5703 0.32422-0.54664-0.0917-1.075-0.19746-1.5703-0.32422z" fill="#494949" style="paint-order:markers stroke fill"/>
    <path d="m-28.691 269.43c0.47498-0.0971 0.87753-0.0735 1.1662 0.13994l-0.67637 5.0611c0.13236-1.9383-0.24423-3.5243-0.48978-5.201zm1.3994 9.889 0.06996 13.224c-0.05196-4.4003-0.389-8.8006-0.74634-13.201 0.1707-0.0899 0.38165-0.11945 0.67638-0.0233z" fill="#848586"/>
   </g>
  </g>
 </g>
</svg>
