<?xml version="1.0" encoding="UTF-8"?>
<!-- Created with Inkscape (http://www.inkscape.org/) -->
<svg width="128" height="128" version="1.1" viewBox="0 0 33.867 33.867" xmlns="http://www.w3.org/2000/svg" xmlns:cc="http://creativecommons.org/ns#" xmlns:dc="http://purl.org/dc/elements/1.1/" xmlns:rdf="http://www.w3.org/1999/02/22-rdf-syntax-ns#">
 <metadata>
  <rdf:RDF>
   <cc:Work rdf:about="">
    <dc:format>image/svg+xml</dc:format>
    <dc:type rdf:resource="http://purl.org/dc/dcmitype/StillImage"/>
    <dc:title/>
   </cc:Work>
  </rdf:RDF>
 </metadata>
 <g transform="translate(0 -263.13)">
  <g transform="matrix(1.128 0 0 1.1228 -2.5203 -45.683)">
   <path transform="matrix(.23455 0 0 .23564 2.2343 275.04)" d="m64.924 64a60.913 26.947 0 0 0-60.914 26.947v6.4922a60.913 26.947 0 0 0 60.914 26.947 60.913 26.947 0 0 0 60.914-26.947v-6.4922a60.913 26.947 0 0 0-60.914-26.947z" fill="#de9349" style="paint-order:markers stroke fill"/>
   <path d="m30.539 294.05 1.0453 3.8152-1.7458-0.25632-1.1846 1.4738-1.9952-0.064 0.1247 1.9224-3.1798-1.0253-1.1846 2.0505-1.4964-0.51263-1.5587 0.64079-1.5587-1.1534-2.4316 1.1534-0.74819-1.5379-1.7458 1.0252-1.1846 0.12816 0.56114-0.83302-1.7458 0.44855-0.68584-1.4738-2.3693 1.0893-0.18705-1.602-1.9952 0.32039-0.2494-1.602-1.6834-0.57671 0.65272-3.5869z" fill="#6fb26f"/>
   <path d="m32.257 294.05-12.61-6.6279-17.402 7.4524c2.693 1.3325 10.011 6.0025 14.322 7.8798 4.2179-2.7417 10.83-5.2184 15.69-8.7042z" fill="#e8bb4d"/>
   <path d="m17.462 288.16a12.859 5.715 0 0 0-12.859 5.715v0.9525a12.859 5.715 0 0 0 12.859 5.715 12.859 5.715 0 0 0 12.859-5.715v-0.9525a12.859 5.715 0 0 0-12.859-5.715z" fill="#970a2c" style="paint-order:markers stroke fill"/>
   <path d="m2.2343 292.31 10.685-6.578 19.293 5.7299c-4.3656 2.1666-8.7543 4.8593-12.04 7.7851-6.6792-2.642-12.831-5.6185-17.939-6.937z" fill="#e8bb4d"/>
   <path d="m11.972 289.39a6.4294 2.8575 0 0 0-6.4294 2.8575v0.47625a6.4294 2.8575 0 0 0 6.4294 2.8575 6.4294 2.8575 0 0 0 6.4294-2.8575v-0.47625a6.4294 2.8575 0 0 0-6.4294-2.8575z" fill="#d05844" style="paint-order:markers stroke fill"/>
   <path d="m24.606 288.73a6.4294 2.8575 0 0 0-6.4294 2.8575v0.47625a6.4294 2.8575 0 0 0 6.4294 2.8575 6.4294 2.8575 0 0 0 6.4294-2.8575v-0.47625a6.4294 2.8575 0 0 0-6.4294-2.8575z" fill="#d05844" style="paint-order:markers stroke fill"/>
   <path d="m3.3579 286.51-1.109 3.9383 1.8521-0.26459 1.2568 1.5214 2.1167-0.0661-0.13229 1.9844 3.3734-1.0583 1.2568 2.1167 1.5875-0.52917 1.6536 0.66146 1.6536-1.1906 2.5797 1.1906 0.79375-1.5875 1.8521 1.0583 1.2568 0.1323-0.59531-0.8599 1.8521 0.46302 0.7276-1.5214 2.5135 1.1245 0.19844-1.6536 2.1167 0.33073 0.26458-1.6536 1.7859-0.59531-0.69246-3.7026z" fill="#6fb26f"/>
   <path d="m17.462 276.36a14.288 11.377 0 0 0-14.105 9.6216 14.288 6.35 0 0 0-0.18293 0.9617 14.288 6.35 0 0 0 14.288 6.35 14.288 6.35 0 0 0 14.288-6.35 14.288 6.35 0 0 0-0.22944-1.1229 14.288 11.377 0 0 0-14.058-9.4604z" fill="#de9349" style="paint-order:markers stroke fill"/>
   <path transform="matrix(.26458 0 0 .26458 0 263.13)" d="m59.717 53.395a3.0847 1.1588 46.042 0 0-0.35156 0.12891 3.0847 1.1588 46.042 0 0 1.2676 3.0059 3.0847 1.1588 46.042 0 0 2.9922 1.457 3.0847 1.1588 46.042 0 0-1.2656-3.0059 3.0847 1.1588 46.042 0 0-2.6426-1.5859zm-8.4727 0.95117a1.1723 3.0491 18.363 0 0-1.8691 2.5684 1.1723 3.0491 18.363 0 0 0.16992 3.2422 1.1723 3.0491 18.363 0 0 2.0723-2.5508 1.1723 3.0491 18.363 0 0-0.16992-3.2422 1.1723 3.0491 18.363 0 0-0.20312-0.01758zm25.715 2.5215a1.1754 3.041 5.8701 0 0-1.3945 2.9141 1.1754 3.041 5.8701 0 0 0.86328 3.1367 1.1754 3.041 5.8701 0 0 0.17188-0.01953 3.1149 1.1476 22.714 0 0 2.3105 1.6797 3.1149 1.1476 22.714 0 0 3.3418 0.16797 3.1149 1.1476 22.714 0 0-2.3945-2.2598 3.1149 1.1476 22.714 0 0-2.4277-0.55273 1.1754 3.041 5.8701 0 0 0.47461-1.9297 1.1754 3.041 5.8701 0 0-0.86133-3.1367 1.1754 3.041 5.8701 0 0-0.08398 0zm-4.9121 0.08789a1.1581 3.0866 40.78 0 0-2.5938 1.7305 1.1581 3.0866 40.78 0 0-1.0996 3.0723 1.1581 3.0866 40.78 0 0 2.9082-1.6211 1.1581 3.0866 40.78 0 0 1.0996-3.0723 1.1581 3.0866 40.78 0 0-0.31445-0.10938zm-32.361 0.44922a3.1097 1.1495 26.335 0 0-0.79297 0.33008 3.1097 1.1495 26.335 0 0 2.2383 2.4043 3.1097 1.1495 26.335 0 0 3.3242 0.37891 3.1097 1.1495 26.335 0 0-2.2383-2.4062 3.1097 1.1495 26.335 0 0-2.5312-0.70703zm50.885 0.11328a3.1097 1.1495 30.638 0 0-0.62305 0.27148 3.1097 1.1495 30.638 0 0 2.0508 2.5664 3.1097 1.1495 30.638 0 0 3.2852 0.625 3.1097 1.1495 30.638 0 0-2.0508-2.5664 3.1097 1.1495 30.638 0 0-2.6621-0.89648zm-5.8457 1.4648a1.1408 3.1334 81.685 0 0-1.2207 0.08789 1.1408 3.1334 81.685 0 0-2.9219 1.5859 1.1408 3.1334 81.685 0 0 3.2754 0.66797 1.1408 3.1334 81.685 0 0 2.9238-1.584 1.1408 3.1334 81.685 0 0-2.0566-0.75781zm-19.016 0.86914a3.0733 1.1631 53.091 0 0-0.36328 0.08594 3.0733 1.1631 53.091 0 0 0.87891 3.1328 3.0733 1.1631 53.091 0 0 2.7871 1.8008 3.0733 1.1631 53.091 0 0-0.87891-3.1328 3.0733 1.1631 53.091 0 0-2.4238-1.8867zm-10.279 1.0781a1.1654 3.0672 28.639 0 0-2.2988 2.2227 1.1654 3.0672 28.639 0 0-0.11328 0.2168 1.1473 3.1157 63.517 0 0-0.01563-0.04297 1.1473 3.1157 63.517 0 0-3.3262 0.38867 1.1473 3.1157 63.517 0 0-2.2402 2.4121 1.1473 3.1157 63.517 0 0 3.3242-0.38867 1.1473 3.1157 63.517 0 0 1.8223-1.3027 1.1654 3.0672 28.639 0 0 0.13086 1.9414 1.1654 3.0672 28.639 0 0 2.5-2.1738 1.1654 3.0672 28.639 0 0 0.41602-3.2246 1.1654 3.0672 28.639 0 0-0.19922-0.04883zm-21.633 1.2754a1.1581 3.0866 40.78 0 0-2.5938 1.7305 1.1581 3.0866 40.78 0 0-1.0996 3.0723 1.1581 3.0866 40.78 0 0 2.9082-1.6211 1.1581 3.0866 40.78 0 0 1.0996-3.0723 1.1581 3.0866 40.78 0 0-0.31445-0.10938zm26.48 0.02148a1.1654 3.0672 32.942 0 0-2.3281 2.0469 1.1654 3.0672 32.942 0 0-0.65625 3.1836 1.1654 3.0672 32.942 0 0 2.6543-1.9805 1.1654 3.0672 32.942 0 0 0.65625-3.1836 1.1654 3.0672 32.942 0 0-0.32617-0.06641zm42.371 1.1914a1.1467 3.1173 60.395 0 0-2.5488 0.85352 1.1467 3.1173 60.395 0 0-2.1094 2.5312 1.1467 3.1173 60.395 0 0 3.2988-0.57031 1.1467 3.1173 60.395 0 0 2.1094-2.5312 1.1467 3.1173 60.395 0 0-0.75-0.2832zm-18.314 0.14844a3.0408 1.1756 85.047 0 0-0.91016 3.125 3.0408 1.1756 85.047 0 0 1.4316 2.9355 3.0408 1.1756 85.047 0 0 0.91016-3.125 3.0408 1.1756 85.047 0 0-1.4316-2.9355zm-45.266 0.20117a3.1097 1.1495 30.638 0 0-0.62109 0.27148 3.1097 1.1495 30.638 0 0 2.0508 2.5664 3.1097 1.1495 30.638 0 0 3.2852 0.625 3.1097 1.1495 30.638 0 0-2.0508-2.5664 3.1097 1.1495 30.638 0 0-2.6641-0.89648zm53.83 0.90039a1.1467 3.1173 60.395 0 0-2.5488 0.85352 1.1467 3.1173 60.395 0 0-1.0762 0.74024 3.1347 1.1403 5.2171 0 0-2.8203 0.87305 3.1347 1.1403 5.2171 0 0 3.0098 1.4238 3.1347 1.1403 5.2171 0 0 3.2344-0.84766 3.1347 1.1403 5.2171 0 0-0.46094-0.67578 1.1467 3.1173 60.395 0 0 1.4121-2.084 1.1467 3.1173 60.395 0 0-0.75-0.2832zm-26.377 0.10742a1.1419 3.1305 72.764 0 0-2.0078 0.3457 1.1419 3.1305 72.764 0 0-2.6328 2.0195 1.1419 3.1305 72.764 0 0 3.3438 0.15039 1.1419 3.1305 72.764 0 0 2.6328-2.0195 1.1419 3.1305 72.764 0 0-1.3359-0.49609zm11.352 1.8965a1.1654 3.0672 28.639 0 0-2.3008 2.2227 1.1654 3.0672 28.639 0 0-0.41602 3.2246 1.1654 3.0672 28.639 0 0 2.498-2.1738 1.1654 3.0672 28.639 0 0 0.41602-3.2246 1.1654 3.0672 28.639 0 0-0.19726-0.04883zm-33.553 0.73047a3.121 1.1453 18.042 0 0-1.1738 0.47852 3.121 1.1453 18.042 0 0 2.5801 2.0566 3.121 1.1453 18.042 0 0 3.3477-0.10352 3.121 1.1453 18.042 0 0-2.5801-2.0566 3.121 1.1453 18.042 0 0-2.1738-0.375zm25.223 1.4629a1.1401 3.1352 87.058 0 0-0.3125 0.01172 1.1401 3.1352 87.058 0 0-3.0684 1.3008 1.1401 3.1352 87.058 0 0 3.1934 0.97461 1.1401 3.1352 87.058 0 0 3.0684-1.3008 1.1401 3.1352 87.058 0 0-2.8809-0.98633zm-43.998 0.41406a3.0847 1.1588 41.739 0 0-0.49414 0.16211 3.0847 1.1588 41.739 0 0 1.4883 2.9023 3.0847 1.1588 41.739 0 0 3.0938 1.2285 3.0847 1.1588 41.739 0 0-1.4883-2.9023 3.0847 1.1588 41.739 0 0-2.5996-1.3906zm29.244 0.35742a1.1654 3.0672 32.942 0 0-2.3262 2.0469 1.1654 3.0672 32.942 0 0-0.6582 3.1836 1.1654 3.0672 32.942 0 0 2.6543-1.9805 1.1654 3.0672 32.942 0 0 0.6582-3.1836 1.1654 3.0672 32.942 0 0-0.32813-0.06641zm-18.803 0.0059a1.14 3.1355 85.721 0 0-0.62305 0.02344 1.14 3.1355 85.721 0 0-3.041 1.3711 1.14 3.1355 85.721 0 0 3.2109 0.90234 1.14 3.1355 85.721 0 0 3.041-1.3711 1.14 3.1355 85.721 0 0-2.5879-0.92578zm68.699 1.2617a3.1097 1.1495 26.335 0 0-0.79297 0.33008 3.1097 1.1495 26.335 0 0 2.2383 2.4043 3.1097 1.1495 26.335 0 0 3.3242 0.37891 3.1097 1.1495 26.335 0 0-2.2383-2.4062 3.1097 1.1495 26.335 0 0-2.5312-0.70703zm-42.912 0.76953a1.1401 3.1352 82.755 0 0-0.92383 0.06641 1.1401 3.1352 82.755 0 0-2.9629 1.5293 1.1401 3.1352 82.755 0 0 3.2578 0.73242 1.1401 3.1352 82.755 0 0 2.9629-1.5273 1.1401 3.1352 82.755 0 0-2.334-0.80078zm-20.939 0.75781a1.1467 3.1173 64.698 0 0-2.4004 0.66406 1.1467 3.1173 64.698 0 0-2.293 2.3672 1.1467 3.1173 64.698 0 0 3.332-0.32031 1.1467 3.1173 64.698 0 0 2.293-2.3672 1.1467 3.1173 64.698 0 0-0.93164-0.34375zm53.781 0.42383a3.1355 1.14 0.023956 0 0-3.1367 1.1387 3.1355 1.14 0.023956 0 0 3.1348 1.1406 3.1355 1.14 0.023956 0 0 3.1367-1.1387 3.1355 1.14 0.023956 0 0-3.1348-1.1406zm-7.1797 0.54883a3.1097 1.1495 26.335 0 0-0.79297 0.33008 3.1097 1.1495 26.335 0 0 2.2383 2.4043 3.1097 1.1495 26.335 0 0 3.3242 0.37891 3.1097 1.1495 26.335 0 0-2.2383-2.4062 3.1097 1.1495 26.335 0 0-2.5312-0.70703zm-5.5059 0.14062a3.121 1.1453 22.345 0 0-0.97656 0.39254 3.121 1.1453 22.345 0 0 0.48633 1.0625 1.1473 3.1157 59.214 0 0-1.6406 0.74414 1.1473 3.1157 59.214 0 0-2.0547 2.5742 1.1473 3.1157 59.214 0 0 3.2871-0.63672 1.1473 3.1157 59.214 0 0 1.9043-1.6973 3.121 1.1453 22.345 0 0 0.4375 0.19922 3.121 1.1453 22.345 0 0 3.3457 0.14844 3.121 1.1453 22.345 0 0-2.4199-2.2461 3.121 1.1453 22.345 0 0-2.3691-0.54102zm-36.303 0.87891a3.0408 1.1756 80.743 0 0-0.11914 2e-3 3.0408 1.1756 80.743 0 0-0.67383 3.1836 3.0408 1.1756 80.743 0 0 1.6465 2.8203 3.0408 1.1756 80.743 0 0 0.67578-3.1836 3.0408 1.1756 80.743 0 0-1.5293-2.8223zm27.33 0.04883a1.1654 3.0672 28.639 0 0-2.3008 2.2227 1.1654 3.0672 28.639 0 0-0.41602 3.2246 1.1654 3.0672 28.639 0 0 2.498-2.1738 1.1654 3.0672 28.639 0 0 0.41797-3.2227 1.1654 3.0672 28.639 0 0-0.19922-0.05078zm-6.5293 0.58398a1.1419 3.1305 77.067 0 0-1.7695 0.20508 1.1419 3.1305 77.067 0 0-2.7773 1.8164 1.1419 3.1305 77.067 0 0 3.3242 0.40234 1.1419 3.1305 77.067 0 0 2.7754-1.8164 1.1419 3.1305 77.067 0 0-1.5527-0.60742zm-25.658 0.78125a3.1347 1.1403 0.91383 0 0-2.9375 1.0879 3.1347 1.1403 0.91383 0 0 3.1094 1.1934 3.1347 1.1403 0.91383 0 0 3.1602-1.0879 3.1347 1.1403 0.91383 0 0-3.1094-1.1934 3.1347 1.1403 0.91383 0 0-0.22266 0zm7.5137 0.36523a3.1149 1.1476 27.017 0 0-0.79492 0.32031 3.1149 1.1476 27.017 0 0 2.2168 2.4316 3.1149 1.1476 27.017 0 0 3.3203 0.41992 3.1149 1.1476 27.017 0 0-2.2168-2.4336 3.1149 1.1476 27.017 0 0-2.5254-0.73828zm28.455 0.84375a1.1654 3.0672 32.942 0 0-2.3281 2.0469 1.1654 3.0672 32.942 0 0-0.65625 3.1836 1.1654 3.0672 32.942 0 0 2.6543-1.9805 1.1654 3.0672 32.942 0 0 0.65625-3.1836 1.1654 3.0672 32.942 0 0-0.32617-0.06641zm-14.719 0.82031a3.0733 1.1631 48.788 0 0-0.35742 0.11328 3.0733 1.1631 48.788 0 0 1.1133 3.0586 3.0733 1.1631 48.788 0 0 2.9141 1.584 3.0733 1.1631 48.788 0 0-1.1113-3.0566 3.0733 1.1631 48.788 0 0-2.5586-1.6992zm34.166 1.2871a3.1097 1.1495 26.335 0 0-0.79297 0.33008 3.1097 1.1495 26.335 0 0 2.2383 2.4043 3.1097 1.1495 26.335 0 0 3.3242 0.37891 3.1097 1.1495 26.335 0 0-2.2383-2.4062 3.1097 1.1495 26.335 0 0-2.5312-0.70703zm-65.916 0.18359a3.1347 1.1403 0.91383 0 0-2.9375 1.0879 3.1347 1.1403 0.91383 0 0 3.1094 1.1934 3.1347 1.1403 0.91383 0 0 3.1602-1.0879 3.1347 1.1403 0.91383 0 0-3.1094-1.1934 3.1347 1.1403 0.91383 0 0-0.22266 0zm30.398 1.0703a1.1581 3.0866 45.084 0 0-2.5664 1.5371 1.1581 3.0866 45.084 0 0-1.3281 2.9805 1.1581 3.0866 45.084 0 0 3.0215-1.4004 1.1581 3.0866 45.084 0 0 1.3281-2.9805 1.1581 3.0866 45.084 0 0-0.45508-0.13672zm-6.252 0.07617a1.1754 3.041 1.5668 0 0-1.2559 3.0156 1.1754 3.041 1.5668 0 0 1.0957 3.0645 1.1754 3.041 1.5668 0 0 1.2559-3.0176 1.1754 3.041 1.5668 0 0-1.0957-3.0625zm26.932 0.72461a1.1723 3.0491 14.06 0 0-1.793 2.7109 1.1723 3.0491 14.06 0 0 0.41211 3.2207 1.1723 3.0491 14.06 0 0 1.875-2.6992 1.1723 3.0491 14.06 0 0-0.41211-3.2207 1.1723 3.0491 14.06 0 0-0.08203-0.01172zm-45.662 0.19531a3.1097 1.1495 26.335 0 0-0.79297 0.33008 3.1097 1.1495 26.335 0 0 2.2383 2.4043 3.1097 1.1495 26.335 0 0 3.3242 0.37891 3.1097 1.1495 26.335 0 0-2.2383-2.4062 3.1097 1.1495 26.335 0 0-2.5312-0.70703zm12.938 1.0312a1.1408 3.1334 77.382 0 0-1.498 0.19531 1.1408 3.1334 77.382 0 0-2.7949 1.7988 1.1408 3.1334 77.382 0 0 3.3164 0.42187 1.1408 3.1334 77.382 0 0 2.7969-1.8008 1.1408 3.1334 77.382 0 0-1.8203-0.61523zm19.422 1.8438a3.0847 1.1588 41.739 0 0-0.49414 0.16211 3.0847 1.1588 41.739 0 0 1.4883 2.9023 3.0847 1.1588 41.739 0 0 3.0938 1.2285 3.0847 1.1588 41.739 0 0-1.4883-2.9023 3.0847 1.1588 41.739 0 0-2.5996-1.3906z" fill="#efefef" style="paint-order:markers stroke fill"/>
  </g>
 </g>
</svg>
