<?xml version="1.0" encoding="UTF-8"?>
<!-- Created with Inkscape (http://www.inkscape.org/) -->
<svg width="128" height="128" version="1.1" viewBox="0 0 33.867 33.867" xmlns="http://www.w3.org/2000/svg" xmlns:cc="http://creativecommons.org/ns#" xmlns:dc="http://purl.org/dc/elements/1.1/" xmlns:rdf="http://www.w3.org/1999/02/22-rdf-syntax-ns#">
 <metadata>
  <rdf:RDF>
   <cc:Work rdf:about="">
    <dc:format>image/svg+xml</dc:format>
    <dc:type rdf:resource="http://purl.org/dc/dcmitype/StillImage"/>
    <dc:title/>
   </cc:Work>
  </rdf:RDF>
 </metadata>
 <g transform="translate(0 -263.13)">
  <g transform="matrix(1.0312 0 0 1.0312 52.09 -21.181)">
   <path d="m-34.703 292.33c-2.5196 0.0217-4.6262 0.31947-6.3796 0.8133 2.5172 3.8891 5.1094 8.8427 6.4394 12.648 0.01189-0.20645 1.343-0.37898 1.3558-0.59367 0.21883-3.674-0.63394-8.6556-0.7972-12.858-0.201-7e-3 -0.40616-0.0109-0.61837-9e-3z" fill="#fff"/>
   <path transform="matrix(.25657 0 0 .25657 -50.512 275.7)" d="m61.617 64.809c0.82375-0.0074 1.62 0.0081 2.4004 0.03516-0.7803-0.02731-1.5768-0.04227-2.4004-0.03516zm2.4102 0.03516c0.6735 17.338 0.67351 34.877-0.16602 49.451-5.1838-14.831-17.298-31.158-27.109-46.316-24.368 6.8629-31.244 23.453-31.244 35.727 0 15.716 19.114 26.432 42.691 23.934 23.578-2.4988 42.691-17.266 42.691-32.982 0-15.169-5.1476-29.048-26.863-29.812zm-6.2891 0.06055c-0.39286 0.01543-0.77085 0.04152-1.1582 0.06055 0.38755-0.01905 0.76514-0.0451 1.1582-0.06055zm-3.7227 0.20898c-0.462 0.03312-0.91142 0.07299-1.3652 0.11133 0.45352-0.03833 0.90355-0.07821 1.3652-0.11133zm-3.5234 0.3125c-0.46425 0.04901-0.92158 0.10365-1.377 0.1582 0.45549-0.05459 0.91258-0.10916 1.377-0.1582zm-3.4395 0.42774c-0.43314 0.0616-0.86427 0.12472-1.2891 0.19141 0.42462-0.06668 0.85609-0.1298 1.2891-0.19141zm-3.2461 0.52344c-0.40727 0.07361-0.81752 0.14626-1.2168 0.22461 0.39906-0.07832 0.80975-0.15102 1.2168-0.22461zm-3.1875 0.64258c-0.34036 0.07592-0.68915 0.14714-1.0234 0.22656 0.33424-0.07942 0.68312-0.15064 1.0234-0.22656z" fill="#6fb26f" style="paint-order:markers stroke fill"/>
   <g fill="none" stroke="#000">
    <path d="m-41.568 293.98c0.12733-1.9774 6.4878-6.2073 11.467 4.2046" stroke="#000" stroke-width=".25657px"/>
    <g transform="matrix(1 0 -.020517 1.2259 5.9535 -66.429)">
     <path d="m-44.528 295.76c-0.17207 4.2539-0.2953 4.8726 1.3271 5.2208m0.6749 0.10137c0.9915 0.15331 1.9522 0.28283 3.2181-4.8108" stroke="#bec1c3" stroke-width=".25657px"/>
     <path d="m-44.528 295.76c0.93646-2.5329 5.3524-2.1848 5.2201 0.51134" stroke="#000" stroke-linecap="round" stroke-width=".28427px"/>
     <path d="m-43.392 300.91 0.21446 0.0536m0.53661 0.0959 0.22484 0.0187" stroke="#000" stroke-linecap="round" stroke-width=".54788"/>
    </g>
   </g>
   <path d="m-41.557 287.19c1.5961 1.3247 0.2417 5.6394 0.56491 5.998 2.3684 2.6279 6.0766 3.7794 6.7554 1.3269 0.45604-1.6475-0.19991-4.3361-0.66864-6.3877z" fill="#efefef"/>
   <g transform="translate(-17.894 18.311)">
    <path d="m-23.246 271.97c-2.1409-0.56908-3.4378-8.0242-2.2203-10.896 1.4367-3.3892 9.9466-3.8763 10.868-1.2778 1.6448 3.5652 0.40224 7.1198 0.38305 10.836z"/>
    <g fill="#efefef">
     <path d="m-13.754 268.74c-0.49745 2.8038-0.57674 5.5228-3.2484 6.1603-3.0869 0.73654-8.1108-3.6556-7.5257-7.8327 0.66895-4.7754 3.1484-6.7411 6.4382-6.8567 3.598-0.12643 5.0731 4.374 4.3359 8.5291z" style="paint-order:markers stroke fill"/>
     <ellipse transform="matrix(.9939 -.11026 .2604 .9655 0 0)" cx="-94.305" cy="266.65" rx="1.5065" ry="2.1524" style="paint-order:markers stroke fill"/>
    </g>
    <path transform="matrix(.26458 0 0 .26458 0 263.13)" d="m-69.279-13.125c-7.6584-0.03571-15.662 4.8064-17.836 10.842 5.5078-5.2708 10.134-4.3121 19.707-3.9961 6.6141-1.9361 7.9806-1.788 11.383 1.2598-2.9371-5.7732-8.014-8.081-13.254-8.1055zm-17.521 11.264c-6.4821 7.6417-10.893 4.7012-4.9727 12.166 1.4962 0.5108 2.0396 4.8523 1.1914 8.4922 1.0187 0.18028 2.0016 0.45884 3.4277-0.44727 1.2621-10.221-4.2072-12.431 0.35352-20.211z"/>
    <path d="m-19.22 262.06c2.6829-0.8758 1.8005-1.4802 2.6566-2.217l1.4907 0.91738c0.24964 1.0459-1.738 1.5241-2.9241 1.6245 1.7707-0.72405 1.2324-1.0949 1.4716-1.5863-0.2556 0.74696-0.41727 0.94855-2.6948 1.2614z"/>
   </g>
   <g transform="matrix(.58653 0 0 .58653 -34.603 133.12)">
    <circle cx="13.758" cy="283.24" r="12.7" fill="#848586" style="paint-order:markers stroke fill"/>
    <circle cx="13.758" cy="283.24" r="10.319" fill="#fff" style="paint-order:markers stroke fill"/>
    <g fill="#242424">
     <path d="m13.168 282.71 6.0194-6.6852 1.298-0.25538-0.11828 1.3176-6.0194 6.6852z" style="paint-order:markers stroke fill"/>
     <path d="m13.923 284.02-6.2112 1.3202-1.2002-0.55635 0.87017-0.99646 6.2112-1.3202z" style="paint-order:markers stroke fill"/>
     <circle cx="13.758" cy="283.24" r="1.5875" style="paint-order:markers stroke fill"/>
    </g>
   </g>
  </g>
 </g>
</svg>
