<?xml version="1.0" encoding="UTF-8"?>
<!-- Created with Inkscape (http://www.inkscape.org/) -->
<svg width="128" height="128" enable-background="new" version="1.1" viewBox="0 0 33.867 33.867" xmlns="http://www.w3.org/2000/svg" xmlns:cc="http://creativecommons.org/ns#" xmlns:dc="http://purl.org/dc/elements/1.1/" xmlns:rdf="http://www.w3.org/1999/02/22-rdf-syntax-ns#">
 <metadata>
  <rdf:RDF>
   <cc:Work rdf:about="">
    <dc:format>image/svg+xml</dc:format>
    <dc:type rdf:resource="http://purl.org/dc/dcmitype/StillImage"/>
    <dc:title/>
   </cc:Work>
  </rdf:RDF>
 </metadata>
 <g transform="translate(0 -263.13)">
  <g transform="matrix(2 0 0 2 -25.4 231.11)" fill="#fff">
   <path d="m27.517 17.462c0-0.803-0.64652-1.4495-1.4495-1.4495h-9.801c-0.803 0-1.4495 0.64652-1.4495 1.4495v14.034c0 0.803 0.64652 1.4495 1.4495 1.4495h9.801c0.803 0 1.4495-0.64652 1.4495-1.4495zm-0.79375 0.39119v13.252c0 0.72652-0.32044 1.047-1.047 1.047h-9.0186c-0.72652 0-1.047-0.32044-1.047-1.047v-13.252c0-0.72652 0.32044-1.047 1.047-1.047h9.0186c0.72652 0 1.047 0.32044 1.047 1.047z" style="paint-order:stroke markers fill"/>
   <path d="m19.978 29.506c-0.40808-0.02064-0.68268 0.4986-0.43903 0.82543 0.16606 0.27299 0.50072 0.23299 0.77398 0.23291 2.4641-0.0018-1.6863 0.0036 0.77764-0.0027 0.40635-0.02127 0.62707-0.5627 0.35437-0.86342-0.21254-0.26774-0.57097-0.17544-0.8667-0.19219h-0.60026z" style="paint-order:stroke markers fill"/>
   <path d="m19.978 27.39c-0.45387-0.02543-0.71164 0.60052-0.37452 0.90368 0.25671 0.24461 0.63186 0.12648 0.94988 0.15465 3.4422-0.0018 1.3284 0.0036 4.7706-0.0027 0.45216-0.02122 0.6459-0.66664 0.28272-0.93507-0.27006-0.20074-0.6241-0.09284-0.93625-0.12054h-4.6924z" style="paint-order:stroke markers fill"/>
   <path d="m19.978 25.273c-0.43058-0.02305-0.69858 0.54846-0.40862 0.86614 0.22989 0.28105 0.61418 0.1692 0.92847 0.19219 3.0198-0.0018 0.48349 0.0036 3.5032-0.0027 0.42885-0.02119 0.638-0.61366 0.32026-0.90096-0.24655-0.2391-0.60824-0.12949-0.91564-0.15465h-3.4276z" style="paint-order:stroke markers fill"/>
   <path d="m19.978 23.156c-0.45387-0.02543-0.71164 0.60052-0.37452 0.90368 0.25671 0.24461 0.63186 0.12648 0.94988 0.15465 3.4422-0.0018 1.3284 0.0036 4.7706-0.0027 0.45216-0.02122 0.6459-0.66664 0.28272-0.93507-0.27006-0.20074-0.6241-0.09284-0.93625-0.12054h-4.6924z" style="paint-order:stroke markers fill"/>
   <path d="m19.978 21.04c-0.45387-0.02543-0.71164 0.60052-0.37452 0.90368 0.25671 0.24461 0.63186 0.12648 0.94988 0.15465 3.4422-0.0018 1.3284 0.0036 4.7706-0.0027 0.45216-0.02122 0.6459-0.66664 0.28272-0.93507-0.27006-0.20074-0.6241-0.09284-0.93625-0.12054h-4.6924z" style="paint-order:stroke markers fill"/>
   <path d="m17.068 29.506c-0.40808-0.02064-0.68268 0.4986-0.43903 0.82543 0.16606 0.27299 0.50072 0.23299 0.77398 0.23291 2.4641-0.0018-1.9509 0.0036 0.51306-0.0027 0.40635-0.02127 0.62707-0.5627 0.35437-0.86342-0.21254-0.26774-0.57097-0.17544-0.8667-0.19219h-0.33567z" style="paint-order:stroke markers fill"/>
   <path d="m17.068 27.39c-0.45387-0.02543-0.71164 0.60052-0.37452 0.90368 0.25671 0.24461 0.63186 0.12648 0.94988 0.15465 3.4422-0.0018-2.9049 0.0036 0.53722-0.0027 0.45216-0.02122 0.6459-0.66664 0.28272-0.93507-0.27006-0.20074-0.6241-0.09284-0.93625-0.12054h-0.45906z" style="paint-order:stroke markers fill"/>
   <path d="m17.068 25.273c-0.43058-0.02305-0.69858 0.54846-0.40862 0.86614 0.22989 0.28105 0.61418 0.1692 0.92847 0.19219 3.0198-0.0018-2.4269 0.0036 0.59274-0.0027 0.42885-0.02119 0.638-0.61366 0.32026-0.90096-0.24655-0.2391-0.60824-0.12949-0.91564-0.15465h-0.51721z" style="paint-order:stroke markers fill"/>
   <path d="m17.068 23.156c-0.45387-0.02543-0.71164 0.60052-0.37452 0.90368 0.25671 0.24461 0.63186 0.12648 0.94988 0.15465 3.4422-0.0018-3.4341 0.0036 0.0081-0.0027 0.45216-0.02122 0.6459-0.66664 0.28272-0.93507-0.27006-0.20074-0.6241-0.09284-0.93625-0.12054h0.07011z" style="paint-order:stroke markers fill"/>
   <path d="m17.068 21.04c-0.45387-0.02543-0.71164 0.60052-0.37452 0.90368 0.25671 0.24461 0.63186 0.12648 0.94988 0.15465 3.4422-0.0018-2.9049 0.0036 0.53722-0.0027 0.45216-0.02122 0.6459-0.66664 0.28272-0.93507-0.27006-0.20074-0.6241-0.09284-0.93625-0.12054h-0.45906z" style="paint-order:stroke markers fill"/>
   <rect x="16.538" y="17.729" width="9.257" height="2.0439" rx=".53259" ry=".52917" style="paint-order:markers fill stroke"/>
  </g>
 </g>
</svg>
