<?xml version="1.0" encoding="UTF-8"?>
<!-- Created with Inkscape (http://www.inkscape.org/) -->
<svg width="128" height="128" version="1.1" viewBox="0 0 33.867 33.867" xmlns="http://www.w3.org/2000/svg" xmlns:cc="http://creativecommons.org/ns#" xmlns:dc="http://purl.org/dc/elements/1.1/" xmlns:rdf="http://www.w3.org/1999/02/22-rdf-syntax-ns#">
 <metadata>
  <rdf:RDF>
   <cc:Work rdf:about="">
    <dc:format>image/svg+xml</dc:format>
    <dc:type rdf:resource="http://purl.org/dc/dcmitype/StillImage"/>
    <dc:title/>
   </cc:Work>
  </rdf:RDF>
 </metadata>
 <g transform="translate(0 -263.13)">
  <path d="m4.1369 281.33c-2.2249 1.4e-4 -4.0284 1.8039-4.0281 4.0288 1.362e-4 2.2246 1.8035 4.028 4.0281 4.0281 2.2249 2.5e-4 4.0287-1.8032 4.0288-4.0281 2.429e-4 -2.2252-1.8037-4.029-4.0288-4.0288zm12.796 0c-2.2249 1.4e-4 -4.0283 1.8039-4.0281 4.0288 1.36e-4 2.2246 1.8035 4.028 4.0281 4.0281 2.2249 2.5e-4 4.0287-1.8032 4.0288-4.0281 2.44e-4 -2.2252-1.8037-4.029-4.0288-4.0288zm12.796 0c-2.2249 1.4e-4 -4.0284 1.8039-4.0281 4.0288 1.36e-4 2.2246 1.8035 4.028 4.0281 4.0281 2.2249 2.5e-4 4.0287-1.8032 4.0288-4.0281 2.43e-4 -2.2252-1.8037-4.029-4.0288-4.0288z" fill="#fff" style="paint-order:markers fill stroke"/>
 </g>
</svg>
