<?xml version="1.0" encoding="UTF-8"?>
<!-- Created with Inkscape (http://www.inkscape.org/) -->
<svg width="128" height="128" version="1.1" viewBox="0 0 33.867 33.867" xmlns="http://www.w3.org/2000/svg" xmlns:cc="http://creativecommons.org/ns#" xmlns:dc="http://purl.org/dc/elements/1.1/" xmlns:rdf="http://www.w3.org/1999/02/22-rdf-syntax-ns#">
 <metadata>
  <rdf:RDF>
   <cc:Work rdf:about="">
    <dc:format>image/svg+xml</dc:format>
    <dc:type rdf:resource="http://purl.org/dc/dcmitype/StillImage"/>
    <dc:title/>
   </cc:Work>
  </rdf:RDF>
 </metadata>
 <g transform="translate(0 -263.13)">
  <g fill="#fff">
   <path transform="matrix(.26458 0 0 .26458 0 263.13)" d="m77.949 14.705-1.6914 0.29492-11.133 1.9395v88.473l0.875 0.375c2.2634 0.97005 4.8209 1.7244 7.668 2.2793 2.8696 0.63636 5.7807 0.95507 8.7285 0.95507 8.4754 0 15.023-2.8617 19.082-8.5742 4.1181-5.6875 6.0469-13.996 6.0469-24.871 0-4.9321-0.4298-9.3829-1.3027-13.355-0.79674-4.0517-2.0792-7.5267-3.8848-10.4-1.8091-2.9563-4.195-5.2681-7.1055-6.8516-2.9453-1.6796-6.4433-2.4941-10.408-2.4941-1.8669 0-3.5328 0.20255-5.0059 0.63281-0.62868 0.15836-1.2459 0.47088-1.8691 0.70117zm-42.896 9.8594-13.084 0.0039-0.32031 1.0039c-1.8496 5.7801-3.7011 11.636-5.5508 17.57l-4e-3 0.0156c-1.7756 5.8673-3.5496 12.042-5.3242 18.523l-2e-3 0.0078-2e-3 0.0059c-1.6963 6.4782-3.4317 13.339-5.2049 20.586-1.7769 7.2623-3.5131 15.1-5.2109 23.512l-0.34961 1.7266h13.027l0.21094-1.1914c0.61591-3.4645 1.2299-6.8905 1.8457-10.277 0.54429-2.9936 1.1724-5.9863 1.8379-8.9805h22.818c0.60439 2.9936 1.19 5.9864 1.7344 8.9805l2e-3 0.01563 0.0039 0.01367c0.69071 3.3768 1.343 6.7922 1.957 10.246l0.21094 1.1914h13.391l-0.36914-1.7422c-1.7733-8.4036-3.5456-16.231-5.3204-23.484l-0.0039-0.01367c-1.6959-7.2451-3.4309-14.105-5.2051-20.586l-0.0039-0.01563c-1.6968-6.4778-3.4717-12.652-5.3242-18.52l-0.0059-0.02344c-1.7721-5.9325-3.5844-11.786-5.4336-17.564zm-6.7148 18.459c1.4128 4.8013 2.8258 9.6026 4.1523 14.447 1.6086 5.8748 3.0938 11.916 4.5117 18.047h-17.434c1.4817-6.1308 3.0086-12.172 4.6172-18.047 1.3265-4.8446 2.7396-9.6459 4.1523-14.447zm55.33 11.117v2e-3c1.7326 0 3.1794 0.34129 4.4121 0.99023 1.1799 0.62102 2.2143 1.659 3.1113 3.2461l0.01172 0.01953 0.01172 0.01758c0.95024 1.5611 1.7227 3.7493 2.2402 6.5586 0.51625 2.8025 0.78516 6.3465 0.78516 10.6 0 8.1894-1.1607 13.949-3.1348 17.148l-2e-3 0.0039-0.0039 0.0039c-1.9263 3.1647-4.618 4.623-8.7031 4.623-0.78111 0-1.6492-0.0399-2.5918-0.11133-0.59056-0.09184-1.2286-0.26119-1.8555-0.41211v-41.318c1.8099-0.86736 3.6859-1.3711 5.7188-1.3711z" color="#000000" color-rendering="auto" dominant-baseline="auto" image-rendering="auto" shape-rendering="auto" solid-color="#000000" style="font-feature-settings:normal;font-variant-alternates:normal;font-variant-caps:normal;font-variant-ligatures:normal;font-variant-numeric:normal;font-variant-position:normal;isolation:auto;mix-blend-mode:normal;shape-padding:0;text-decoration-color:#000000;text-decoration-line:none;text-decoration-style:solid;text-indent:0;text-orientation:mixed;text-transform:none;white-space:normal"/>
   <rect x="29.633" y="263.13" width="4.2333" height="33.867" style="paint-order:markers fill stroke"/>
  </g>
 </g>
</svg>
