<?xml version="1.0" encoding="UTF-8"?>
<!-- Created with Inkscape (http://www.inkscape.org/) -->
<svg width="128" height="128" enable-background="new" version="1.1" viewBox="0 0 33.867 33.867" xmlns="http://www.w3.org/2000/svg" xmlns:cc="http://creativecommons.org/ns#" xmlns:dc="http://purl.org/dc/elements/1.1/" xmlns:rdf="http://www.w3.org/1999/02/22-rdf-syntax-ns#">
 <metadata>
  <rdf:RDF>
   <cc:Work rdf:about="">
    <dc:format>image/svg+xml</dc:format>
    <dc:type rdf:resource="http://purl.org/dc/dcmitype/StillImage"/>
    <dc:title/>
   </cc:Work>
  </rdf:RDF>
 </metadata>
 <g transform="translate(0 -263.13)">
  <g fill="#fff">
   <path d="m11.478 268.37 1.4879 5.0643-4.0722 3.5661 5.0665 0.14496 1.6528 5.5042 1.6253-3.8834 13.868 18.238 2.7601-2.0988-13.868-18.238 4.1765-0.52833-4.8623-3.0637 1.2144-4.921-4.5247 2.9711-4.4825-2.7873 0.01114 0.058z" style="paint-order:markers fill stroke"/>
   <path d="m4.5618 263.13-1.1784 3.09-3.3834 0.23421 2.4719 1.9938-1.2633 3.372 3.3632-1.9449 0.00646 2e-3 0.00646-2e-3 3.3632 1.9449-1.2633-3.372 2.4719-1.9938-3.3834-0.23421-1.1784-3.09-0.016515 0.0333z" style="paint-order:markers fill stroke"/>
   <path d="m27.703 264.24-0.7698 2.0186-2.2102 0.153 1.6148 1.3025-0.82527 2.2028 2.1971-1.2705 0.0042 1e-3 0.0042-1e-3 2.1971 1.2705-0.82527-2.2028 1.6148-1.3025-2.2102-0.153-0.7698-2.0186-0.01079 0.0217z" style="paint-order:markers fill stroke"/>
   <path d="m7.3312 280.91-0.69805 1.8304-2.0042 0.13874 1.4643 1.181-0.74835 1.9974 1.9923-1.1521 0.00381 9e-4 0.00381-9e-4 1.9923 1.1521-0.74835-1.9974 1.4643-1.181-2.0042-0.13874-0.69805-1.8304-0.00978 0.0197z" style="paint-order:markers fill stroke"/>
   <path d="m29.407 273.43-0.51865 1.36-1.4891 0.10309 1.088 0.87752-0.55602 1.4841 1.4803-0.856 0.0028 6.7e-4 0.0028-6.7e-4 1.4803 0.856-0.55602-1.4841 1.088-0.87752-1.4891-0.10309-0.51865-1.36-0.0073 0.0146z" style="paint-order:markers fill stroke"/>
   <path d="m2.0961 276.71-0.26495 0.69476-0.76072 0.0527 0.55579 0.44828-0.28404 0.75816 0.75618-0.43729 0.0014 3.4e-4 0.0014-3.4e-4 0.75618 0.43729-0.28404-0.75816 0.55579-0.44828-0.76072-0.0527-0.26495-0.69476-0.0037 7e-3z" style="paint-order:markers fill stroke"/>
   <path d="m16.333 263.48-0.34568 0.90644-0.9925 0.0688 0.72513 0.58486-0.37059 0.98915 0.98658-0.57052 0.0018 4.4e-4 0.0018-4.4e-4 0.98658 0.57052-0.37059-0.98915 0.72513-0.58486-0.9925-0.0688-0.34568-0.90644-0.0048 9e-3z" style="paint-order:markers fill stroke"/>
  </g>
 </g>
</svg>
