<?xml version="1.0" encoding="UTF-8"?>
<!-- Created with Inkscape (http://www.inkscape.org/) -->
<svg width="128" height="128" version="1.1" viewBox="0 0 33.867 33.867" xmlns="http://www.w3.org/2000/svg" xmlns:cc="http://creativecommons.org/ns#" xmlns:dc="http://purl.org/dc/elements/1.1/" xmlns:rdf="http://www.w3.org/1999/02/22-rdf-syntax-ns#">
 <metadata>
  <rdf:RDF>
   <cc:Work rdf:about="">
    <dc:format>image/svg+xml</dc:format>
    <dc:type rdf:resource="http://purl.org/dc/dcmitype/StillImage"/>
    <dc:title/>
   </cc:Work>
  </rdf:RDF>
 </metadata>
 <g transform="translate(0 -263.13)">
  <path d="m3.4978 266.63c-4.6637 4.6638-4.6637 12.225-3e-6 16.889 4.0845 4.0814 10.504 4.6559 15.248 1.3646l1.757 1.757c-0.12318 0.88107 0.12153 1.7648 0.75292 2.3962l7.1766 7.1766c1.141 1.141 3.1066 1.0255 4.3902-0.25813 1.2836-1.2836 1.3992-3.2493 0.25814-4.3902l-7.1766-7.1766c-0.63136-0.63139-1.5151-0.87609-2.3962-0.75294l-1.7607-1.7606c3.2902-4.7427 2.7174-11.16-1.3609-15.245-4.6637-4.6638-12.225-4.6637-16.889 0zm2.3584 2.299c3.3776-3.378 8.8541-3.3781 12.232-2.9e-4 3.3778 3.3777 3.3776 8.8542-3.07e-4 12.232-3.3777 3.3774-8.8537 3.3772-12.231-3e-4 -3.3776-3.3775-3.3777-8.8535-3.07e-4 -12.231z" fill="#fff"/>
 </g>
</svg>
