<?xml version="1.0" encoding="UTF-8"?>
<!-- Created with Inkscape (http://www.inkscape.org/) -->
<svg width="128" height="128" version="1.1" viewBox="0 0 33.867 33.867" xmlns="http://www.w3.org/2000/svg" xmlns:cc="http://creativecommons.org/ns#" xmlns:dc="http://purl.org/dc/elements/1.1/" xmlns:rdf="http://www.w3.org/1999/02/22-rdf-syntax-ns#">
 <metadata>
  <rdf:RDF>
   <cc:Work rdf:about="">
    <dc:format>image/svg+xml</dc:format>
    <dc:type rdf:resource="http://purl.org/dc/dcmitype/StillImage"/>
    <dc:title/>
   </cc:Work>
  </rdf:RDF>
 </metadata>
 <g transform="translate(0 -263.13)">
  <path transform="matrix(.26458 0 0 .26458 0 263.13)" d="m90.643 0a3.6602 3.7651 53.393 0 0-2.3535 0.75977l-72.531 53.881a3.6602 3.7651 53.393 0 0-1.4844 2.3926l-6.9629 38.736c-3.7398 3.36-6.1528 6.9747-6.9492 10.859-0.87726 4.2788 0.53351 8.6155 3.3379 11.812 5.6088 6.3941 15.904 9.5547 28.76 9.5801a4.001 4.001 0 1 0 0.01367-8.002c-11.422-0.0227-19.757-3.4285-22.758-6.8496-1.5005-1.7105-1.8923-3.0928-1.5137-4.9394 0.32036-1.5625 1.4541-3.65 3.9082-6.002l39.094 4.5176a3.6602 3.7651 53.393 0 0 2.7207-0.73047l72.531-53.881a3.6602 3.7651 53.393 0 0 0.83789-5.1836l-33.797-45.496a3.6602 3.7651 53.393 0 0-2.8535-1.4551zm-1.6621 13.057 1.1953 0.0059c1.1038 0.0076 1.9928 0.90795 1.9863 2.0117l-0.05078 9.1328c-0.0063 1.1216-0.93347 2.0185-2.0547 1.9883l-8.1523-0.22266-0.0332 5.8672c-0.0063 1.1216-0.93345 2.0185-2.0547 1.9883l-8.1504-0.22266-0.0332 5.8672c-0.0063 1.1216-0.93346 2.0185-2.0547 1.9883l-8.1504-0.22266-0.0332 5.8672c-0.0063 1.1216-0.93345 2.0185-2.0547 1.9883l-8.1504-0.22266-0.0332 5.8672c-0.0063 1.1216-0.93346 2.0185-2.0547 1.9883l-8.25-0.22656-0.1875 5.2949c-0.03937 1.1001-0.96026 1.9618-2.0605 1.9277l-1.1875-0.03711c-1.1063-0.03511-1.9738-0.96213-1.9355-2.0684l0.29492-8.4688c0.03833-1.0977 0.95472-1.9599 2.0527-1.9297l7.9785 0.2207 0.20703-5.9238c0.03813-1.0823 0.93072-1.9372 2.0137-1.9297l8.0176 0.22266 0.20703-5.9238c0.03815-1.0823 0.93074-1.9372 2.0137-1.9297l8.0176 0.2207 0.20703-5.9238c0.03814-1.0815 0.92954-1.9372 2.0117-1.9297l8.0195 0.2207 0.20898-5.9238c0.03813-1.0815 0.92954-1.9372 2.0117-1.9297l8.1914 0.22461 0.0332-5.8691c0.0066-1.1053 0.90837-1.9958 2.0137-1.9883zm-0.70898 20.576 1.1953 0.0098c1.103 0.0087 1.9908 0.9087 1.9844 2.0117l-0.05078 9.1309c-0.0063 1.1216-0.93346 2.0185-2.0547 1.9883l-8.25-0.22656-0.1875 5.2949c-0.03832 1.1009-0.95952 1.9637-2.0605 1.9297l-1.1875-0.03711c-1.1071-0.03511-1.9749-0.96333-1.9355-2.0703l0.29492-8.4688c0.03833-1.0978 0.95472-1.9599 2.0527-1.9297l8.1504 0.22461 0.0332-5.8691c0.0066-1.1061 0.90957-1.9958 2.0156-1.9883zm-20.479 15.268 1.1953 0.0078c1.1038 0.0076 1.9928 0.90795 1.9863 2.0117l-0.05273 9.1309c-0.0063 1.1216-0.93346 2.0185-2.0547 1.9883l-8.1504-0.22266-0.0332 5.8672c-0.0063 1.1216-0.93345 2.0185-2.0547 1.9883l-8.248-0.22656-0.1875 5.2949c-0.03832 1.1009-0.95952 1.9637-2.0605 1.9297l-1.1895-0.03711c-1.1072-0.0351-1.9749-0.96333-1.9355-2.0703l0.29492-8.4668c0.03833-1.0978 0.95472-1.9599 2.0527-1.9297l7.9785 0.2207 0.20703-5.9238c0.03814-1.0815 0.92954-1.9372 2.0117-1.9297l8.1934 0.22461 0.0332-5.8691c0.0066-1.1053 0.90839-1.9958 2.0137-1.9883zm19.83 5.1523 1.1953 0.0059c1.1038 0.0076 1.9928 0.90795 1.9863 2.0117l-0.05078 9.1328c-0.0063 1.1216-0.93345 2.0185-2.0547 1.9883l-8.1504-0.22266-0.0332 5.8672c-0.0063 1.1216-0.93346 2.0185-2.0547 1.9883l-8.1504-0.22266-0.0332 5.8672c-0.0063 1.1216-0.93345 2.0185-2.0547 1.9883l-8.25-0.22852-0.1875 5.2969c-0.03935 1.1001-0.96025 1.9618-2.0605 1.9277l-1.1895-0.03711c-1.1064-0.03511-1.9738-0.96213-1.9355-2.0684l0.29688-8.4688c0.03831-1.0978 0.9547-1.9599 2.0527-1.9297l7.9785 0.2207 0.20703-5.9238c0.03815-1.0823 0.93074-1.9372 2.0137-1.9297l1.1953 0.01172 6.8223 0.20898 0.20703-5.9238c0.03815-1.0823 0.93074-1.9372 2.0137-1.9297l1.1953 0.01172 6.9961 0.21484 0.03125-5.8691c0.0066-1.1053 0.90837-1.9958 2.0137-1.9883zm-72.359 35.441c0.27318 0.01981 0.54645 0.06194 0.81445 0.12695 2.2872 0.46526 4.0665 2.5895 4.2852 4.8887 0.20691 2.146-1.0775 4.2147-2.8496 5.3438-0.65511 0.33195-1.5928 0.08386-1.1504-0.58398 0.41435-0.42901 1.0145-0.71867 1.3125-1.2812 1.2046-1.6821 0.8679-4.2146-0.67969-5.5684-1.575-1.4476-4.2793-1.4222-5.7832 0.11719-0.77066 0.85493-1.3796 0.25034-0.90039-0.64258 1.0694-1.6002 3.0389-2.5391 4.9512-2.4004z" color="#000000" color-rendering="auto" dominant-baseline="auto" fill="#fff" image-rendering="auto" shape-rendering="auto" solid-color="#000000" style="font-feature-settings:normal;font-variant-alternates:normal;font-variant-caps:normal;font-variant-ligatures:normal;font-variant-numeric:normal;font-variant-position:normal;isolation:auto;mix-blend-mode:normal;paint-order:markers fill stroke;shape-padding:0;text-decoration-color:#000000;text-decoration-line:none;text-decoration-style:solid;text-indent:0;text-orientation:mixed;text-transform:none;white-space:normal"/>
 </g>
</svg>
