<?xml version="1.0" encoding="UTF-8"?>
<!-- Created with Inkscape (http://www.inkscape.org/) -->
<svg width="128" height="128" enable-background="new" version="1.1" viewBox="0 0 33.867 33.867" xmlns="http://www.w3.org/2000/svg" xmlns:cc="http://creativecommons.org/ns#" xmlns:dc="http://purl.org/dc/elements/1.1/" xmlns:rdf="http://www.w3.org/1999/02/22-rdf-syntax-ns#">
 <metadata>
  <rdf:RDF>
   <cc:Work rdf:about="">
    <dc:format>image/svg+xml</dc:format>
    <dc:type rdf:resource="http://purl.org/dc/dcmitype/StillImage"/>
    <dc:title/>
   </cc:Work>
  </rdf:RDF>
 </metadata>
 <g transform="translate(0 -263.13)">
  <g transform="matrix(2 0 0 2 -25.4 231.11)" fill="#fff">
   <path d="m14.15 17.6c-0.803 0-1.4495 0.64652-1.4495 1.4495v3.451c0 0.803 0.64652 1.4495 1.4495 1.4495h5.0385c0.803 0 1.4495-0.64652 1.4495-1.4495v-3.451c0-0.803-0.64652-1.4495-1.4495-1.4495z" style="paint-order:stroke markers fill"/>
   <path d="m23.145 17.6c-0.803 0-1.4495 0.64652-1.4495 1.4495v3.451c0 0.803 0.64652 1.4495 1.4495 1.4495h5.0385c0.803 0 1.4495-0.64652 1.4495-1.4495v-3.451c0-0.803-0.64652-1.4495-1.4495-1.4495z" style="paint-order:stroke markers fill"/>
   <path d="m14.15 25.008c-0.803 0-1.4495 0.64652-1.4495 1.4495v3.451c0 0.803 0.64652 1.4495 1.4495 1.4495h5.0385c0.803 0 1.4495-0.64653 1.4495-1.4495v-3.451c0-0.803-0.64652-1.4495-1.4495-1.4495z" style="paint-order:stroke markers fill"/>
   <path d="m23.145 25.008c-0.803 0-1.4495 0.64652-1.4495 1.4495v3.451c0 0.803 0.64652 1.4495 1.4495 1.4495h5.0385c0.803 0 1.4495-0.64652 1.4495-1.4495v-3.451c0-0.803-0.64652-1.4495-1.4495-1.4495z" style="paint-order:stroke markers fill"/>
  </g>
 </g>
</svg>
