<?xml version="1.0" encoding="UTF-8"?>
<!-- Created with Inkscape (http://www.inkscape.org/) -->
<svg width="128" height="128" version="1.1" viewBox="0 0 33.867 33.867" xmlns="http://www.w3.org/2000/svg" xmlns:cc="http://creativecommons.org/ns#" xmlns:dc="http://purl.org/dc/elements/1.1/" xmlns:rdf="http://www.w3.org/1999/02/22-rdf-syntax-ns#">
 <metadata>
  <rdf:RDF>
   <cc:Work rdf:about="">
    <dc:format>image/svg+xml</dc:format>
    <dc:type rdf:resource="http://purl.org/dc/dcmitype/StillImage"/>
    <dc:title/>
   </cc:Work>
  </rdf:RDF>
 </metadata>
 <g transform="matrix(1 0 0 -1 0 297)">
  <g fill="#fff">
   <path transform="matrix(.26458 0 0 .26458 0 263.13)" d="m0 0 1.3008 9.752 5.4355 5.5547 0.26367 4.707 5.3789 5.3789 6.0957 2.4141 2.1855 5.8652 4.6387-0.44727 2.4922 2.5898-0.31836 6.2969 3.4512 3.4531 7.2188 0.60156 0.11328 7.7051 3.1074 3.1055 7.9355-1.2637-1.5293 7.2031 15.381-15.381-47.535-47.535zm90.889 54.426-36.48 36.48c-0.07807 9.6808 3.6671 19.209 10.764 26.314 14.373 14.373 37.676 14.373 52.049 0s14.373-37.676 0-52.049v-2e-3c-7.1126-7.0937-16.647-10.832-26.332-10.744zm10.717 35.098c3.0921 0 6.1839 1.1797 8.543 3.5391 4.7175 4.7183 4.7163 12.366-2e-3 17.084-4.7176 4.7182-12.366 4.7194-17.084 2e-3 -4.7187-4.7181-4.7187-12.368 0-17.086 2.359-2.3594 5.4509-3.5391 8.543-3.5391z" style="paint-order:markers fill stroke"/>
   <path transform="matrix(.26458 0 0 .26458 0 263.13)" d="m116.69 0-116.69 116.69v11.314h11.314l116.69-116.69v-11.314z" style="paint-order:markers fill stroke"/>
  </g>
 </g>
</svg>
