<?xml version="1.0" encoding="UTF-8"?>
<!-- Created with Inkscape (http://www.inkscape.org/) -->
<svg width="128" height="128" version="1.1" viewBox="0 0 33.867 33.867" xmlns="http://www.w3.org/2000/svg" xmlns:cc="http://creativecommons.org/ns#" xmlns:dc="http://purl.org/dc/elements/1.1/" xmlns:rdf="http://www.w3.org/1999/02/22-rdf-syntax-ns#">
 <metadata>
  <rdf:RDF>
   <cc:Work rdf:about="">
    <dc:format>image/svg+xml</dc:format>
    <dc:type rdf:resource="http://purl.org/dc/dcmitype/StillImage"/>
    <dc:title/>
   </cc:Work>
  </rdf:RDF>
 </metadata>
 <g transform="translate(0 -263.13)">
  <g transform="matrix(.8 0 0 .8 -35.395 259.27)">
   <path d="m65.407 4.8292c-10.024 6.73e-4 -18.585 7.4257-20.297 17.543a1.008 1.008 0 0 0 0.99213 1.1759h4.0026a1.008 1.008 0 0 0 0.98688-0.7979c1.4818-6.9473 7.4377-11.868 14.315-11.875 5.004 0.01168 9.313 2.9341 11.988 7.2021h-5.2677a1.008 1.008 0 0 0-1.0066 1.0079v3.4514a1.008 1.008 0 0 0 1.0066 1.0118h13.437a1.008 1.008 0 0 0 1.0118-1.0118v-13.819a1.008 1.008 0 0 0-1.0118-1.0066h-3.3583a1.008 1.008 0 0 0-1.0066 1.0066v4.0079c-3.8651-4.8594-9.5641-7.8815-15.787-7.8963a1.008 1.008 0 0 0-0.0053 0zm-20.157 23.615a1.008 1.008 0 0 0-1.0066 1.0066v13.823a1.008 1.008 0 0 0 1.0066 1.0079h3.3635a1.008 1.008 0 0 0 1.0066-1.0079v-4.0118c3.8651 4.8594 9.5641 7.8815 15.787 7.8963 10.024-6.73e-4 18.59-7.4218 20.302-17.539a1.008 1.008 0 0 0-0.99212-1.1745h-4.0026a1.008 1.008 0 0 0-0.98688 0.79265c-1.4818 6.9473-7.4377 11.867-14.315 11.874-5.0027-0.01168-9.3126-2.9308-11.988-7.1969h5.2677a1.008 1.008 0 0 0 1.0066-1.0066v-3.4567a1.008 1.008 0 0 0-1.0066-1.0066h-12.57z" fill="#fff" style="paint-order:normal"/>
  </g>
 </g>
</svg>
