<?xml version="1.0" encoding="UTF-8"?>
<!-- Created with Inkscape (http://www.inkscape.org/) -->
<svg width="128" height="128" enable-background="new" version="1.1" viewBox="0 0 33.867 33.867" xmlns="http://www.w3.org/2000/svg" xmlns:cc="http://creativecommons.org/ns#" xmlns:dc="http://purl.org/dc/elements/1.1/" xmlns:rdf="http://www.w3.org/1999/02/22-rdf-syntax-ns#">
 <metadata>
  <rdf:RDF>
   <cc:Work rdf:about="">
    <dc:format>image/svg+xml</dc:format>
    <dc:type rdf:resource="http://purl.org/dc/dcmitype/StillImage"/>
    <dc:title/>
   </cc:Work>
  </rdf:RDF>
 </metadata>
 <g transform="translate(0 -263.13)">
  <g fill="#fff">
   <path d="m17.146 294.62 6.0524-8.4733h-11.983z" style="paint-order:markers stroke fill"/>
   <path transform="matrix(.26458 0 0 .26458 0 263.13)" d="m38.703 10.385-31.912 2e-3v8.6973h20.873c-0.88844 1.5843-1.784 3.1881-2.8066 5.1445l-4e-3 0.0078c-1.2659 2.4742-2.6181 5.1198-4.0566 7.9395l-0.0078 0.0156c-1.382 2.8216-2.7931 5.7288-4.2324 8.7227l-2e-3 0.0059-0.0039 0.0078c-1.383 2.9966-2.7369 5.9913-4.0625 8.9883-1.3261 2.9407-2.5667 5.7969-3.7207 8.5664-1.1546 2.7711-2.165 5.3136-3.0332 7.6289l-0.064453 0.17383v5.957h33.637v-8.6953h-22.781c1.1157-2.8025 2.3659-5.8264 3.9629-9.4199 1.8952-4.1349 3.8739-8.3586 5.9414-12.666l0.0039-0.0078c2.1238-4.3623 4.2479-8.58 6.3711-12.654l2e-3 -2e-3v-2e-3c2.124-4.1332 4.0467-7.7185 5.7637-10.752l0.13281-0.23633zm12.783 0-10.564 2e-3 0.48438 1.3672c0.98204 2.7728 2.0775 5.7166 3.2891 8.832 1.2114 3.115 2.48 6.2613 3.8066 9.4336 1.3274 3.1742 2.7137 6.3458 4.1562 9.5195 1.4067 3.0948 2.7837 6.0134 4.1367 8.7812v23.924h9.8184v-24.443c1.3522-2.7679 2.7036-5.6613 4.0547-8.7012 1.3829-3.1116 2.7371-6.2221 4.0625-9.334l2e-3 -0.0039 2e-3 -2e-3c1.3252-3.1689 2.5635-6.2823 3.7168-9.3379l0.0078-0.01953c1.2086-3.0508 2.3032-5.9331 3.2832-8.6426l0.49805-1.375h-10.318l-0.23242 0.70508c-1.491 4.5303-3.1838 9.3216-5.0781 14.373-1.5891 4.2376-3.2389 8.0892-4.9062 11.836-1.6678-3.7468-3.3191-7.5984-4.9082-11.836-1.8943-5.0515-3.5872-9.8428-5.0781-14.373zm31.676 2e-3 0.71875 1.4746 13.592 27.949c-1.1463 2.4012-2.3351 4.8859-3.584 7.4922l-0.0078 0.0156c-1.2658 2.7617-2.5312 5.5236-3.7969 8.2852-1.267 2.707-2.4765 5.3582-3.6289 7.9512-1.1593 2.6084-2.1454 5.0445-2.9609 7.3164l-0.49415 1.373h9.707l0.23242-0.70117c0.56644-1.6994 1.2484-3.5469 2.0449-5.5391l0.0059-0.01172v-2e-3c0.85642-2.0549 1.7691-4.1383 2.7402-6.252 0.97312-2.118 2.0054-4.2646 3.0938-6.4414l2e-3 -0.0039 2e-3 -0.0078c0.77338-1.5874 1.5153-3.0775 2.2598-4.5781 0.72939 1.494 1.4579 2.9778 2.1875 4.5586l6e-3 0.01563 8e-3 0.01563c1.0882 2.1763 2.1185 4.323 3.0918 6.4414l6e-3 0.0098 6e-3 0.01172c1.0242 2.1053 1.9319 4.1774 2.7266 6.2207l8e-3 0.01953 6e-3 0.01563c0.85703 1.9997 1.5993 3.8531 2.2246 5.5586l0.2461 0.67188h9.8789l-0.51953-1.3848c-0.87035-2.3209-1.8844-4.8106-3.041-7.4707-1.1528-2.6514-2.3927-5.359-3.7168-8.123l-0.01-0.02344c-1.2648-2.8161-2.5856-5.6039-3.9648-8.3633l-0.0117-0.02344c-1.2463-2.6551-2.4341-5.1922-3.5781-7.6426l14.142-28.826h-10.066l-9.6211 20.537-9.7012-20.537z"/>
  </g>
 </g>
</svg>
