<?xml version="1.0" encoding="UTF-8"?>
<!-- Created with Inkscape (http://www.inkscape.org/) -->
<svg width="128" height="128" enable-background="new" version="1.1" viewBox="0 0 33.867 33.867" xmlns="http://www.w3.org/2000/svg" xmlns:cc="http://creativecommons.org/ns#" xmlns:dc="http://purl.org/dc/elements/1.1/" xmlns:rdf="http://www.w3.org/1999/02/22-rdf-syntax-ns#">
 <metadata>
  <rdf:RDF>
   <cc:Work rdf:about="">
    <dc:format>image/svg+xml</dc:format>
    <dc:type rdf:resource="http://purl.org/dc/dcmitype/StillImage"/>
    <dc:title/>
   </cc:Work>
  </rdf:RDF>
 </metadata>
 <g transform="translate(0 -263.13)">
  <g transform="matrix(2 0 0 2 -25.4 231.11)" fill="#fff">
   <g transform="translate(-.52917)">
    <path transform="matrix(.13229 0 0 .13229 13.229 16.012)" d="m22.957 0c-6.0699 0-10.957 4.8871-10.957 10.957v78.086c0 6.0699 4.8871 10.957 10.957 10.957h11.039v-6h-8.082c-5.4918 0-7.9141-2.4222-7.9141-7.9141v-72.172c0-5.4918 2.4222-7.9141 7.9141-7.9141h48.172c5.4918 0 7.9141 2.4222 7.9141 7.9141v8.0938h6v-11.051c0-6.0699-4.8871-10.957-10.957-10.957z" style="paint-order:stroke markers fill"/>
    <path transform="matrix(.13229 0 0 .13229 12.7 16.012)" d="m33.016 78c-3.4308-0.19223-5.3784 4.5384-2.8301 6.8301 1.2958 1.2347 2.9923 1.2348 4.6914 1.1699-0.61606-7.25e-4 -0.05292-0.0019 0.21289-0.0039 0.68477-0.02794 1.3628-0.04359 2.0176-0.0059 0.24289-7.36e-4 0.56155-0.0011 0.89258-2e-3v-7.9648c-0.51224 0.015134-1.0204 0.020338-1.5137-0.023438zm4.0918 7.9902c-0.54902 0.0017-1.8645 0.0047-2.0176 0.0059-0.07124 0.0029-0.14164 0.0012-0.21289 0.0039 0.73748 8.68e-4 1.7437 0.0023 3.123 2e-3v-0.002034c-1.017 1.3e-5 3.4309-0.0021-0.63477 0-0.08421-0.0075-0.1726-0.0049-0.25781-0.0098z" style="paint-order:stroke markers fill"/>
    <path transform="matrix(.13229 0 0 .13229 12.7 16.012)" d="m33.016 64c-3.2548-0.17424-5.2797 4.1474-3.0879 6.5488 1.2841 1.5699 3.2038 1.5171 5.0781 1.4531-0.20912-5.53e-4 0.04069-9.82e-4 0.08398-2e-3 -0.02797 9.55e-4 -0.05599 9.98e-4 -0.08398 2e-3 0.50659 0.0013 1.6593 0.0023 2.9941 2e-3v-2e-3c0.04966-9.65e-4 4.3186-0.0052-1.0547-2e-3 -0.06805-5e-3 -0.14011-0.0025-0.20898-0.0059-0.29817 0.0013-1.5851 5e-3 -1.627 0.0059 0.55431-0.0189 1.1009-0.03182 1.627-0.0059 0.23159-9.93e-4 0.85186-0.0026 1.2637-0.0039v-7.9629c-0.36442 0.0051-0.72406 0.0033-1.0742-0.02539h-3.9102z" style="paint-order:stroke markers fill"/>
    <path transform="matrix(.13229 0 0 .13229 12.7 16.012)" d="m36.145 49.965c-1.1416-0.01119-2.3159 0.11404-3.4297 0.04492-3.2385 0.09439-5.0009 4.5976-2.5293 6.8203 0.84488 0.80504 1.8627 1.079 2.9375 1.1621 0.55287-0.0021 1.0488-0.0046 2.5-0.0078 0.42931-0.01591 0.8517-0.01658 1.2676-2e-3 0.42399-8.11e-4 0.06012-0.0011 0.53516-2e-3 0.19875-0.0093 0.38913-0.03838 0.57422-0.07813v-7.7188c-0.59733-0.15472-1.2196-0.21252-1.8555-0.21875zm0.74609 8.0176c-1.0043 0.0019-0.53176 3.41e-4 -1.2676 2e-3 -0.24114 0.0089-0.48046 0.0082-0.72266 0.01758 1.257-1.22e-4 1.7286 6.1e-4 3.0996 0v-0.002002c-0.4919 2.45e-4 -0.0713-2.95e-4 -0.63477 0-0.15502-0.01373-0.31635-0.01201-0.47461-0.01758zm-1.9902 0.01953c-0.6748 6.6e-5 -1.1048-0.0018-1.6641-2e-3 0.5456 0.03502 1.1038 0.02357 1.6641 2e-3zm-1.6641-0.001952c-0.03787-0.0024-0.07555-0.0049-0.11328-0.0078-1.366 0.0052-1.9543 0.0073 0.11328 0.0078zm-0.52148-7.9902c0.10043-0.0029 0.19758-0.01555 0.30078-0.0098h-0.5293c0.07502 0.0067 0.15288 0.0051 0.22852 0.0098z" style="paint-order:stroke markers fill"/>
    <path transform="matrix(.13229 0 0 .13229 12.7 16.012)" d="m38.001 35.992c-0.9134 0.03302-0.63945 0.08545-1.5143 0.0078h-3.4707c-3.4308-0.19223-5.3784 4.5384-2.8301 6.8301 1.3113 1.2495 3.0325 1.2373 4.752 1.1699-0.65742-7.28e-4 -0.08316-0.0018 0.21289-0.0039 0.67245-0.02765 1.338-0.04457 1.9805-0.0059 0.23868-7.19e-4 0.5468-0.0011 0.86914-2e-3l6.29e-4 -7.9961zm-0.86977 7.998c-0.54387 0.0016-1.8196 0.0047-1.9805 0.0059-0.07122 0.0029-0.14164 0.0011-0.21289 0.0039 0.74171 8.22e-4 1.7099 0.0023 3.0625 2e-3v-0.002034c-1.017 1.3e-5 3.4309-0.0021-0.63477 0-0.07657-0.0068-0.15697-0.0051-0.23438-0.0098z" style="paint-order:stroke markers fill"/>
    <path transform="matrix(.13229 0 0 .13229 13.229 16.012)" d="m29.039 12.977c-2.2303 0-4.0254 1.784-4.0254 4v7.4492c0 2.216 1.795 4 4.0254 4h8.6875c3.122-3.8972 7.9074-6.418 13.232-6.418h24.027v-5.0312c0-2.216-1.795-4-4.0254-4z" style="paint-order:markers fill stroke"/>
   </g>
   <g transform="translate(3.175 3.7042)">
    <path d="m24.871 17.462c0-0.803-0.64652-1.4495-1.4495-1.4495h-7.1551c-0.803 0-1.4495 0.64652-1.4495 1.4495v10.33c0 0.803 0.64652 1.4495 1.4495 1.4495h7.1551c0.803 0 1.4495-0.64652 1.4495-1.4495zm-0.79375 0.39119v9.5477c0 0.72652-0.32044 1.047-1.047 1.047h-6.3727c-0.72652 0-1.047-0.32044-1.047-1.047v-9.5477c0-0.72652 0.32044-1.047 1.047-1.047h6.3727c0.72652 0 1.047 0.32044 1.047 1.047z" style="paint-order:stroke markers fill"/>
    <path d="m19.978 26.331c-0.45387-0.02543-0.71164 0.60052-0.37452 0.90368 0.25671 0.24461 0.63186 0.12648 0.94988 0.15465 3.4422-0.0018-1.3174 0.0036 2.1247-0.0027 0.45216-0.02122 0.6459-0.66664 0.28272-0.93507-0.27006-0.20074-0.6241-0.09284-0.93625-0.12054h-2.0466z" style="paint-order:stroke markers fill"/>
    <path d="m19.978 24.479c-0.43058-0.02305-0.69858 0.54846-0.40862 0.86614 0.22989 0.28105 0.61418 0.1692 0.92847 0.19219 3.0198-0.0018-2.1623 0.0036 0.85732-0.0027 0.42885-0.02119 0.638-0.61366 0.32026-0.90096-0.24655-0.2391-0.60824-0.12949-0.91564-0.15465h-0.7818z" style="paint-order:stroke markers fill"/>
    <path d="m19.978 22.627c-0.45387-0.02543-0.71164 0.60052-0.37452 0.90368 0.25671 0.24461 0.63186 0.12648 0.94988 0.15465 3.4422-0.0018-1.3174 0.0036 2.1247-0.0027 0.45216-0.02122 0.6459-0.66664 0.28272-0.93507-0.27006-0.20074-0.6241-0.09284-0.93625-0.12054h-2.0466z" style="paint-order:stroke markers fill"/>
    <path d="m19.978 20.775c-0.45387-0.02543-0.71164 0.60052-0.37452 0.90368 0.25671 0.24461 0.63186 0.12648 0.94988 0.15465 3.4422-0.0018-1.3174 0.0036 2.1247-0.0027 0.45216-0.02122 0.6459-0.66664 0.28272-0.93507-0.27006-0.20074-0.6241-0.09284-0.93625-0.12054h-2.0466z" style="paint-order:stroke markers fill"/>
    <path d="m17.068 26.331c-0.45387-0.02543-0.71164 0.60052-0.37452 0.90368 0.25671 0.24461 0.63186 0.12648 0.94988 0.15465 3.4422-0.0018-2.9049 0.0036 0.53722-0.0027 0.45216-0.02122 0.6459-0.66664 0.28272-0.93507-0.27006-0.20074-0.6241-0.09284-0.93625-0.12054h-0.45906z" style="paint-order:stroke markers fill"/>
    <path d="m17.068 24.479c-0.43058-0.02305-0.69858 0.54846-0.40862 0.86614 0.22989 0.28105 0.61418 0.1692 0.92847 0.19219 3.0198-0.0018-2.4269 0.0036 0.59274-0.0027 0.42885-0.02119 0.638-0.61366 0.32026-0.90096-0.24655-0.2391-0.60824-0.12949-0.91564-0.15465h-0.51721z" style="paint-order:stroke markers fill"/>
    <path d="m17.068 22.627c-0.45387-0.02543-0.71164 0.60052-0.37452 0.90368 0.25671 0.24461 0.63186 0.12648 0.94988 0.15465 3.4422-0.0018-3.4341 0.0036 0.0081-0.0027 0.45216-0.02122 0.6459-0.66664 0.28272-0.93507-0.27006-0.20074-0.6241-0.09284-0.93625-0.12054h0.07011z" style="paint-order:stroke markers fill"/>
    <path d="m17.068 20.775c-0.45387-0.02543-0.71164 0.60052-0.37452 0.90368 0.25671 0.24461 0.63186 0.12648 0.94988 0.15465 3.4422-0.0018-2.9049 0.0036 0.53722-0.0027 0.45216-0.02122 0.6459-0.66664 0.28272-0.93507-0.27006-0.20074-0.6241-0.09284-0.93625-0.12054h-0.45906z" style="paint-order:stroke markers fill"/>
    <path d="m17.071 17.729h5.546c0.29506 0 0.53259 0.23601 0.53259 0.52917v0.98555c0 0.29316-0.23754 0.52917-0.53259 0.52917h-5.546c-0.29506 0-0.53259-0.23601-0.53259-0.52917v-0.98555c0-0.29316 0.23754-0.52917 0.53259-0.52917z" style="paint-order:markers fill stroke"/>
   </g>
  </g>
 </g>
</svg>
