<?xml version="1.0" encoding="UTF-8"?>
<!-- Created with Inkscape (http://www.inkscape.org/) -->
<svg width="128" height="128" version="1.1" viewBox="0 0 33.867 33.867" xmlns="http://www.w3.org/2000/svg" xmlns:cc="http://creativecommons.org/ns#" xmlns:dc="http://purl.org/dc/elements/1.1/" xmlns:rdf="http://www.w3.org/1999/02/22-rdf-syntax-ns#">
 <metadata>
  <rdf:RDF>
   <cc:Work rdf:about="">
    <dc:format>image/svg+xml</dc:format>
    <dc:type rdf:resource="http://purl.org/dc/dcmitype/StillImage"/>
    <dc:title/>
   </cc:Work>
  </rdf:RDF>
 </metadata>
 <g transform="translate(0 -263.13)">
  <g fill="#fff">
   <path d="m22.099 263.33c-0.0348 2e-3 -0.06986 8e-3 -0.1049 0.017l-0.74414 0.19947c-0.28029 0.0751-0.44562 0.36102-0.37052 0.64131l0.24701 0.9219a8.3108 8.3108 0 0 0-2.1807 1.2619l-0.67644-0.67644c-0.20519-0.20518-0.53534-0.20518-0.74052 0l-0.54467 0.54467c-0.20519 0.20518-0.20519 0.53533 0 0.74052l0.68006 0.68058a8.3108 8.3108 0 0 0-1.2573 2.1792l-0.93018-0.24908c-0.28029-0.0751-0.5662 0.0896-0.6413 0.37l-0.19947 0.74414c-0.07511 0.2803 0.09024 0.56671 0.37052 0.64182l0.93224 0.2496a8.3108 8.3108 0 0 0-0.10645 1.2573 8.3108 8.3108 0 0 0 0.1018 1.2583l-0.92759 0.24856c-0.28029 0.0751-0.44562 0.36153-0.37052 0.64182l0.19947 0.74414c0.07511 0.2803 0.36101 0.44562 0.6413 0.37052l0.92191-0.24701a8.3108 8.3108 0 0 0 1.2614 2.1813l-0.67593 0.67593c-0.20519 0.20518-0.20519 0.53533 0 0.74052l0.54467 0.54467c0.20519 0.20519 0.53534 0.20519 0.74052 0l0.68006-0.68006a8.3108 8.3108 0 0 0 2.1792 1.2573l-0.24908 0.93069c-0.07511 0.28029 0.09024 0.56569 0.37052 0.64079l0.74414 0.19947c0.28029 0.0751 0.56672-0.0897 0.64182-0.37001l0.2496-0.93275a8.3108 8.3108 0 0 0 1.2573 0.10697 8.3108 8.3108 0 0 0 1.2583-0.10232l0.24856 0.9281c0.07511 0.28029 0.36153 0.44512 0.64182 0.37001l0.74414-0.19947c0.28029-0.0751 0.44562-0.3605 0.37052-0.64079l-0.24701-0.92243a8.3108 8.3108 0 0 0 2.1807-1.2614l0.67644 0.67593c0.20519 0.20519 0.53533 0.20519 0.74052 0l0.54467-0.54467c0.20519-0.20519 0.20519-0.53534 0-0.74052l-0.68006-0.68006a8.3108 8.3108 0 0 0 1.2573-2.1792l0.93018 0.24908c0.28029 0.0751 0.5662-0.0902 0.6413-0.37052l0.19947-0.74414c0.07511-0.28029-0.09023-0.56671-0.37052-0.64182l-0.93224-0.2496a8.3108 8.3108 0 0 0 0.10646-1.2573 8.3108 8.3108 0 0 0-0.1018-1.2583l0.92759-0.24856c0.28029-0.0751 0.44562-0.36152 0.37052-0.64182l-0.19947-0.74414c-0.07511-0.28029-0.36101-0.44512-0.6413-0.37l-0.92191 0.24701a8.3108 8.3108 0 0 0-1.2614-2.1813l0.67593-0.67645c0.20519-0.20519 0.20519-0.53534 0-0.74052l-0.54467-0.54467c-0.20519-0.20518-0.53533-0.20518-0.74052 0l-0.68058 0.68006a8.3108 8.3108 0 0 0-2.1787-1.2573l0.24908-0.93017c0.07511-0.28029-0.09023-0.56621-0.37052-0.64131l-0.74414-0.19947c-0.03503-9e-3 -0.0701-0.0149-0.1049-0.017-0.24356-0.0149-0.4712 0.14231-0.53692 0.38757l-0.2496 0.93224a8.3108 8.3108 0 0 0-1.2573-0.10645 8.3108 8.3108 0 0 0-1.2583 0.1018l-0.24856-0.92759c-0.06572-0.24526-0.29336-0.40245-0.53692-0.38757zm2.0438 6.349a3.175 3.175 0 0 1 3.175 3.175 3.175 3.175 0 0 1-3.175 3.175 3.175 3.175 0 0 1-3.175-3.175 3.175 3.175 0 0 1 3.175-3.175z" style="paint-order:markers fill stroke"/>
   <path d="m9.2708 275.74 0.24471 0.97488c0.094857 0.37943-0.13417 0.76142-0.51355 0.85629l-1.0271 0.25716c-0.37938 0.0949-0.76129-0.13418-0.85614-0.51362l-0.23368-0.93422c-0.9753 0.3756-1.8591 0.8933-2.647 1.5175l0.69897 0.72255c0.27183 0.28115 0.26463 0.72574-0.016557 0.99763l-0.76101 0.73701c-0.28112 0.27188-0.72631 0.2639-0.99814-0.0172l-0.66933-0.69219c-0.66089 0.8238-1.1725 1.7272-1.5337 2.6385l0.96643 0.27578c0.37596 0.10757 0.59214 0.49679 0.48459 0.87283l-0.2909 1.0183c-0.10754 0.37605-0.49671 0.59225-0.87268 0.48469l-0.92576-0.26476c-0.16437 1.0093-0.15655 2.0512-0.008938 3.0529l0.9747-0.24478c0.37937-0.0949 0.76129 0.1342 0.85614 0.51364l0.25712 1.0273c0.094856 0.37943-0.13417 0.7614-0.51355 0.85629l-0.93403 0.23371c0.37553 0.97549 0.89313 1.8594 1.5172 2.6475l0.72241-0.69909c0.28112-0.27188 0.72562-0.26468 0.99745 0.0166l0.73689 0.76114c0.27183 0.28117 0.26385 0.72644-0.017219 0.99832l-0.69208 0.66946c0.82367 0.66101 1.7269 1.1727 2.638 1.534l0.27573-0.96661c0.10754-0.37604 0.49671-0.59225 0.87268-0.48468l1.0181 0.29094c0.37597 0.10755 0.59213 0.4968 0.48459 0.87286l-0.2647 0.92591c1.0091 0.1644 2.0509 0.15659 3.0523 9e-3l-0.24471-0.97488c-0.09486-0.37944 0.13417-0.76144 0.51354-0.85629l1.0271-0.25717c0.37938-0.0949 0.76129 0.13419 0.85614 0.51365l0.23368 0.93419c0.9753-0.37558 1.8591-0.89329 2.647-1.5175l-0.69898-0.72255c-0.27183-0.28116-0.26462-0.72574 0.01656-0.99762l0.76101-0.73701c0.28112-0.2719 0.72631-0.2639 0.99814 0.0172l0.66933 0.6922c0.6609-0.82381 1.1725-1.7272 1.5337-2.6385l-0.96643-0.27578c-0.37597-0.10756-0.59214-0.4968-0.48459-0.87285l0.2909-1.0183c0.10752-0.37604 0.49671-0.59225 0.87268-0.48468l0.92576 0.26475c0.16437-1.0093 0.15656-2.0512 0.0089-3.0529l-0.9747 0.24476c-0.37937 0.0949-0.7613-0.1342-0.85614-0.51365l-0.25712-1.0272c-0.09486-0.37944 0.13417-0.76143 0.51354-0.8563l0.93404-0.23372c-0.37553-0.97548-0.89314-1.8594-1.5172-2.6475l-0.72241 0.6991c-0.28112 0.27187-0.72562 0.26467-0.99745-0.0166l-0.73688-0.76115c-0.27183-0.28117-0.26385-0.72644 0.01722-0.99833l0.69208-0.66944c-0.82367-0.66101-1.7269-1.1727-2.638-1.534l-0.27573 0.96659c-0.10754 0.37605-0.49671 0.59225-0.87268 0.48469l-1.0181-0.29095c-0.37597-0.10756-0.59213-0.49681-0.48459-0.87284l0.2647-0.92591c-1.0283-0.15829-2.06-0.15249-3.0523-9e-3zm1.511 6.2367c2.339 0 4.2352 1.8965 4.2352 4.236 0 2.3395-1.8962 4.236-4.2352 4.236-2.339 0-4.2352-1.8965-4.2352-4.236 0-2.3395 1.8962-4.236 4.2352-4.236z" style="paint-order:stroke markers fill"/>
  </g>
 </g>
</svg>
