<?xml version="1.0" encoding="UTF-8"?>
<!-- Created with Inkscape (http://www.inkscape.org/) -->
<svg width="128" height="128" version="1.1" viewBox="0 0 33.867 33.867" xmlns="http://www.w3.org/2000/svg" xmlns:cc="http://creativecommons.org/ns#" xmlns:dc="http://purl.org/dc/elements/1.1/" xmlns:rdf="http://www.w3.org/1999/02/22-rdf-syntax-ns#">
 <metadata>
  <rdf:RDF>
   <cc:Work rdf:about="">
    <dc:format>image/svg+xml</dc:format>
    <dc:type rdf:resource="http://purl.org/dc/dcmitype/StillImage"/>
    <dc:title/>
   </cc:Work>
  </rdf:RDF>
 </metadata>
 <g transform="translate(0 -263.13)">
  <g fill="#fff">
   <path d="m5.6585 266.12c-1.4416 0-2.6023 1.1607-2.6023 2.6023v22.683c0 1.4416 1.1607 2.6023 2.6023 2.6023h22.55c1.4416 0 2.6023-1.1607 2.6023-2.6023v-22.683c0-1.4416-1.1607-2.6023-2.6023-2.6023zm0.70229 1.425h21.145c1.3043 0 1.8796 0.57529 1.8796 1.8796v21.278c0 1.3043-0.57528 1.8796-1.8796 1.8796l-21.145 5e-4c-1.3043 3e-5 -1.8796-0.57578-1.8796-1.8801v-21.278c0-1.3043 0.57528-1.8796 1.8796-1.8796z" style="paint-order:stroke markers fill"/>
   <g transform="translate(1.2802 1.6448)">
    <path d="m4.6438 286.68h22.018v2.7082h-22.018z" opacity=".2" style="paint-order:markers stroke fill"/>
    <rect x="21.214" y="271.02" width="5.3295" height="15.647" opacity=".8" style="paint-order:markers stroke fill"/>
    <path d="m12.649 270.71v2.6252l-8.226-4e-5v16.276h22.46v-18.901zm0.52493 0.52504h2.2165v2.1001l-2.2165 4e-5zm2.7416 0h2.217v2.1001h-2.217zm2.7421 0h2.217v2.1001h-2.217zm2.7421 0h2.2165v2.1001h-2.2165zm2.7416 0h2.217v2.1001h-2.217zm-16.451 2.6252h2.2165v2.1001h-2.2165zm2.7416 0h2.2171l-1e-4 2.1001h-2.217zm2.7421 0h2.2165v2.1001h-2.2165zm2.7416 0h2.217v2.1001h-2.217zm2.7421 0h2.217v2.1001h-2.217zm2.7421 0h2.2165v2.1001h-2.2165zm2.7416 0h2.217v2.1001h-2.217zm-16.451 2.6252h2.2165v2.1001h-2.2165zm2.7416 0h2.217v2.1001h-2.217zm2.7421 0h2.2165v2.1001h-2.2165zm2.7416 0h2.217v2.1001h-2.217zm2.7421 0h2.217v2.1001h-2.217zm2.7421 0h2.2165v2.1001h-2.2165zm2.7416 0h2.217v2.1001h-2.217zm-16.451 2.6252h2.2165v2.1001h-2.2165zm2.7416 0h2.217v2.1001h-2.217zm2.7421 0h2.2165v2.1001h-2.2165zm2.7416 0h2.217v2.1001h-2.217zm2.7421 0h2.217v2.1001h-2.217zm2.7421 0h2.2165v2.1001h-2.2165zm2.7416 0h2.217v2.1001h-2.217zm-16.451 2.6252h2.2165v2.1001h-2.2165zm2.7416 0h2.217v2.1001h-2.217zm2.7421 0h2.2165v2.1001h-2.2165zm2.7416 0h2.217v2.1001h-2.217zm2.7421 0h2.217v2.1001h-2.217zm2.7421 0h2.2165v2.1001h-2.2165zm2.7416 0h2.217v2.1001h-2.217zm-16.451 2.6252h2.2165v2.1001h-2.2165zm2.7416 0h2.217v2.1001h-2.217zm2.7421 0h2.2165v2.1001h-2.2165zm2.7416 0h2.217v2.1001h-2.217zm2.7421 0h2.217v2.1001h-2.217zm2.7421 0h2.2165v2.1001h-2.2165zm2.7416 0h2.217v2.1001h-2.217zm-19.193 2.6252h2.2173v2.1001h-2.217zm2.7424 0h2.2165v2.1001h-2.2165zm2.7416 0h2.217v2.1001h-2.217zm2.7421 0h2.2165v2.1001h-2.2165zm2.7416 0h2.217v2.1001h-2.217zm2.7421 0h2.217v2.1001h-2.217zm2.7421 0h2.2165v2.1001h-2.2165zm2.7416 0h2.217v2.1001h-2.217z" style="paint-order:markers stroke fill"/>
   </g>
   <path d="m5.6587 266.12c-1.4416 0-2.6028 1.1607-2.6026 2.6023l3.083e-4 2.2902h27.754l-4.64e-4 -2.2902c-2.92e-4 -1.4416-1.1602-2.6023-2.6018-2.6023z" style="paint-order:stroke markers fill"/>
  </g>
 </g>
</svg>
