<?xml version="1.0" encoding="UTF-8"?>
<!-- Created with Inkscape (http://www.inkscape.org/) -->
<svg width="128" height="128" version="1.1" viewBox="0 0 33.867 33.867" xmlns="http://www.w3.org/2000/svg" xmlns:cc="http://creativecommons.org/ns#" xmlns:dc="http://purl.org/dc/elements/1.1/" xmlns:rdf="http://www.w3.org/1999/02/22-rdf-syntax-ns#">
 <metadata>
  <rdf:RDF>
   <cc:Work rdf:about="">
    <dc:format>image/svg+xml</dc:format>
    <dc:type rdf:resource="http://purl.org/dc/dcmitype/StillImage"/>
    <dc:title/>
   </cc:Work>
  </rdf:RDF>
 </metadata>
 <g transform="translate(0 -263.13)">
  <g fill="#fff">
   <g transform="matrix(.43852 .5042 -.5042 .43852 150.49 142.4)">
    <path d="m22.099 263.33c-0.0348 2e-3 -0.06986 8e-3 -0.1049 0.017l-0.74414 0.19947c-0.28029 0.0751-0.44562 0.36102-0.37052 0.64131l0.24701 0.9219a8.3108 8.3108 0 0 0-2.1807 1.2619l-0.67644-0.67644c-0.20519-0.20518-0.53534-0.20518-0.74052 0l-0.54467 0.54467c-0.20519 0.20518-0.20519 0.53533 0 0.74052l0.68006 0.68058a8.3108 8.3108 0 0 0-1.2573 2.1792l-0.93018-0.24908c-0.28029-0.0751-0.5662 0.0896-0.6413 0.37l-0.19947 0.74414c-0.07511 0.2803 0.09024 0.56671 0.37052 0.64182l0.93224 0.2496a8.3108 8.3108 0 0 0-0.10645 1.2573 8.3108 8.3108 0 0 0 0.1018 1.2583l-0.92759 0.24856c-0.28029 0.0751-0.44562 0.36153-0.37052 0.64182l0.19947 0.74414c0.07511 0.2803 0.36101 0.44562 0.6413 0.37052l0.92191-0.24701a8.3108 8.3108 0 0 0 1.2614 2.1813l-0.67593 0.67593c-0.20519 0.20518-0.20519 0.53533 0 0.74052l0.54467 0.54467c0.20519 0.20519 0.53534 0.20519 0.74052 0l0.68006-0.68006a8.3108 8.3108 0 0 0 2.1792 1.2573l-0.24908 0.93069c-0.07511 0.28029 0.09024 0.56569 0.37052 0.64079l0.74414 0.19947c0.28029 0.0751 0.56672-0.0897 0.64182-0.37001l0.2496-0.93275a8.3108 8.3108 0 0 0 1.2573 0.10697 8.3108 8.3108 0 0 0 1.2583-0.10232l0.24856 0.9281c0.07511 0.28029 0.36153 0.44512 0.64182 0.37001l0.74414-0.19947c0.28029-0.0751 0.44562-0.3605 0.37052-0.64079l-0.24701-0.92243a8.3108 8.3108 0 0 0 2.1807-1.2614l0.67644 0.67593c0.20519 0.20519 0.53533 0.20519 0.74052 0l0.54467-0.54467c0.20519-0.20519 0.20519-0.53534 0-0.74052l-0.68006-0.68006a8.3108 8.3108 0 0 0 1.2573-2.1792l0.93018 0.24908c0.28029 0.0751 0.5662-0.0902 0.6413-0.37052l0.19947-0.74414c0.07511-0.28029-0.09023-0.56671-0.37052-0.64182l-0.93224-0.2496a8.3108 8.3108 0 0 0 0.10646-1.2573 8.3108 8.3108 0 0 0-0.1018-1.2583l0.92759-0.24856c0.28029-0.0751 0.44562-0.36152 0.37052-0.64182l-0.19947-0.74414c-0.07511-0.28029-0.36101-0.44512-0.6413-0.37l-0.92191 0.24701a8.3108 8.3108 0 0 0-1.2614-2.1813l0.67593-0.67645c0.20519-0.20519 0.20519-0.53534 0-0.74052l-0.54467-0.54467c-0.20519-0.20518-0.53533-0.20518-0.74052 0l-0.68058 0.68006a8.3108 8.3108 0 0 0-2.1787-1.2573l0.24908-0.93017c0.07511-0.28029-0.09023-0.56621-0.37052-0.64131l-0.74414-0.19947c-0.03503-9e-3 -0.0701-0.0149-0.1049-0.017-0.24356-0.0149-0.4712 0.14231-0.53692 0.38757l-0.2496 0.93224a8.3108 8.3108 0 0 0-1.2573-0.10645 8.3108 8.3108 0 0 0-1.2583 0.1018l-0.24856-0.92759c-0.06572-0.24526-0.29336-0.40245-0.53692-0.38757zm2.0438 6.349a3.175 3.175 0 0 1 3.175 3.175 3.175 3.175 0 0 1-3.175 3.175 3.175 3.175 0 0 1-3.175-3.175 3.175 3.175 0 0 1 3.175-3.175z" style="paint-order:markers fill stroke"/>
    <path d="m9.2708 275.74 0.24471 0.97488c0.094857 0.37943-0.13417 0.76142-0.51355 0.85629l-1.0271 0.25716c-0.37938 0.0949-0.76129-0.13418-0.85614-0.51362l-0.23368-0.93422c-0.9753 0.3756-1.8591 0.8933-2.647 1.5175l0.69897 0.72255c0.27183 0.28115 0.26463 0.72574-0.016557 0.99763l-0.76101 0.73701c-0.28112 0.27188-0.72631 0.2639-0.99814-0.0172l-0.66933-0.69219c-0.66089 0.8238-1.1725 1.7272-1.5337 2.6385l0.96643 0.27578c0.37596 0.10757 0.59214 0.49679 0.48459 0.87283l-0.2909 1.0183c-0.10754 0.37605-0.49671 0.59225-0.87268 0.48469l-0.92576-0.26476c-0.16437 1.0093-0.15655 2.0512-0.008938 3.0529l0.9747-0.24478c0.37937-0.0949 0.76129 0.1342 0.85614 0.51364l0.25712 1.0273c0.094856 0.37943-0.13417 0.7614-0.51355 0.85629l-0.93403 0.23371c0.37553 0.97549 0.89313 1.8594 1.5172 2.6475l0.72241-0.69909c0.28112-0.27188 0.72562-0.26468 0.99745 0.0166l0.73689 0.76114c0.27183 0.28117 0.26385 0.72644-0.017219 0.99832l-0.69208 0.66946c0.82367 0.66101 1.7269 1.1727 2.638 1.534l0.27573-0.96661c0.10754-0.37604 0.49671-0.59225 0.87268-0.48468l1.0181 0.29094c0.37597 0.10755 0.59213 0.4968 0.48459 0.87286l-0.2647 0.92591c1.0091 0.1644 2.0509 0.15659 3.0523 9e-3l-0.24471-0.97488c-0.09486-0.37944 0.13417-0.76144 0.51354-0.85629l1.0271-0.25717c0.37938-0.0949 0.76129 0.13419 0.85614 0.51365l0.23368 0.93419c0.9753-0.37558 1.8591-0.89329 2.647-1.5175l-0.69898-0.72255c-0.27183-0.28116-0.26462-0.72574 0.01656-0.99762l0.76101-0.73701c0.28112-0.2719 0.72631-0.2639 0.99814 0.0172l0.66933 0.6922c0.6609-0.82381 1.1725-1.7272 1.5337-2.6385l-0.96643-0.27578c-0.37597-0.10756-0.59214-0.4968-0.48459-0.87285l0.2909-1.0183c0.10752-0.37604 0.49671-0.59225 0.87268-0.48468l0.92576 0.26475c0.16437-1.0093 0.15656-2.0512 0.0089-3.0529l-0.9747 0.24476c-0.37937 0.0949-0.7613-0.1342-0.85614-0.51365l-0.25712-1.0272c-0.09486-0.37944 0.13417-0.76143 0.51354-0.8563l0.93404-0.23372c-0.37553-0.97548-0.89314-1.8594-1.5172-2.6475l-0.72241 0.6991c-0.28112 0.27187-0.72562 0.26467-0.99745-0.0166l-0.73688-0.76115c-0.27183-0.28117-0.26385-0.72644 0.01722-0.99833l0.69208-0.66944c-0.82367-0.66101-1.7269-1.1727-2.638-1.534l-0.27573 0.96659c-0.10754 0.37605-0.49671 0.59225-0.87268 0.48469l-1.0181-0.29095c-0.37597-0.10756-0.59213-0.49681-0.48459-0.87284l0.2647-0.92591c-1.0283-0.15829-2.06-0.15249-3.0523-9e-3zm1.511 6.2367c2.339 0 4.2352 1.8965 4.2352 4.236 0 2.3395-1.8962 4.236-4.2352 4.236-2.339 0-4.2352-1.8965-4.2352-4.236 0-2.3395 1.8962-4.236 4.2352-4.236z" style="paint-order:stroke markers fill"/>
   </g>
   <path d="m2.899 263.13c-1.606 0-2.899 1.293-2.899 2.899v28.069c0 1.606 1.2931 2.899 2.899 2.899h28.069c1.606 0 2.8991-1.293 2.8991-2.899v-28.069c0-1.606-1.2931-2.899-2.8991-2.899zm0.78238 1.5875h26.504c1.453 0 2.0939 0.64088 2.0939 2.0939v26.504c0 1.453-0.64088 2.0939-2.0939 2.0939h-26.504c-1.453 0-2.0939-0.64089-2.0939-2.0939v-26.504c0-1.453 0.64088-2.0939 2.0939-2.0939z" style="paint-order:stroke markers fill"/>
   <g transform="matrix(.48545 -.41623 .41623 .48545 -113.29 165.14)">
    <path d="m22.099 263.33c-0.0348 2e-3 -0.06986 8e-3 -0.1049 0.017l-0.74414 0.19947c-0.28029 0.0751-0.44562 0.36102-0.37052 0.64131l0.24701 0.9219a8.3108 8.3108 0 0 0-2.1807 1.2619l-0.67644-0.67644c-0.20519-0.20518-0.53534-0.20518-0.74052 0l-0.54467 0.54467c-0.20519 0.20518-0.20519 0.53533 0 0.74052l0.68006 0.68058a8.3108 8.3108 0 0 0-1.2573 2.1792l-0.93018-0.24908c-0.28029-0.0751-0.5662 0.0896-0.6413 0.37l-0.19947 0.74414c-0.07511 0.2803 0.09024 0.56671 0.37052 0.64182l0.93224 0.2496a8.3108 8.3108 0 0 0-0.10645 1.2573 8.3108 8.3108 0 0 0 0.1018 1.2583l-0.92759 0.24856c-0.28029 0.0751-0.44562 0.36153-0.37052 0.64182l0.19947 0.74414c0.07511 0.2803 0.36101 0.44562 0.6413 0.37052l0.92191-0.24701a8.3108 8.3108 0 0 0 1.2614 2.1813l-0.67593 0.67593c-0.20519 0.20518-0.20519 0.53533 0 0.74052l0.54467 0.54467c0.20519 0.20519 0.53534 0.20519 0.74052 0l0.68006-0.68006a8.3108 8.3108 0 0 0 2.1792 1.2573l-0.24908 0.93069c-0.07511 0.28029 0.09024 0.56569 0.37052 0.64079l0.74414 0.19947c0.28029 0.0751 0.56672-0.0897 0.64182-0.37001l0.2496-0.93275a8.3108 8.3108 0 0 0 1.2573 0.10697 8.3108 8.3108 0 0 0 1.2583-0.10232l0.24856 0.9281c0.07511 0.28029 0.36153 0.44512 0.64182 0.37001l0.74414-0.19947c0.28029-0.0751 0.44562-0.3605 0.37052-0.64079l-0.24701-0.92243a8.3108 8.3108 0 0 0 2.1807-1.2614l0.67644 0.67593c0.20519 0.20519 0.53533 0.20519 0.74052 0l0.54467-0.54467c0.20519-0.20519 0.20519-0.53534 0-0.74052l-0.68006-0.68006a8.3108 8.3108 0 0 0 1.2573-2.1792l0.93018 0.24908c0.28029 0.0751 0.5662-0.0902 0.6413-0.37052l0.19947-0.74414c0.07511-0.28029-0.09023-0.56671-0.37052-0.64182l-0.93224-0.2496a8.3108 8.3108 0 0 0 0.10646-1.2573 8.3108 8.3108 0 0 0-0.1018-1.2583l0.92759-0.24856c0.28029-0.0751 0.44562-0.36152 0.37052-0.64182l-0.19947-0.74414c-0.07511-0.28029-0.36101-0.44512-0.6413-0.37l-0.92191 0.24701a8.3108 8.3108 0 0 0-1.2614-2.1813l0.67593-0.67645c0.20519-0.20519 0.20519-0.53534 0-0.74052l-0.54467-0.54467c-0.20519-0.20518-0.53533-0.20518-0.74052 0l-0.68058 0.68006a8.3108 8.3108 0 0 0-2.1787-1.2573l0.24908-0.93017c0.07511-0.28029-0.09023-0.56621-0.37052-0.64131l-0.74414-0.19947c-0.03503-9e-3 -0.0701-0.0149-0.1049-0.017-0.24356-0.0149-0.4712 0.14231-0.53692 0.38757l-0.2496 0.93224a8.3108 8.3108 0 0 0-1.2573-0.10645 8.3108 8.3108 0 0 0-1.2583 0.1018l-0.24856-0.92759c-0.06572-0.24526-0.29336-0.40245-0.53692-0.38757zm2.0438 6.349a3.175 3.175 0 0 1 3.175 3.175 3.175 3.175 0 0 1-3.175 3.175 3.175 3.175 0 0 1-3.175-3.175 3.175 3.175 0 0 1 3.175-3.175z" style="paint-order:markers fill stroke"/>
    <path d="m35.994 276.25a8.4667 8.4667 0 0 0-0.97152 0.0615l0.26768 0.95704c0.10761 0.37603-0.10835 0.76486-0.48421 0.87282l-1.0185 0.29094c-0.37586 0.10796-0.76484-0.10881-0.87282-0.48473l-0.27905-0.99994a8.4667 8.4667 0 0 0-1.6826 0.97927l0.70642 0.69195c0.2812 0.27184 0.28858 0.71645 0.01707 0.99787l-0.73639 0.76171c-0.27152 0.28136-0.71692 0.28811-0.99839 0.0165l-0.73639-0.72192a8.4667 8.4667 0 0 0-0.97307 1.6857l0.9617 0.24702c0.37945 0.0948 0.60811 0.47577 0.51366 0.85524l-0.25735 1.0273c-0.09443 0.37948-0.47621 0.60858-0.85576 0.51418l-1.001-0.25787a8.4667 8.4667 0 0 0-0.06615 0.97204 8.4667 8.4667 0 0 0 0.06201 0.97617l0.95912-0.26769c0.14101-0.0402 0.28374-0.0347 0.41289 7e-3v-5.3e-4c0.21521 0.07 0.39192 0.24258 0.4594 0.47749l0.29094 1.018c0.10796 0.37585-0.10818 0.76575-0.48421 0.87333l-1.0005 0.27854a8.4667 8.4667 0 0 0 0.98082 1.6831l0.69092-0.70642c0.1699-0.17573 0.40758-0.24455 0.63045-0.20515 0.13372 0.0236 0.26239 0.0863 0.36794 0.1881l0.76068 0.73639c0.28143 0.27152 0.28943 0.71668 0.01757 0.99787l-0.72089 0.73536a8.4667 8.4667 0 0 0 1.6852 0.97151l0.24598-0.95808c0.09483-0.37942 0.47627-0.60806 0.85576-0.51366l1.0273 0.25683c0.37949 0.0944 0.6085 0.47683 0.51366 0.85628l-0.25632 0.99632a8.4667 8.4667 0 0 0 0.9679 0.0656 8.4667 8.4667 0 0 0 0.97565-0.062l-0.25632-0.99891c-0.09483-0.37943 0.13366-0.76136 0.51315-0.85576l1.0273-0.25735c0.10673-0.0263 0.21352-0.0275 0.31419-7e-3l5.29e-4 -5.3e-4v-5.2e-4c0.03355 7e-3 0.06629 0.0168 0.09819 0.0284 0.21278 0.0773 0.38384 0.2563 0.44287 0.49351l0.2465 0.96014a8.4667 8.4667 0 0 0 1.681-0.97875l-0.71778-0.73328c-0.27184-0.2812-0.26489-0.72635 0.01654-0.99788l0.76119-0.73587c0.17588-0.16965 0.41579-0.23097 0.63717-0.18397 0.13283 0.0282 0.25887 0.095 0.3607 0.20051l0.68936 0.70383a8.4667 8.4667 0 0 0 0.971-1.6831l-0.98547-0.2744c-0.37601-0.1076-0.59268-0.49697-0.48472-0.87282l0.29094-1.0185c0.10795-0.37585 0.49691-0.59219 0.87282-0.48421l0.94516 0.26407a8.4667 8.4667 0 0 0 0.06666-0.97255 8.4667 8.4667 0 0 0-0.0615-0.971l-0.99632 0.25631c-0.37943 0.0948-0.76132-0.13367-0.85576-0.51314l-0.25735-1.0278c-0.09444-0.37948 0.13424-0.76034 0.51366-0.85524l0.96015-0.24598a8.4667 8.4667 0 0 0-0.97824-1.6821l-0.73329 0.7183c-0.28119 0.27187-0.72634 0.26541-0.99787-0.016l-0.73691-0.76171c-0.27153-0.28143-0.2636-0.72602 0.01757-0.99787l0.70538-0.6904a8.4667 8.4667 0 0 0-1.6836-0.97306l-0.27544 0.98857c-0.10759 0.37602-0.49747 0.59268-0.87333 0.48472l-1.018-0.29094c-0.37589-0.10792-0.5918-0.49676-0.48423-0.87277l0.2651-0.9493a8.4667 8.4667 0 0 0-0.97668-0.0672zm-6.0436 2.5399a8.4667 8.4667 0 0 0-0.04496 0.045zm6.0436 2.7518a3.175 3.175 0 0 1 3.175 3.175 3.175 3.175 0 0 1-3.175 3.175 3.175 3.175 0 0 1-3.175-3.175 3.175 3.175 0 0 1 3.175-3.175zm-8.1308 0.82837a8.4667 8.4667 0 0 0-0.05426 0.20102zm5.8482 10.499a8.4667 8.4667 0 0 0 0.04341 0.0114z" style="paint-order:markers fill stroke"/>
   </g>
  </g>
 </g>
</svg>
