<?xml version="1.0" encoding="UTF-8"?>
<!-- Created with Inkscape (http://www.inkscape.org/) -->
<svg width="128" height="128" enable-background="new" version="1.1" viewBox="0 0 33.867 33.867" xmlns="http://www.w3.org/2000/svg" xmlns:cc="http://creativecommons.org/ns#" xmlns:dc="http://purl.org/dc/elements/1.1/" xmlns:rdf="http://www.w3.org/1999/02/22-rdf-syntax-ns#">
 <metadata>
  <rdf:RDF>
   <cc:Work rdf:about="">
    <dc:format>image/svg+xml</dc:format>
    <dc:type rdf:resource="http://purl.org/dc/dcmitype/StillImage"/>
    <dc:title/>
   </cc:Work>
  </rdf:RDF>
 </metadata>
 <g transform="translate(0 -263.13)">
  <g fill="#fff">
   <path d="m17.146 286.14 6.0524 8.4733h-11.983z" style="paint-order:markers stroke fill"/>
   <path transform="matrix(.26458 0 0 .26458 0 263.13)" d="m49.023 5.9336c-3.9581 0-7.1842 1.7166-9.25 4.9531h-0.0078v0.0078c-1.9944 3.2325-2.916 7.7545-2.916 13.566 0 5.8119 0.9214 10.336 2.916 13.568v0.0078l0.0078 0.0078c2.0658 3.2364 5.2919 4.9531 9.25 4.9531 3.9581 0 7.1585-1.7247 9.1602-4.9688 2.0586-3.2332 3.0059-7.7582 3.0059-13.566 0-5.8114-0.94489-10.335-3.0059-13.568l-0.0078-0.0078c-2.0021-3.2379-5.1982-4.9531-9.1524-4.9531zm23.504 1.3281-27.35 67.928h9.6836l27.352-67.928h-1.5664zm-23.504 6.7695c0.95998 0 1.5508 0.4231 2.1543 1.9043 0.58105 1.4262 0.96094 4.3413 0.96094 8.5254 0 4.1841-0.37988 7.109-0.96094 8.5352-0.60345 1.4812-1.1943 1.9043-2.1543 1.9043-0.95998 0-1.5528-0.4231-2.1562-1.9043-0.58106-1.4262-0.9668-4.351-0.9668-8.5352 0-4.1841 0.38574-7.0992 0.9668-8.5254 0.60344-1.4812 1.1963-1.9043 2.1562-1.9043zm29.91 25.52c-3.9581 0-7.1822 1.7166-9.248 4.9531v0.0078l-0.0078 0.0078c-1.9946 3.2326-2.9082 7.7545-2.9082 13.566 0 5.8119 0.91358 10.328 2.9082 13.561l0.0078 0.0078v0.0078c2.0658 3.2365 5.29 4.9531 9.248 4.9531 3.9581 0 7.1683-1.7246 9.1699-4.9688 2.0586-3.2331 3.0039-7.7523 3.0039-13.561 0-5.8082-0.94529-10.333-3.0039-13.566-2.0017-3.2441-5.2119-4.9688-9.1699-4.9688zm0 8.0977c0.95998 0 1.5528 0.4231 2.1562 1.9043 0.58105 1.4262 0.9668 4.3491 0.9668 8.5332 0 4.1841-0.38574 7.0992-0.9668 8.5254-0.60345 1.4812-1.1963 1.9062-2.1562 1.9062-0.95998 0-1.543-0.42505-2.1465-1.9062-0.58105-1.4262-0.9668-4.3413-0.9668-8.5254 0-4.1841 0.38574-7.107 0.9668-8.5332 0.60345-1.4812 1.1865-1.9043 2.1465-1.9043z"/>
  </g>
 </g>
</svg>
