<?xml version="1.0" encoding="UTF-8"?>
<!-- Created with Inkscape (http://www.inkscape.org/) -->
<svg width="128" height="128" version="1.1" viewBox="0 0 33.867 33.867" xmlns="http://www.w3.org/2000/svg" xmlns:cc="http://creativecommons.org/ns#" xmlns:dc="http://purl.org/dc/elements/1.1/" xmlns:rdf="http://www.w3.org/1999/02/22-rdf-syntax-ns#">
 <metadata>
  <rdf:RDF>
   <cc:Work rdf:about="">
    <dc:format>image/svg+xml</dc:format>
    <dc:type rdf:resource="http://purl.org/dc/dcmitype/StillImage"/>
    <dc:title/>
   </cc:Work>
  </rdf:RDF>
 </metadata>
 <g transform="translate(0 -263.13)">
  <g transform="matrix(.99999 0 0 .99999 1.0587 263.14)" fill="#fff">
   <path transform="scale(.26459)" d="m91.812 41.689c0.44753 1.3144 0.67705 2.6497 0.68555 3.9883 9.52e-4 11.861-16.979 21.476-37.926 21.477-20.947-1.23e-4 -37.927-9.6156-37.926-21.477 0.0088-1.3094 0.22916-2.6156 0.6582-3.9023-0.33125 0.49484-0.65778 0.99433-0.9707 1.5059-24.737 42.351 1.7259 78.269 24.727 82.992 3.869 1.1086 8.6201 1.7115 13.512 1.7148 4.928-2e-3 9.7137-0.612 13.6-1.7344 22.981-4.7978 49.344-40.678 24.639-82.975-0.32918-0.55848-0.66524-1.0661-0.99805-1.5898z" stroke-width="1.1891" style="paint-order:markers stroke fill"/>
   <path transform="matrix(.26459 0 0 .26459 -.00011254 -.00243)" d="m54.574 26.359a36.031 19.328 0 0 0-10.881 0.9082 19.2 19.328 0 0 1 0.72266 3.5684 32.517 15.656 0 0 1 10.158-0.80469 32.517 15.656 0 0 1 32.518 15.656 32.517 15.656 0 0 1-32.518 15.656 32.517 15.656 0 0 1-31.002-10.988 32.516 15.655 0 0 1-0.04883-0.07031 32.517 15.656 0 0 1-0.70117-1.3105 32.516 15.655 0 0 1-0.125-0.26758 32.517 15.656 0 0 1-0.36524-1.1406 32.516 15.655 0 0 1-0.11914-0.47266 32.517 15.656 0 0 1-0.15625-1.4062 32.517 15.656 0 0 1 0.13281-1.2793l-0.0293 2e-3c0.30504-2.0776 1.8235-7.9089 1.9902-8.6113 0.03583-0.15094-0.07682-0.20743-0.27148-0.20117a36.031 19.328 0 0 0-5.3359 10.09 36.031 19.328 0 0 0 36.031 19.328 36.031 19.328 0 0 0 36.029-19.328 36.031 19.328 0 0 0-36.029-19.328z" stroke-width="4.4945" style="paint-order:markers stroke fill"/>
   <path transform="matrix(.26459 0 0 .26459 -.00011254 -.00243)" d="m99.363 0.0019531c-1.3585 0.0021475-2.9815 0.86255-4.4629 3.918l-34.207 57.123a32.516 15.655 0 0 0 6.0508-0.86133l30.891-51.582c0.62656-1.2506 1.5657-3.2113 2.9805-1.1289l18.947 19.254c1.567 0.88395 4.6928-0.46566 4.4199-3.3516l-21.566-21.955s-1.306-1.4169-3.0527-1.4141z" stroke-width="1.1891" style="paint-order:markers stroke fill"/>
   <path d="m6.7029 3.0248c-3.1173 0-5.6447 2.5442-5.6447 5.6824 0.00255 1.8079 0.85965 3.5065 2.3084 4.575 0.11538-0.24879 0.24089-0.49903 0.36897-0.74983 0.045908-0.08984 0.091993-0.17967 0.13953-0.26975 0.14207-0.26887 0.28873-0.53829 0.44701-0.80926 0.38918-0.63626 0.83071-1.2232 1.34-1.757 0.28296-0.19497 0.76113-0.37414 0.72761-0.22738v5.292e-4 3.8246c-0.06074-0.0045-0.12139-0.01005-0.1819-0.01705-0.00116-0.0019-0.00243-0.0028-0.00362-0.0047 0.23727 0.3821 0.58707 0.74796 1.047 1.0847 2.8893-0.28379 5.0932-2.7274 5.0959-5.6498 0-3.1381-2.5269-5.6819-5.6442-5.6819zm-0.31316 1.0909v3.8293l-2.6862-2.7043c0.7498-0.65952 1.6929-1.0544 2.6862-1.125zm0.62736 0.00414c0.9932 0.0684 1.9366 0.46165 2.6877 1.1193l-2.6877 2.7058zm-3.759 1.5658 2.6882 2.7058h-3.7998c0.068-0.9998 0.45826-1.9497 1.1116-2.7058zm6.888 0.00259c0.6553 0.7545 1.0479 1.7035 1.1183 2.7032h-3.8039zm-8.0037 3.3342h3.8045l-2.6867 2.7043c-0.65521-0.7548-1.0476-1.7044-1.1178-2.7043zm5.3181 0h3.7993c-0.0681 0.9996-0.45838 1.9498-1.1116 2.7058zm-0.44339 0.44649 2.6857 2.7037c-0.7496 0.65962-1.6925 1.0546-2.6857 1.1255zm-2.8236 2.2107c-0.11712 0.20588-0.22986 0.41135-0.33797 0.61599-0.05189-0.03939-0.10279-0.07986-0.15296-0.12144z" stroke-width=".31462" style="paint-order:markers stroke fill"/>
  </g>
 </g>
</svg>
