<?xml version="1.0" encoding="UTF-8"?>
<!-- Created with Inkscape (http://www.inkscape.org/) -->
<svg width="128" height="128" enable-background="new" version="1.1" viewBox="0 0 33.867 33.867" xmlns="http://www.w3.org/2000/svg" xmlns:cc="http://creativecommons.org/ns#" xmlns:dc="http://purl.org/dc/elements/1.1/" xmlns:rdf="http://www.w3.org/1999/02/22-rdf-syntax-ns#">
 <metadata>
  <rdf:RDF>
   <cc:Work rdf:about="">
    <dc:format>image/svg+xml</dc:format>
    <dc:type rdf:resource="http://purl.org/dc/dcmitype/StillImage"/>
    <dc:title/>
   </cc:Work>
  </rdf:RDF>
 </metadata>
 <g transform="translate(0 -263.13)">
  <g fill="#fff">
   <path d="m17.146 286.14 6.0524 8.4733h-11.983z" style="paint-order:markers stroke fill"/>
   <path transform="matrix(.26458 0 0 .26458 0 263.13)" d="m113.77 9.0059c-3.1693 0-6.1279 0.57163-8.8476 1.7187-2.7597 1.1062-5.1562 2.9547-7.1484 5.4902-2.0034 2.5498-3.5457 5.8112-4.666 9.7617l-4e-3 0.0156c-1.0678 3.9745-1.5898 8.7755-1.5898 14.42 0 11.049 1.8628 19.335 5.7988 24.846 3.9163 5.4828 9.7003 8.2832 16.975 8.2832 2.9066 0 5.493-0.38257 7.7539-1.1758 2.2636-0.77442 4.1214-1.7071 5.5664-2.8379l0.58008-0.45508-2.8418-8.0664-1.0976 0.73242c-1.3208 0.88056-2.6919 1.5932-4.1152 2.1406l-0.012 4e-3c-1.2579 0.50317-3.0404 0.78906-5.3164 0.78906-4.6458 0-7.7354-1.8965-9.7832-5.9922-2.0728-4.1456-3.1719-10.247-3.1719-18.268 0-7.9668 1.0572-13.758 2.9824-17.287l2e-3 -0.0039 2e-3 -2e-3c1.9212-3.5755 4.791-5.2422 9.1074-5.2422 1.9761 0 3.6656 0.27705 5.0801 0.80078l4e-3 2e-3 6e-3 2e-3c1.5352 0.54826 2.956 1.2578 4.2656 2.1309l1.0898 0.72656 3.0391-8.4395-0.63671-0.45117c-1.4982-1.0612-3.3811-1.9034-5.6367-2.5586l-6e-3 -2e-3c-2.2932-0.72344-4.7564-1.0801-7.3789-1.0801zm-51.305 0.77539v0.00195c-2.1111 0-4.2496 0.14587-6.4141 0.4375-0.0013 1.51e-4 -0.0027-1.51e-4 -0.0039 0-2.1081 0.23433-4.1874 0.58591-6.2383 1.0547l-0.79688 0.18164v59.658l0.82812 0.16211c2.3855 0.46556 4.6888 0.81724 6.9082 1.0508 2.2193 0.23358 4.3539 0.34766 6.4062 0.34766 3.1135 0 5.9807-0.2914 8.5996-0.88672l0.0098-2e-3 0.0078-2e-3c2.6952-0.65881 5.0371-1.6868 7-3.0977l0.0156-0.0156c1.9707-1.478 3.4943-3.3769 4.5391-5.6465 1.1181-2.3034 1.6523-5.0753 1.6523-8.291 0-4.2992-0.9916-7.8071-3.0742-10.395-1.6259-2.0201-3.716-3.5149-6.0547-4.6973 1.7994-1.1268 3.4108-2.5136 4.6426-4.3613l0.0039-0.0039 0.0039-0.0059c1.628-2.5047 2.4082-5.6526 2.4082-9.3633 0-3.0009-0.5716-5.5699-1.7715-7.6602-1.109-2.0874-2.6404-3.7784-4.5625-5.0195-1.9-1.2839-4.0967-2.1657-6.5605-2.6484-2.3783-0.53409-4.8953-0.79872-7.5488-0.79872zm-46.309 0.60547-0.22656 0.71289c-1.3816 4.3176-2.7649 8.6924-4.1465 13.125v0.0039l-2e-3 0.0039c-1.3261 4.3821-2.653 8.993-3.9785 13.834l-0.00195 0.0078v0.0078c-1.2673 4.839-2.5623 9.966-3.8867 15.379-1.3271 5.4236-2.6263 11.275-3.8945 17.559l-0.24805 1.2285h9.623l0.15039-0.8457c0.46012-2.5882 0.91895-5.146 1.3789-7.6758 0.40914-2.2503 0.87989-4.5027 1.3809-6.7539h17.131c0.45478 2.2509 0.89544 4.503 1.3047 6.7539l2e-3 0.0098 2e-3 0.01172c0.516 2.5227 1.0041 5.0737 1.4629 7.6543l0.15039 0.8457h9.8925l-0.26172-1.2364c-1.3243-6.2762-2.6493-12.122-3.9746-17.539l-0.0039-0.01172c-1.2665-5.4108-2.5617-10.537-3.8867-15.377-1.2683-4.8427-2.5958-9.456-3.9805-13.842l-0.0039-0.01563c-1.3236-4.4374-2.6773-8.8105-4.0586-13.127l-0.22656-0.71289zm46.912 7.9199c1.3699 0 2.6462 0.13718 3.8301 0.40625l0.0039 2e-3h0.0039c1.1944 0.25965 2.1958 0.71436 3.0469 1.3652l0.03126 0.02344c0.80334 0.56704 1.4661 1.4042 1.9824 2.5918l0.01172 0.02539 0.01172 0.02734c0.53564 1.0713 0.8418 2.5527 0.8418 4.459 0 3.0325-0.8064 5.1053-2.3379 6.4883-1.5315 1.383-3.9272 2.1523-7.3398 2.1523h-4.3242v-17.291c0.54216-0.05972 1.0852-0.12778 1.627-0.16406 0.90046-0.05632 1.7709-0.08398 2.6113-0.08398zm-42.193 5.623c1.074 3.6448 2.1452 7.2904 3.1523 10.969 1.2076 4.4104 2.325 8.9429 3.3887 13.547h-13.158c1.1117-4.6033 2.2573-9.1368 3.4648-13.547 1.0072-3.6784 2.0784-7.3239 3.1523-10.969zm37.955 20.182h5.1875c3.9165 0 6.5841 0.95112 8.2305 2.6973l0.0039 0.0078 0.0059 0.0078c1.7451 1.7964 2.6445 4.2766 2.6445 7.6562 0 1.9668-0.30361 3.5796-0.86328 4.8516l-0.0039 0.01172-0.0039 0.0098c-0.51397 1.2335-1.2273 2.1574-2.1641 2.8477l-0.0098 0.0078-0.01172 0.0078c-0.90952 0.70741-2.0031 1.221-3.3203 1.5371-1.3545 0.32504-2.797 0.49219-4.334 0.49219-0.99497 0-2.022-0.05685-3.0801-0.16797h-0.0059c-0.73698-0.08202-1.5071-0.1971-2.2754-0.30859z"/>
  </g>
 </g>
</svg>
