<?xml version="1.0" encoding="UTF-8"?>
<!-- Created with Inkscape (http://www.inkscape.org/) -->
<svg width="128" height="128" version="1.1" viewBox="0 0 33.867 33.867" xmlns="http://www.w3.org/2000/svg" xmlns:cc="http://creativecommons.org/ns#" xmlns:dc="http://purl.org/dc/elements/1.1/" xmlns:rdf="http://www.w3.org/1999/02/22-rdf-syntax-ns#">
 <metadata>
  <rdf:RDF>
   <cc:Work rdf:about="">
    <dc:format>image/svg+xml</dc:format>
    <dc:type rdf:resource="http://purl.org/dc/dcmitype/StillImage"/>
    <dc:title/>
   </cc:Work>
  </rdf:RDF>
 </metadata>
 <g transform="translate(0 -263.13)">
  <g transform="matrix(1.3203 0 0 1.3203 103.39 -78.917)">
   <path d="m-59.105 260.22c0.26552 0.26552 0.48402 0.56001 0.65764 0.87273h-3.6944l-0.54185 1.905 0.54186 1.8871h3.7038c-0.17502 0.31903-0.3967 0.61928-0.66698 0.88956-1.3572 1.6154-4.9307 1.0419-6.0846 2.1946l-10.343 10.343c-0.63467 0.63467-1.6637 0.63466-2.2984 0-0.63468-0.63468-0.63467-1.6637-1e-6 -2.2984l10.343-10.343c1.7941-1.789 1.3749-3.947 2.8286-5.4506 1.5338-1.5338 4.0206-1.5338 5.5544 1e-5zm-16.811 16.176a0.94802 0.94802 0 0 0-1.3407 0 0.94802 0.94802 0 0 0-2e-6 1.3407 0.94802 0.94802 0 0 0 1.3407 1e-5 0.94802 0.94802 0 0 0 2e-6 -1.3407z" fill="#fff" style="paint-order:markers stroke fill"/>
   <g transform="matrix(-.39107 -.39107 -.39107 .39107 29.862 157.12)">
    <path transform="matrix(-.22139 -.22139 -.22139 .22139 24.472 261.99)" d="m166.83 73.98-4.7793 2.3906-3.5859 5.9746-52.295 52.295c-1.7154-1.3888-3.683-2.6332-5.9941-3.7558-0.22114-0.10551-0.43796-0.21166-0.66406-0.31446-0.1482 0.12729-0.31074 0.28579-0.4707 0.44336l0.45703-0.45703c-0.0013-6.2e-4 -0.0026-1e-3 -0.0039-2e-3l-54.973 54.973c-1.6844 1.3597 1.1055 6.0956 4.7441 9.8789 3.202 3.0071 6.9951 5.3462 8.8496 4.918 0.27367-0.1 0.52491-0.24605 0.74219-0.46094l31.48-31.48c2.3531-2.1754 2.4416-5.9327 4.1816-7.7676l2.9883-2.9883c3.1077-3.019 12.24-8.7022 15.688-12.068 0.0251-0.0245 0.0477-0.048 0.0723-0.0723 0.20971-0.20767 0.40057-0.40748 0.5625-0.59571-0.20408-0.44871-0.41372-0.88714-0.6289-1.3164-3e-3 -7e-3 -6e-3 -0.0125-0.01-0.0195-1e-3 -2e-3 -3e-3 -4e-3 -4e-3 -6e-3 -1.0348-2.0291-2.1741-3.779-3.4297-5.3262l52.293-52.291 5.9746-3.5859 2.3906-4.7793zm-68.076 57.32c-3.3761 3.5115-8.9865 12.51-11.98 15.592l-2.9883 2.9883c-1.8349 1.74-5.5921 1.8285-7.7676 4.1816l-31.48 31.48c-0.21164 0.21426-0.35503 0.46149-0.45508 0.73047 0.07236-0.302 0.21082-0.55587 0.44141-0.74219zm-42.471 69.035c0.13907 0.035 0.27458 0.0588 0.4082 0.0801-0.13363-0.0212-0.26915-0.0452-0.4082-0.0801zm0.54297 0.10156c0.12018 0.015 0.23649 0.0225 0.35156 0.0254-0.11479-3e-3 -0.23168-0.0105-0.35156-0.0254zm0.83203 0c-0.1052 0.0153-0.21348 0.0225-0.32422 0.0254 0.11042-3e-3 0.21926-0.0101 0.32422-0.0254z" fill="#fff" style="paint-order:markers stroke fill"/>
   </g>
  </g>
 </g>
</svg>
