<?xml version="1.0" encoding="UTF-8"?>
<!-- Created with Inkscape (http://www.inkscape.org/) -->
<svg width="128" height="128" version="1.1" viewBox="0 0 33.867 33.867" xmlns="http://www.w3.org/2000/svg" xmlns:cc="http://creativecommons.org/ns#" xmlns:dc="http://purl.org/dc/elements/1.1/" xmlns:rdf="http://www.w3.org/1999/02/22-rdf-syntax-ns#">
 <metadata>
  <rdf:RDF>
   <cc:Work rdf:about="">
    <dc:format>image/svg+xml</dc:format>
    <dc:type rdf:resource="http://purl.org/dc/dcmitype/StillImage"/>
    <dc:title/>
   </cc:Work>
  </rdf:RDF>
 </metadata>
 <g transform="translate(0 -263.13)">
  <path d="m6.382 285.99c-1.1055 0-1.9452 0.26621-2.5192 0.7984-0.56336 0.53218-0.84491 1.2878-0.84491 2.267s0.2972 1.7349 0.89245 2.267c0.59525 0.52153 1.4194 0.78238 2.4717 0.78238 1.0204 0 1.823-0.26622 2.4076-0.7984 0.59525-0.53218 0.89245-1.2825 0.89245-2.251 0-0.96856-0.28694-1.7188-0.86093-2.251-0.56336-0.54283-1.3762-0.81442-2.4391-0.81442zm10.583 0c-1.1055 0-1.9452 0.26621-2.5192 0.7984-0.56336 0.53218-0.84491 1.2878-0.84491 2.267s0.2972 1.7349 0.89245 2.267c0.59525 0.52153 1.4194 0.78238 2.4717 0.78238 1.0204 0 1.823-0.26622 2.4076-0.7984 0.59525-0.53218 0.89245-1.2825 0.89245-2.251 0-0.96856-0.28694-1.7188-0.86093-2.251-0.56336-0.54283-1.3762-0.81442-2.4391-0.81442zm10.583 0c-1.1055 0-1.9452 0.26621-2.5192 0.7984-0.56336 0.53218-0.84491 1.2878-0.84491 2.267s0.2972 1.7349 0.89245 2.267c0.59525 0.52153 1.4194 0.78238 2.4717 0.78238 1.0204 0 1.823-0.26622 2.4076-0.7984 0.59525-0.53218 0.89245-1.2825 0.89245-2.251 0-0.96856-0.28694-1.7188-0.86093-2.251-0.56336-0.54283-1.3762-0.81442-2.4391-0.81442z" fill="#fff"/>
 </g>
</svg>
