<?xml version="1.0" encoding="UTF-8"?>
<!-- Created with Inkscape (http://www.inkscape.org/) -->
<svg width="128" height="128" version="1.1" viewBox="0 0 33.867 33.867" xmlns="http://www.w3.org/2000/svg" xmlns:cc="http://creativecommons.org/ns#" xmlns:dc="http://purl.org/dc/elements/1.1/" xmlns:rdf="http://www.w3.org/1999/02/22-rdf-syntax-ns#">
 <metadata>
  <rdf:RDF>
   <cc:Work rdf:about="">
    <dc:format>image/svg+xml</dc:format>
    <dc:type rdf:resource="http://purl.org/dc/dcmitype/StillImage"/>
    <dc:title/>
   </cc:Work>
  </rdf:RDF>
 </metadata>
 <g transform="translate(0 -263.13)">
  <g fill="#fff">
   <path d="m16.926 273.06a16.755 12.102 0 0 0-15.655 7.8305 16.755 12.102 0 0 0 15.655 7.831 16.755 12.102 0 0 0 15.669-7.831 16.755 12.102 0 0 0-15.669-7.8305zm0.0072 1.9575a5.8732 5.8732 0 0 1 5.873 5.873 5.8732 5.8732 0 0 1-5.873 5.8735 5.8732 5.8732 0 0 1-5.873-5.8735 5.8732 5.8732 0 0 1 5.873-5.873z" style="paint-order:markers fill stroke"/>
   <path d="m16.922 268.43c-0.32337 3e-4 -0.64572 8e-3 -0.9674 0.0187v3.1369h1.9577v-3.1369c-0.32759-0.011-0.65574-0.0185-0.98508-0.0187h-0.0019zm-4.9598 0.43256c-0.647 0.11418-1.2862 0.24878-1.9147 0.40818l0.70356 3.1206 0.77956-0.17589c0.01799-4e-3 0.03602-8e-3 0.05401-0.0119l1.0759-0.24233zm9.9426 0-0.69831 3.0986 1.0759 0.24233c0.01799 4e-3 0.03602 8e-3 0.05401 0.0119l0.77956 0.17589 0.70356-3.1206c-0.62836-0.15938-1.2678-0.29399-1.9147-0.40817zm-15.51 1.6456c-0.60347 0.2604-1.1923 0.54333-1.7623 0.85221l1.3526 2.8845 1.7723-0.83118zm21.077 0-1.3622 2.9056 1.7723 0.83118 1.3526-2.884c-0.57009-0.30899-1.1592-0.5922-1.7627-0.85269zm-26.034 3.005c-0.50378 0.41771-0.98462 0.85981-1.4382 1.3283l2.1853 2.3611 0.026767-0.0249c0.37348-0.38626 0.77174-0.75425 1.1925-1.1041l0.21748-0.20123zm30.991 4.8e-4 -2.1833 2.3588 0.21747 0.20123c0.42078 0.34984 0.81904 0.71783 1.1925 1.1041l0.02677 0.0249 2.1843-2.3602c-0.45356-0.46851-0.93396-0.91098-1.4377-1.3287z" style="paint-order:markers fill stroke"/>
  </g>
 </g>
</svg>
