<?xml version="1.0" encoding="UTF-8"?>
<!-- Created with Inkscape (http://www.inkscape.org/) -->
<svg width="128" height="128" enable-background="new" version="1.1" viewBox="0 0 33.867 33.867" xmlns="http://www.w3.org/2000/svg" xmlns:cc="http://creativecommons.org/ns#" xmlns:dc="http://purl.org/dc/elements/1.1/" xmlns:rdf="http://www.w3.org/1999/02/22-rdf-syntax-ns#">
 <metadata>
  <rdf:RDF>
   <cc:Work rdf:about="">
    <dc:format>image/svg+xml</dc:format>
    <dc:type rdf:resource="http://purl.org/dc/dcmitype/StillImage"/>
    <dc:title/>
   </cc:Work>
  </rdf:RDF>
 </metadata>
 <g transform="translate(0,-263.13)" fill="#808000">
  <g fill="#fff" style="">
   <path transform="matrix(.26458 0 0 .26458 0 263.13)" d="m64 0-21.547 25.139 2.8613 2.8613h8.6855v8.6855l37.314 37.314h8.6855v8.6855l2.8613 2.8613 25.139-21.547-28-24v14h-26v-26h14zm-38.861 42.453-25.139 21.547 28 24v-14h26v26h-14l24 28 21.547-25.139-2.8613-2.8613h-8.6855v-8.6855l-37.314-37.314h-8.6855v-8.6855z" style="paint-order:markers fill stroke"/>
   <path d="m2.9936 263.13 30.873 30.873v2.9936h-2.9936l-30.873-30.873v-2.9936z" style="paint-order:markers fill stroke"/>
  </g>
 </g>
</svg>
