<?xml version="1.0" encoding="UTF-8"?>
<svg width="80" height="80" version="1.1" viewBox="0 0 21.167 21.167" xmlns="http://www.w3.org/2000/svg" xmlns:cc="http://creativecommons.org/ns#" xmlns:dc="http://purl.org/dc/elements/1.1/" xmlns:rdf="http://www.w3.org/1999/02/22-rdf-syntax-ns#">
 <defs>
  <clipPath id="clipPath1483">
   <path d="m409.55 158.07c-2.2959 0.0579-4.127 1.9358-4.127 4.2324v7.4082h-21.166c-2.3372 7.3e-4 -4.2317 1.8952-4.2324 4.2324v10.584c-3.4e-4 2.338 1.8945 4.2336 4.2324 4.2344h21.166v7.4082c1e-3 3.3808 3.769 5.3966 6.582 3.5215l25.4-16.934c2.5132-1.6759 2.5132-5.369 0-7.0449l-25.4-16.934c-0.7258-0.48355-1.5832-0.73117-2.4551-0.70898z" color="#000000" color-rendering="auto" display="none" dominant-baseline="auto" fill="#fff" image-rendering="auto" shape-rendering="auto" solid-color="#000000" stop-color="#000000" style="font-feature-settings:normal;font-variant-alternates:normal;font-variant-caps:normal;font-variant-east-asian:normal;font-variant-ligatures:normal;font-variant-numeric:normal;font-variant-position:normal;font-variation-settings:normal;inline-size:0;isolation:auto;mix-blend-mode:normal;paint-order:markers stroke fill;shape-margin:0;shape-padding:0;text-decoration-color:#000000;text-decoration-line:none;text-decoration-style:solid;text-indent:0;text-orientation:mixed;text-transform:none;white-space:normal"/>
   <path class="powerclip" d="m341.15 140.37h94.667v77.733h-94.667zm68.393 17.701c-2.2959 0.0579-4.127 1.9358-4.127 4.2324v7.4082h-21.166c-2.3372 7.3e-4 -4.2317 1.8952-4.2324 4.2324v10.584c-3.4e-4 2.338 1.8945 4.2336 4.2324 4.2344h21.166v7.4082c1e-3 3.3808 3.769 5.3966 6.582 3.5215l25.4-16.934c2.5132-1.6759 2.5132-5.369 0-7.0449l-25.4-16.934c-0.7258-0.48355-1.5832-0.73117-2.4551-0.70898z" color="#000000" color-rendering="auto" dominant-baseline="auto" fill="#fff" image-rendering="auto" shape-rendering="auto" solid-color="#000000" stop-color="#000000" style="font-feature-settings:normal;font-variant-alternates:normal;font-variant-caps:normal;font-variant-east-asian:normal;font-variant-ligatures:normal;font-variant-numeric:normal;font-variant-position:normal;font-variation-settings:normal;inline-size:0;isolation:auto;mix-blend-mode:normal;paint-order:markers stroke fill;shape-margin:0;shape-padding:0;text-decoration-color:#000000;text-decoration-line:none;text-decoration-style:solid;text-indent:0;text-orientation:mixed;text-transform:none;white-space:normal"/>
  </clipPath>
 </defs>
 <metadata>
  <rdf:RDF>
   <cc:Work rdf:about="">
    <dc:format>image/svg+xml</dc:format>
    <dc:type rdf:resource="http://purl.org/dc/dcmitype/StillImage"/>
    <dc:title/>
   </cc:Work>
  </rdf:RDF>
 </metadata>
 <g transform="translate(-129.33 -109.91)">
  <g transform="matrix(.23666 0 0 .23666 47.475 78.078)" fill="#666" stroke-linecap="round" stroke-linejoin="round">
   <path d="m430.82 145.37v67.733h-84.667v-67.733zm-8.4667 8.4667h-67.733v50.8h67.733z" clip-path="url(#clipPath1483)" stroke-width="1.9015" style="paint-order:markers stroke fill"/>
   <path d="m409.65 162.31v11.642h-25.4v10.583h25.4v11.642l25.4-16.933z" stroke-width=".71448" style="paint-order:markers stroke fill"/>
  </g>
 </g>
</svg>
