<?xml version="1.0" encoding="UTF-8"?>
<svg width="80" height="80" version="1.1" viewBox="0 0 21.167 21.167" xmlns="http://www.w3.org/2000/svg" xmlns:cc="http://creativecommons.org/ns#" xmlns:dc="http://purl.org/dc/elements/1.1/" xmlns:rdf="http://www.w3.org/1999/02/22-rdf-syntax-ns#">
 <defs>
  <clipPath id="clipPath1492">
   <path d="m-154.9 37.627c-0.78308 0.02008-1.4076 0.67071-1.4076 1.4665v2.5668h-7.2199c-0.79716 2.56e-4 -1.4433 0.65666-1.4436 1.4665v3.6672c2.5e-4 0.8098 0.64641 1.4662 1.4436 1.4665h7.2199v2.5668c1.9e-4 1.1711 1.2847 1.8698 2.2443 1.2208l8.6634-5.8672c0.8572-0.58066 0.8572-1.8603 0-2.4409l-8.6634-5.8672c-0.24737-0.16741-0.53956-0.25319-0.8367-0.24564z" color="#000000" color-rendering="auto" display="none" dominant-baseline="auto" fill="#fff" image-rendering="auto" shape-rendering="auto" solid-color="#000000" stop-color="#000000" style="font-feature-settings:normal;font-variant-alternates:normal;font-variant-caps:normal;font-variant-east-asian:normal;font-variant-ligatures:normal;font-variant-numeric:normal;font-variant-position:normal;font-variation-settings:normal;inline-size:0;isolation:auto;mix-blend-mode:normal;paint-order:markers stroke fill;shape-margin:0;shape-padding:0;text-decoration-color:#000000;text-decoration-line:none;text-decoration-style:solid;text-indent:0;text-orientation:mixed;text-transform:none;white-space:normal"/>
   <path class="powerclip" d="m-158.02 28.349h29.815v33.468h-29.815zm3.1205 9.2785c-0.78308 0.02008-1.4076 0.67071-1.4076 1.4665v2.5668h-7.2199c-0.79716 2.56e-4 -1.4433 0.65666-1.4436 1.4665v3.6672c2.5e-4 0.8098 0.64641 1.4662 1.4436 1.4665h7.2199v2.5668c1.9e-4 1.1711 1.2847 1.8698 2.2443 1.2208l8.6634-5.8672c0.8572-0.58066 0.8572-1.8603 0-2.4409l-8.6634-5.8672c-0.24737-0.16741-0.53956-0.25319-0.8367-0.24564z" color="#000000" color-rendering="auto" display="block" dominant-baseline="auto" fill="#fff" image-rendering="auto" shape-rendering="auto" solid-color="#000000" stop-color="#000000" style="font-feature-settings:normal;font-variant-alternates:normal;font-variant-caps:normal;font-variant-east-asian:normal;font-variant-ligatures:normal;font-variant-numeric:normal;font-variant-position:normal;font-variation-settings:normal;inline-size:0;isolation:auto;mix-blend-mode:normal;paint-order:markers stroke fill;shape-margin:0;shape-padding:0;text-decoration-color:#000000;text-decoration-line:none;text-decoration-style:solid;text-indent:0;text-orientation:mixed;text-transform:none;white-space:normal"/>
  </clipPath>
 </defs>
 <metadata>
  <rdf:RDF>
   <cc:Work rdf:about="">
    <dc:format>image/svg+xml</dc:format>
    <dc:type rdf:resource="http://purl.org/dc/dcmitype/StillImage"/>
    <dc:title/>
   </cc:Work>
  </rdf:RDF>
 </metadata>
 <g transform="translate(-129.33 -109.91)">
  <g transform="matrix(.2381 0 0 .2381 47.922 96.384)" fill="#666">
   <g transform="matrix(2.9319 0 0 2.8862 821.36 -28.84)" clip-path="url(#clipPath1492)">
    <path transform="matrix(.45759 0 0 .46484 -210.36 -141.78)" d="m142.15 376.76c-5.8316-0.0391-11.654 0.38977-14.174 1.4551-1.3134 0.47575-2.5482 1.1952-2.6582 2.6055-7e-3 0.0939-0.0102 0.1922-6e-3 0.29297l0.125 4.2324c-0.36992 12.492 0.24829 22.218 0.94336 31.729l0.1875 6.3066c7e-3 0.20056 0.0292 0.39208 0.0683 0.57422 0.0391 0.18191 0.0948 0.35298 0.16407 0.51562v2e-3c0.41509 0.97797 1.3396 1.606 2.4316 1.8066 3.3105 0.62946 7.8036 0.92857 12.33 0.95312 0.25018 2e-3 0.4936 0.0113 0.74414 0.0117 0.0452-7e-5 0.0898-1e-3 0.13476-2e-3 0.045 5e-4 0.0895 2e-3 0.13477 2e-3 0.25053-4.3e-4 0.49591-0.01 0.74609-0.0117 4.5265-0.0245 9.0176-0.32366 12.328-0.95312 1.092-0.20064 2.0185-0.82867 2.4336-1.8066v-2e-3c0.0693-0.16264 0.12299-0.33371 0.16211-0.51562 0.0391-0.18214 0.0618-0.37366 0.0684-0.57422l0.1875-6.3125c0.69497-9.5094 1.3154-19.235 0.94531-31.727l0.125-4.2285c4e-3 -0.10077-1e-3 -0.19904-8e-3 -0.29297-0.10999-1.4103-1.3429-2.1297-2.6562-2.6055-2.5202-1.0653-8.3442-1.4942-14.176-1.4551-0.0898-5.9e-4 -0.17981 1.7e-4 -0.26953 0-0.0143 9e-5 -0.0287-3e-5 -0.043 0-0.0897 1.7e-4 -0.17977-5.9e-4 -0.26953 0z" style="paint-order:markers stroke fill"/>
    <path d="m-138.02 40.236a3.6564 6.03 40.873 0 0-4.8176 6.8775 2.796 4.6112 40.873 0 1 3.6838-5.2451 2.796 4.6112 40.873 0 1 3.6847 1.6935 2.796 4.6112 40.873 0 1-3.6847 5.3051 2.796 4.6112 40.873 0 1-3.6841-1.6649 3.6564 6.03 40.873 0 0 4.818 2.1859 3.6564 6.03 40.873 0 0 4.818-6.9372 3.6564 6.03 40.873 0 0-4.818-2.2149z" style="paint-order:markers stroke fill"/>
   </g>
   <path d="m367.32 83.99v11.642h-25.4v10.583h25.4v11.642l25.4-16.933z" style="paint-order:markers stroke fill"/>
  </g>
 </g>
</svg>
