<?xml version="1.0" encoding="UTF-8"?>
<svg width="80" height="80" version="1.1" viewBox="0 0 21.167 21.167" xmlns="http://www.w3.org/2000/svg" xmlns:cc="http://creativecommons.org/ns#" xmlns:dc="http://purl.org/dc/elements/1.1/" xmlns:rdf="http://www.w3.org/1999/02/22-rdf-syntax-ns#">
 <metadata>
  <rdf:RDF>
   <cc:Work rdf:about="">
    <dc:format>image/svg+xml</dc:format>
    <dc:type rdf:resource="http://purl.org/dc/dcmitype/StillImage"/>
    <dc:title/>
   </cc:Work>
  </rdf:RDF>
 </metadata>
 <g transform="translate(-129.33 -109.91)">
  <g transform="matrix(.27608 0 0 .27608 160.02 85.805)" fill="#fff">
   <g transform="translate(-115.97 90.2)" enable-background="new">
    <path d="m18.658 0.11c-3.5082-0.082-7.1533 1.8054-7.9745 5.5955-0.27241 1.2572-0.39813 2.8486-0.35672 4.4663-0.53446 0.54381-0.69574 1.5346-0.41772 2.566 0.1819 0.671 0.53423 1.2988 0.9906 1.765 0.74977 1.2159 1.5185 1.531 2.7669 3.4048 0.0263 0.0332 0.0549 0.0644 0.08155 0.0975-0.07993 1.3524-0.31574 2.6466-0.34147 3.3318-6.6871 1.4627-8.5892 4.8542-8.5892 7.3732 0 3.2703 5.4247 5.5001 12.116 4.9802 6.6913-0.51996 12.339-3.2578 12.115-6.8632-0.15433-2.4891-1.1187-5.32-5.5292-6.0218 1.6284-1.5259 1.8137-4.2868 2.316-7.1179 0.32437-1.8283 0.32334-3.7059 0.0046-5.3933 0.0024-1.6605-0.25314-3.3473-1.1212-5.2288-1.324-1.921-3.6606-2.8991-6.061-2.9552z" fill="#fff"/>
   </g>
   <rect x="-78.063" y="102.01" width="43.577" height="10.253" stroke-linecap="round" stroke-linejoin="round" stroke-width="5.5239" style="paint-order:markers stroke fill"/>
   <g transform="translate(-115.97 127.24)" enable-background="new">
    <path d="m18.658 0.11c-3.5082-0.082-7.1533 1.8054-7.9745 5.5955-0.27241 1.2572-0.39813 2.8486-0.35672 4.4663-0.53446 0.54381-0.69574 1.5346-0.41772 2.566 0.1819 0.671 0.53423 1.2988 0.9906 1.765 0.74977 1.2159 1.5185 1.531 2.7669 3.4048 0.0263 0.0332 0.0549 0.0644 0.08155 0.0975-0.07993 1.3524-0.31574 2.6466-0.34147 3.3318-6.6871 1.4627-8.5892 4.8542-8.5892 7.3732 0 3.2703 5.4247 5.5001 12.116 4.9802 6.6913-0.51996 12.339-3.2578 12.115-6.8632-0.15433-2.4891-1.1187-5.32-5.5292-6.0218 1.6284-1.5259 1.8137-4.2868 2.316-7.1179 0.32437-1.8283 0.32334-3.7059 0.0046-5.3933 0.0024-1.6605-0.25314-3.3473-1.1212-5.2288-1.324-1.921-3.6606-2.8991-6.061-2.9552z" fill="#fff"/>
   </g>
   <rect x="-78.063" y="139.05" width="43.577" height="10.253" stroke-linecap="round" stroke-linejoin="round" stroke-width="5.524" style="paint-order:markers stroke fill"/>
  </g>
 </g>
</svg>
