<?xml version="1.0" encoding="UTF-8"?>
<svg width="257.02" height="63.307" version="1.1" viewBox="0 0 68.003 16.75" xmlns="http://www.w3.org/2000/svg" xmlns:cc="http://creativecommons.org/ns#" xmlns:dc="http://purl.org/dc/elements/1.1/" xmlns:rdf="http://www.w3.org/1999/02/22-rdf-syntax-ns#">
 <metadata>
  <rdf:RDF>
   <cc:Work rdf:about="">
    <dc:format>image/svg+xml</dc:format>
    <dc:type rdf:resource="http://purl.org/dc/dcmitype/StillImage"/>
    <dc:title/>
   </cc:Work>
  </rdf:RDF>
 </metadata>
 <g transform="translate(-11.539 -10.146)" fill="#970a2c">
  <path d="m34.669 16.678c-0.57297 0-1.5731-0.04261-1.9747 0.64134-0.20481 0.35936-0.17988 1.2321 0.02533 1.6083 0.40165 0.76102 1.2225 0.68387 2.0263 0.68387h1.2909c0.59055 0 0.8639 1.14e-4 1.0004 0.23969 0.05144 0.07665 0.05144 0.32438 0 0.39265-0.11066 0.20523-0.48646 0.23069-0.74277 0.23069h-1.0692c-0.35937 0-0.56454 0.02608-0.76978-0.16197-0.11144-0.09382-0.11128-0.1886-0.11128-0.27404h-1.8218c0 0.41046 0.0258 0.63307 0.19715 0.88102 0.39328 0.57296 1.5137 0.64134 1.8471 0.64134h2.2054c0.53861 0 1.5142 0.05977 1.9502-0.67569 0.18806-0.32501 0.21403-1.4276 0.01725-1.7694-0.45318-0.78699-1.4024-0.73623-2.0353-0.73623h-1.6843c-0.16252 0-0.18844-3e-6 -0.35095-0.01717-0.12822-0.0089-0.27324-0.03379-0.32476-0.16197-0.03388-0.09382-0.02549-0.197 0.03434-0.27322 0.06869-0.08545 0.1796-0.11125 0.26504-0.12843 0.12854-0.01717 0.27369-0.03435 0.42784-0.03435h1.308c0.3334 0.01675 0.44463 0.22215 0.49573 0.34194h1.744c-0.01709-0.37653-0.06791-0.72693-0.25603-0.93174-0.36774-0.38491-0.86395-0.49655-1.488-0.49655zm16.364 0c-0.62447-0.0079-1.1967 0.02581-1.5134 0.0769-0.53024 0.07706-0.95778 0.35013-1.1207 0.82048v-0.79512h-1.7359v6.3029h1.7359v-2.4459c0.16292 0.47035 0.59045 0.78697 1.1207 0.85566 0.31664 0.0511 1.5134 0.06789 1.5134 0.06789 0.49548 0.0084 0.76024-0.05137 0.97429-0.11125 0.41882-0.12859 0.76942-0.39391 0.94071-0.86384 0.09387-0.21402 0.15371-0.61536 0.15371-1.043v-0.84667c0-0.45318-0.05952-0.82938-0.15371-1.043-0.17129-0.46197-0.52189-0.73526-0.94071-0.86384-0.21405-0.0599-0.47839-0.11125-0.97429-0.11125zm4.9237 0c-0.34177 0-1.3856-0.04232-1.8815 0.80413-0.32501 0.53862-0.29087 2.6936 0.0082 3.2067 0.56416 0.96666 1.3342 0.87202 2.54 0.87202h0.94074c1.1116 0 2.1969-0.09397 2.2823-1.5993h-1.6418c0 0.24795-0.06791 0.35076-0.23886 0.41065-0.26472 0.13653-1.838 0.15371-2.086 0.01717-0.29904-0.15455-0.30839-0.59917-0.30839-0.94973h4.2668v-0.29858c0-0.61568-2.09e-4 -1.4537-0.42784-1.9068-0.46196-0.4871-1.2141-0.55626-1.5559-0.55626zm19.38 7.77e-4c-0.57297 0-1.5739-0.04261-1.9756 0.64134-0.20522 0.35936-0.17945 1.2313 0.02533 1.6074 0.40208 0.76102 1.2233 0.68388 2.0271 0.68388h1.2908c0.59013 0 0.86431 1.08e-4 1.0013 0.23968 0.05113 0.07665 0.05113 0.32438 0 0.39266-0.11097 0.20523-0.48809 0.2315-0.74442 0.2315h-1.0683c-0.35937 0-0.56454 0.02525-0.76977-0.16279-0.11145-0.09382-0.11208-0.18778-0.11208-0.27322h-1.8209c0 0.41046 0.02549 0.63307 0.19632 0.88102 0.39328 0.57296 1.5137 0.64134 1.8471 0.64134h2.2071c0.53862 0 1.5126 0.05977 1.9486-0.67569 0.18805-0.32501 0.21402-1.4285 0.01725-1.7702-0.45318-0.78698-1.4016-0.73541-2.0345-0.73541h-1.6843c-0.1625 0-0.18842-5e-6 -0.35093-0.01717-0.12822-0.0089-0.27324-0.03463-0.32476-0.16279-0.03388-0.09382-0.02549-0.19616 0.03435-0.27322 0.06822-0.08545 0.17961-0.11125 0.26504-0.12843 0.12854-0.01717 0.27413-0.03435 0.42784-0.03435h1.308c0.33338 0.01675 0.44503 0.22215 0.49654 0.34194h1.744c-0.01725-0.37653-0.06791-0.72735-0.25685-0.93174-0.36774-0.38491-0.86395-0.49572-1.488-0.49572zm-11.283 0.0049c-0.16448-0.0012-0.31234 9e-3 -0.42784 0.01964-0.62406 0.06868-0.96665 0.35035-1.2573 0.86384v-0.78694h-1.6761v4.6783h1.7359v-1.8217c0-0.51265-0.05113-1.1624 0.33376-1.4446 0.29024-0.20565 0.89791-0.1975 1.1714-0.07771 0.36773 0.17968 0.36812 0.52183 0.36812 0.80413h1.4954c0-0.51349 0.03466-1.2916-0.25605-1.677-0.35275-0.45517-0.99376-0.55466-1.4872-0.5579zm-24.358 0.09653v2.3175c0 0.78657-0.0779 1.4625 0.53827 1.9755 0.68396 0.57296 2.1896 0.52919 2.8647 0.39266 0.70155-0.11978 0.88073-0.36668 1.0855-0.79431v0.78613h1.668v-4.6775h-1.7277v1.8299c0 0.7095 0.05967 1.1799-0.37629 1.4283-0.32459 0.17968-1.6843 0.22222-1.9665 0.04254-0.39328-0.23078-0.35829-0.64128-0.35829-1.3939v-1.9068zm26.614 0v2.3175c0 0.78657-0.0779 1.4625 0.53827 1.9755 0.68396 0.57296 2.1896 0.52919 2.8647 0.39266 0.70155-0.11978 0.88073-0.36668 1.0855-0.79431v0.78613h1.668v-4.6775h-1.7277v1.8299c0 0.7095 0.05968 1.1799-0.3763 1.4283-0.32459 0.17968-1.6843 0.22222-1.9665 0.04254-0.39328-0.23078-0.35911-0.64128-0.35911-1.3939v-1.9068zm-9.4957 1.0405c0.44476 0.0033 0.89621 0.02404 0.99883 0.054 0.29863 0.08544 0.32394 0.32569 0.32394 0.56526h-2.5653c0-0.19685-0.05027-0.38558 0.28303-0.56526 0.07693-0.04273 0.51481-0.05718 0.95954-0.054zm-6.9524 0.22496c0.35935 0 0.94074 0.01717 0.94074 0.01717 0.44481 0 0.61517 0.36784 0.61517 0.65851 0 0 0.0096 0.25695 0.0096 0.42783s-0.0096 0.42783-0.0096 0.42783c0 0.29905-0.17036 0.6577-0.61517 0.6577 0 0-0.59836 0.02619-0.98327 0.02619-0.33296 0-0.82949-0.02619-0.82949-0.02619-0.4448 0-0.61597-0.35865-0.61597-0.6577 0 0-0.0082-0.23976-0.0082-0.39347 0-0.17968 0.0082-0.46219 0.0082-0.46219 0-0.29067 0.17117-0.65851 0.61597-0.65851 0 0 0.52148-0.01717 0.87202-0.01717z" stroke-width=".41883"/>
  <g transform="matrix(.32419 0 0 .32419 -11.578 -42.691)">
   <path d="m97.142 165.85a22.965 22.965 0 0 0-22.965 22.965 22.965 22.965 0 0 0 22.965 22.965 22.965 22.965 0 0 0 22.5-18.373c-5.1507-0.43577-9.5475 0.43801-12.34 1.0352-3.485 0.748-6.0558 3.1536-6.5508 5.6016-0.497 2.447 0.0401 0.82905 1.0371 9.998-1.534-8.296-8.6721-12.238-10.289-13.357-1.618-1.119-1.9502-1.5344-1.7852-3.9414 0.167-2.407 1.2871-5.2277 1.3711-6.5547-0.084 0.375-0.58111 1.4113-1.2871 3.3613-0.248-2.324-2.1582-4.6886-2.6562-5.6426 0.663 0 3.6524 0.33165 3.4434-3.0274-0.508 1.63-1.4853 2.2433-2.5703 2.3633-0.958 0.105-2.0262-0.16107-2.5312-0.70507-0.494-0.531-1.0051-0.47811-1.3691-0.41211-0.313 0.056-0.45502 0.37612-0.66602 0.45312-0.457 0.166-1.4093 1.0801-2.0723 1.2461-0.415-0.029-1.0791-0.19402-1.1621-0.54102 0.123-0.496 0.84767-0.51914 1.1387-0.61914s0.49164-0.25077 0.68164-0.75977c-0.317-0.139-1.1393-0.19023-1.6133 0.01-0.552 0.234-0.75411 0.74517-1.0371 0.82617-0.533 0.15-0.75911-0.45572-0.91211-1.1367-0.151-0.684 0.45589-1.286 1.2129-1.666 0.759-0.378 3.8628-1.5921 4.0898-1.7441 0.228-0.152 0.38016-0.52803 0.91016-0.83203 0.532-0.302 0.90928-3.5e-4 1.3633-0.15235 0.453-0.151 1.5559-0.60758 1.6309-1.5176 0.074-0.907-0.36-1.2408-0.875-1.9668 1.013-0.106 2.3396 1.6621 2.7266 2.1621 0.388 0.497 0.55434 0.71873 0.77734 0.55273 0.219-0.165 0.74598-0.58205 2.209-0.62305 0.151-5e-3 0.31895-7e-3 0.50195-6e-3l2e-3 4e-3c0.572 0.014 3.412 0.11156 5.334 0.72656-2.769 0-4.2046 0.82238-4.2676 0.85938 0.074-0.025 2.5427-0.84405 5.6797 2e-3 -4.348 0-5.0312 0.98633-5.0312 0.98633s3.893-0.96061 6.6231 0.0254c-4.802 0-5.7363 1.2129-5.7363 1.2129s3.2583-1.2384 7.6563-0.0254c-5.788 0-6.8223 1.1387-6.8223 1.1387s4.3956-1.2126 8.6426 0.0254c-6.319 0-7.6836 1.3652-7.6836 1.3652s5.5604-1.744 9.8574 0c-7.658 0-8.8711 1.3379-8.8711 1.3379s6.0904-1.668 10.943 0c-7.33 0-9.8203 1.3438-9.8203 1.3438s5.9535-2.026 12.854 0.50195c-6.7994-0.86779-10.463 0.37592-11.43 0.76953 1.1956-0.42539 5.3625-1.3808 14.717 1.3789-17.37-2.032-18.943 2.9384-18.943 5.8164 0 4.066 2.8613 7.5898 2.8613 7.5898-0.288-3.484-0.1243-5.7092 6.5957-7.6172 4.7625-1.3526 9.7992-1.0401 13.551-0.30273a22.965 22.965 0 0 0 0.37696-4.1348 22.965 22.965 0 0 0-22.965-22.965zm-11.861 12.182c-0.13675 3e-3 -0.30289 0.0501-0.46289 0.14062-0.318 0.18-0.49544 0.46667-0.39844 0.63867 0.097 0.175 0.43491 0.16633 0.75391-0.0137 0.318-0.182 0.49639-0.46462 0.40039-0.64062-0.049-0.0855-0.15622-0.12775-0.29297-0.125zm-6.2012 2.5742c-0.10575 0.0331-0.21991 0.16193-0.28516 0.33593-0.087 0.235-0.05569 0.46082 0.07031 0.50782 0.125 0.046 0.29772-0.10294 0.38672-0.33594 0.087-0.233 0.05669-0.45981-0.07031-0.50781-0.03125-0.012-0.06631-0.011-0.10156 0z"/>
   <path d="m97.141 162.98c-14.262 0-25.834 11.572-25.834 25.834s11.572 25.834 25.834 25.834c14.262 0 25.834-11.572 25.834-25.834s-11.572-25.834-25.834-25.834zm0 1c13.721 0 24.834 11.113 24.834 24.834s-11.113 24.834-24.834 24.834c-13.721 0-24.834-11.113-24.834-24.834s11.113-24.834 24.834-24.834z" color="#000000" color-rendering="auto" dominant-baseline="auto" image-rendering="auto" shape-rendering="auto" solid-color="#000000" stop-color="#000000" style="font-feature-settings:normal;font-variant-alternates:normal;font-variant-caps:normal;font-variant-east-asian:normal;font-variant-ligatures:normal;font-variant-numeric:normal;font-variant-position:normal;font-variation-settings:normal;inline-size:0;isolation:auto;mix-blend-mode:normal;shape-margin:0;shape-padding:0;text-decoration-color:#000000;text-decoration-line:none;text-decoration-style:solid;text-indent:0;text-orientation:mixed;text-transform:none;white-space:normal"/>
  </g>
 </g>
</svg>
