<?xml version="1.0" encoding="UTF-8"?>
<!-- Generator: Adobe Illustrator 15.0.0, SVG Export Plug-In . SVG Version: 6.00 Build 0)  -->
<svg width="112.27" height="75.009" enable-background="new 0 0 113.333 78.167" version="1.1" viewBox="0 0 112.27 75.009" xml:space="preserve" xmlns="http://www.w3.org/2000/svg" xmlns:cc="http://creativecommons.org/ns#" xmlns:dc="http://purl.org/dc/elements/1.1/" xmlns:rdf="http://www.w3.org/1999/02/22-rdf-syntax-ns#"><metadata><rdf:RDF><cc:Work rdf:about=""><dc:format>image/svg+xml</dc:format><dc:type rdf:resource="http://purl.org/dc/dcmitype/StillImage"/><dc:title/></cc:Work></rdf:RDF></metadata>
<g transform="matrix(3.5433 0 0 3.5433 -106 522.73)" fill="#fff" stroke-width=".35278" aria-label="Prozessanalyse und -optimierung"><path d="m41.545-127.23v-0.33607h0.07044c0.1174 0 0.16877 0.0558 0.16877 0.1673 0 0.11153-0.05136 0.16877-0.16877 0.16877zm-0.18785 0.54446h0.18785v-0.40064h0.10566c0.21133 0 0.3214-0.11888 0.3214-0.31259 0-0.19372-0.11007-0.31112-0.3214-0.31112h-0.29351z"/><path d="m42.107-126.68h0.18198v-0.41385c0-0.14089 0.08218-0.18638 0.15703-0.18638 0.01908 0 0.03522 3e-3 0.05136 7e-3v-0.17024c-0.01027-1e-3 -0.01908-4e-3 -0.03082-4e-3 -0.113 0-0.17024 0.091-0.19225 0.14969h-0.0029c0-0.0455-0.0044-0.0925-0.0059-0.13795h-0.16437c0.0044 0.0338 0.0059 0.0778 0.0059 0.12474z"/><path d="m42.77-127.06c0-0.12621 0.02788-0.25976 0.14529-0.25976 0.1174 0 0.14382 0.13355 0.14382 0.25976s-0.02642 0.26123-0.14382 0.26123c-0.1174 0-0.14529-0.13502-0.14529-0.26123zm-0.18785 0c0 0.31699 0.17904 0.39037 0.33314 0.39037 0.15409 0 0.33167-0.0734 0.33167-0.39037 0-0.30819-0.17757-0.3889-0.33167-0.3889-0.15409 0-0.33314 0.0807-0.33314 0.3889z"/><path d="m43.35-126.68h0.51511v-0.13795h-0.32726l0.31699-0.46228v-0.15556h-0.49457v0.13795h0.31259l-0.32286 0.46081z"/><path d="m44.534-126.87c-0.03375 0.025-0.08659 0.0587-0.19812 0.0587-0.14088 0-0.19225-0.0778-0.19225-0.20692h0.43733v-0.0352c0-0.30819-0.13942-0.40358-0.30232-0.40358-0.19225 0-0.31112 0.17464-0.31112 0.40064 0 0.20399 0.10566 0.37863 0.34928 0.37863 0.1086 0 0.18785-0.0323 0.226-0.0484zm-0.39037-0.26269c0-0.0998 0.03962-0.20106 0.13502-0.20106 0.08218 0 0.12621 0.0675 0.12621 0.20106z"/><path d="m44.693-126.71c0.03816 0.0147 0.11594 0.0367 0.20986 0.0367 0.16437 0 0.28177-0.0837 0.28177-0.22307 0-0.088-0.04696-0.13061-0.14088-0.19078l-0.08952-0.0572c-0.05283-0.0337-0.08512-0.0558-0.08512-0.0969 0-0.0455 0.03082-0.0734 0.1042-0.0734 0.06604 0 0.11447 0.0161 0.15996 0.0338l0.01027-0.14088c-0.01761-6e-3 -0.09246-0.0308-0.18932-0.0308-0.15996 0-0.26122 0.11006-0.26122 0.21426 0 0.11887 0.08365 0.1673 0.15996 0.2128l0.07484 0.044c0.06604 0.0382 0.08072 0.066 0.08072 0.0954 0 0.0587-0.05137 0.0748-0.1174 0.0748-0.08512 0-0.15996-0.0382-0.18932-0.0499z"/><path d="m45.29-126.71c0.03816 0.0147 0.11594 0.0367 0.20986 0.0367 0.16437 0 0.28177-0.0837 0.28177-0.22307 0-0.088-0.04696-0.13061-0.14088-0.19078l-0.08952-0.0572c-0.05283-0.0337-0.08512-0.0558-0.08512-0.0969 0-0.0455 0.03082-0.0734 0.1042-0.0734 0.06604 0 0.11447 0.0161 0.15996 0.0338l0.01027-0.14088c-0.01761-6e-3 -0.09246-0.0308-0.18932-0.0308-0.15996 0-0.26122 0.11006-0.26122 0.21426 0 0.11887 0.08365 0.1673 0.15996 0.2128l0.07485 0.044c0.06604 0.0382 0.08071 0.066 0.08071 0.0954 0 0.0587-0.05136 0.0748-0.1174 0.0748-0.08512 0-0.15996-0.0382-0.18932-0.0499z"/><path d="m45.963-127.25c0.03522-0.0293 0.11594-0.0734 0.20692-0.0734 0.1042 0 0.14088 0.069 0.14088 0.14382v0.0279h-0.03669c-0.23041 0-0.39771 0.0514-0.39771 0.25682 0 0.14088 0.1086 0.2216 0.226 0.2216 0.1086 0 0.16583-0.0528 0.21133-0.11447h0.0029c0 0.0367 0.0015 0.0734 0.01027 0.10273h0.16437c-0.0044-0.0293-0.01027-0.0793-0.01027-0.13355v-0.3302c0-0.18931-0.0543-0.30378-0.28911-0.30378-0.11594 0-0.18785 0.0323-0.23921 0.0558zm0.34781 0.23774c0 0.13502-0.03962 0.21574-0.14822 0.21574-0.07044 0-0.11594-0.047-0.11594-0.11594 0-0.11007 0.09246-0.14235 0.24802-0.14235h0.01614z"/><path d="m46.65-126.68h0.18198v-0.44027c0-0.0969 0.03375-0.17757 0.12914-0.17757 0.07484 0 0.1042 0.0484 0.1042 0.16436v0.45348h0.18198v-0.48723c0-0.15262-0.05136-0.2803-0.22307-0.2803-0.12327 0-0.17464 0.0822-0.20106 0.12768h0.0015-0.0044c0-0.0382-0.0044-0.0778-0.0059-0.11594h-0.17024c0.0044 0.0338 0.0059 0.0778 0.0059 0.12474z"/><path d="m47.459-127.25c0.03522-0.0293 0.11594-0.0734 0.20692-0.0734 0.1042 0 0.14089 0.069 0.14089 0.14382v0.0279h-0.03669c-0.23041 0-0.39771 0.0514-0.39771 0.25682 0 0.14088 0.1086 0.2216 0.226 0.2216 0.1086 0 0.16583-0.0528 0.21133-0.11447h0.0029c0 0.0367 0.0015 0.0734 0.01027 0.10273h0.16437c-0.0044-0.0293-0.01027-0.0793-0.01027-0.13355v-0.3302c0-0.18931-0.0543-0.30378-0.28911-0.30378-0.11594 0-0.18785 0.0323-0.23921 0.0558zm0.34781 0.23774c0 0.13502-0.03962 0.21574-0.14822 0.21574-0.07044 0-0.11594-0.047-0.11594-0.11594 0-0.11007 0.09246-0.14235 0.24802-0.14235h0.01614z"/><path d="m48.163-126.68h0.18198v-1.1007h-0.18198z"/><path d="m48.64-127.44h-0.18785l0.25095 0.76313-0.01321 0.0646c-0.02348 0.0778-0.04696 0.11153-0.10126 0.11007-0.02788 0-0.04843-7e-3 -0.06898-0.0147l-0.01027 0.13942c0.02642 9e-3 0.06751 0.0191 0.11594 0.0191 0.12181 0 0.18344-0.0778 0.21573-0.18198l0.2759-0.89961h-0.17611l-0.14529 0.57088h-0.0029z"/><path d="m49.177-126.71c0.03816 0.0147 0.11594 0.0367 0.20986 0.0367 0.16437 0 0.28177-0.0837 0.28177-0.22307 0-0.088-0.04696-0.13061-0.14088-0.19078l-0.08952-0.0572c-0.05283-0.0337-0.08512-0.0558-0.08512-0.0969 0-0.0455 0.03082-0.0734 0.1042-0.0734 0.06604 0 0.11447 0.0161 0.15996 0.0338l0.01027-0.14088c-0.01761-6e-3 -0.09246-0.0308-0.18932-0.0308-0.15996 0-0.26122 0.11006-0.26122 0.21426 0 0.11887 0.08365 0.1673 0.15996 0.2128l0.07484 0.044c0.06604 0.0382 0.08072 0.066 0.08072 0.0954 0 0.0587-0.05136 0.0748-0.1174 0.0748-0.08512 0-0.15996-0.0382-0.18932-0.0499z"/><path d="m50.35-126.87c-0.03375 0.025-0.08659 0.0587-0.19812 0.0587-0.14089 0-0.19225-0.0778-0.19225-0.20692h0.43733v-0.0352c0-0.30819-0.13942-0.40358-0.30232-0.40358-0.19225 0-0.31112 0.17464-0.31112 0.40064 0 0.20399 0.10566 0.37863 0.34928 0.37863 0.1086 0 0.18785-0.0323 0.226-0.0484zm-0.39037-0.26269c0-0.0998 0.03962-0.20106 0.13502-0.20106 0.08218 0 0.12621 0.0675 0.12621 0.20106z"/><path d="m51.517-127.44h-0.18198v0.43293c0 0.0969-0.02788 0.18491-0.12474 0.18491-0.07631 0-0.1086-0.0484-0.1086-0.16437v-0.45347h-0.18198v0.48723c0 0.15262 0.05136 0.2803 0.22307 0.2803 0.11887 0 0.16583-0.0719 0.20106-0.12768l-0.0015-1e-3 0.0044 1e-3c0 0.0382 0.0044 0.0778 0.0059 0.11594h0.17024c-0.0044-0.0337-0.0059-0.0778-0.0059-0.12474z"/><path d="m51.681-126.68h0.18198v-0.44027c0-0.0969 0.03375-0.17757 0.12914-0.17757 0.07485 0 0.1042 0.0484 0.1042 0.16436v0.45348h0.18198v-0.48723c0-0.15262-0.05136-0.2803-0.22307-0.2803-0.12327 0-0.17464 0.0822-0.20106 0.12768h0.0015-0.0044c0-0.0382-0.0044-0.0778-0.0059-0.11594h-0.17024c0.0044 0.0338 0.0059 0.0778 0.0059 0.12474z"/><path d="m52.882-127.79v0.45348h-0.0029c-0.02642-0.0587-0.08659-0.12034-0.19518-0.12034-0.1629 0-0.26122 0.14382-0.26122 0.39037 0 0.20986 0.07778 0.3889 0.26563 0.3889 0.1174 0 0.1717-0.0646 0.20106-0.12914h0.0044c0 0.0514 0.0029 0.0954 0.0059 0.1174h0.17024c-0.0044-0.0279-0.0059-0.0748-0.0059-0.12915v-0.97152zm-0.27737 0.71617c0-0.15116 0.03522-0.24948 0.13648-0.24948 0.09979 0 0.14088 0.10713 0.14088 0.25388 0 0.14236-0.03669 0.25829-0.14382 0.25829-0.10566 0-0.13355-0.088-0.13355-0.26269z"/><path d="m53.592-127.03h0.339v-0.14969h-0.339z"/><path d="m54.242-127.06c0-0.12621 0.02788-0.25976 0.14529-0.25976 0.1174 0 0.14382 0.13355 0.14382 0.25976s-0.02642 0.26123-0.14382 0.26123c-0.1174 0-0.14529-0.13502-0.14529-0.26123zm-0.18785 0c0 0.31699 0.17904 0.39037 0.33314 0.39037 0.15409 0 0.33167-0.0734 0.33167-0.39037 0-0.30819-0.17757-0.3889-0.33167-0.3889-0.15409 0-0.33314 0.0807-0.33314 0.3889z"/><path d="m54.866-126.37h0.18198v-0.42559h0.0029c0.02642 0.0587 0.08659 0.12034 0.19518 0.12034 0.1629 0 0.26122-0.14382 0.26122-0.39037 0-0.20986-0.07778-0.3889-0.26563-0.3889-0.1174 0-0.1717 0.0646-0.20106 0.12914h-0.0044c0-0.0514-0.0029-0.0954-0.0059-0.1174h-0.17024c0.0044 0.0279 0.0059 0.0748 0.0059 0.12914zm0.18198-0.69268c0-0.14236 0.03669-0.25829 0.14382-0.25829 0.10566 0 0.13355 0.088 0.13355 0.26269 0 0.15116-0.03522 0.24948-0.13648 0.24948-0.09979 0-0.14089-0.10713-0.14089-0.25388z"/><path d="m55.718-127.44h-0.12034v0.13355h0.12034v0.41385c0 0.15849 0.07631 0.22013 0.21133 0.22013 0.0543 0 0.09392-0.0117 0.12181-0.025v-0.12914c-0.01321 7e-3 -0.03669 0.0161-0.06898 0.0161-0.05283 0-0.08218-0.0235-0.08218-0.1042v-0.39183h0.15116v-0.13355h-0.15116v-0.21133l-0.18198 0.0558z"/><path d="m56.185-126.68h0.18198v-0.75579h-0.18198zm-0.0029-0.89814h0.18785v-0.17905h-0.18785z"/><path d="m56.545-126.68h0.18198v-0.45788c0-0.0836 0.04256-0.15996 0.12327-0.15996 0.06751 0 0.09686 0.047 0.09686 0.14088v0.47696h0.18198v-0.45788c0-0.0836 0.04256-0.15996 0.12327-0.15996 0.06751 0 0.09686 0.047 0.09686 0.14088v0.47696h0.18198v-0.46668c0-0.18345-0.05283-0.30085-0.2172-0.30085-0.11153 0-0.16583 0.0675-0.20252 0.12034-0.02201-0.0411-0.06311-0.12034-0.19078-0.12034-0.1042 0-0.1629 0.0719-0.19078 0.13061h-0.0029c0-0.0396-0.0044-0.0792-0.0059-0.11887h-0.18198c0.0029 0.0279 0.0059 0.069 0.0059 0.12327z"/><path d="m57.708-126.68h0.18198v-0.75579h-0.18198zm-0.0029-0.89814h0.18785v-0.17905h-0.18785z"/><path d="m58.618-126.87c-0.03375 0.025-0.08659 0.0587-0.19812 0.0587-0.14088 0-0.19225-0.0778-0.19225-0.20692h0.43733v-0.0352c0-0.30819-0.13942-0.40358-0.30232-0.40358-0.19225 0-0.31112 0.17464-0.31112 0.40064 0 0.20399 0.10566 0.37863 0.34928 0.37863 0.1086 0 0.18785-0.0323 0.226-0.0484zm-0.39037-0.26269c0-0.0998 0.03962-0.20106 0.13502-0.20106 0.08218 0 0.12621 0.0675 0.12621 0.20106z"/><path d="m58.812-126.68h0.18198v-0.41385c0-0.14089 0.08218-0.18638 0.15703-0.18638 0.01908 0 0.03522 3e-3 0.05136 7e-3v-0.17024c-0.01027-1e-3 -0.01908-4e-3 -0.03082-4e-3 -0.113 0-0.17024 0.091-0.19225 0.14969h-0.0029c0-0.0455-0.0044-0.0925-0.0059-0.13795h-0.16436c0.0044 0.0338 0.0059 0.0778 0.0059 0.12474z"/><path d="m59.92-127.44h-0.18198v0.43293c0 0.0969-0.02788 0.18491-0.12474 0.18491-0.07631 0-0.1086-0.0484-0.1086-0.16437v-0.45347h-0.18198v0.48723c0 0.15262 0.05136 0.2803 0.22307 0.2803 0.11887 0 0.16583-0.0719 0.20106-0.12768l-0.0015-1e-3 0.0044 1e-3c0 0.0382 0.0044 0.0778 0.0059 0.11594h0.17024c-0.0044-0.0337-0.0059-0.0778-0.0059-0.12474z"/><path d="m60.084-126.68h0.18198v-0.44027c0-0.0969 0.03375-0.17757 0.12914-0.17757 0.07484 0 0.1042 0.0484 0.1042 0.16436v0.45348h0.18198v-0.48723c0-0.15262-0.05136-0.2803-0.22307-0.2803-0.12327 0-0.17464 0.0822-0.20106 0.12768h0.0015-0.0044c0-0.0382-0.0044-0.0778-0.0059-0.11594h-0.17024c0.0044 0.0338 0.0059 0.0778 0.0059 0.12474z"/><path d="m61.013-127.07c0-0.15409 0.03669-0.24214 0.13208-0.24361 0.08658-1e-3 0.14676 0.0837 0.14676 0.24214 0 0.17171-0.04549 0.25389-0.15996 0.25389-0.06164 0-0.11887-0.0748-0.11887-0.25242zm-0.15409 0.66481c0.04403 0.0161 0.13942 0.047 0.25976 0.047 0.27737 0 0.34928-0.16877 0.34928-0.40505v-0.55767c0-0.0396 0.0029-0.0792 0.0059-0.11887h-0.16437c-0.0015 0.0396-0.0059 0.0778-0.0059 0.1174h-0.0059c-0.03816-0.066-0.08952-0.12914-0.19959-0.12914-0.19812 0-0.27296 0.18344-0.27296 0.39184 0 0.30525 0.1585 0.37569 0.26416 0.37569 0.11887 0 0.17024-0.069 0.19959-0.12768h0.0029v0.0719c0 0.11887-0.02788 0.23775-0.19959 0.23775-0.09539 0-0.18051-0.0411-0.22307-0.0646z"/></g></svg>
