<?xml version="1.0" encoding="UTF-8"?>
<!-- Generator: Adobe Illustrator 15.0.0, SVG Export Plug-In . SVG Version: 6.00 Build 0)  -->
<svg width="112.27" height="75.009" enable-background="new 0 0 113.333 78.167" version="1.1" viewBox="0 0 112.27 75.009" xml:space="preserve" xmlns="http://www.w3.org/2000/svg" xmlns:cc="http://creativecommons.org/ns#" xmlns:dc="http://purl.org/dc/elements/1.1/" xmlns:rdf="http://www.w3.org/1999/02/22-rdf-syntax-ns#"><metadata><rdf:RDF><cc:Work rdf:about=""><dc:format>image/svg+xml</dc:format><dc:type rdf:resource="http://purl.org/dc/dcmitype/StillImage"/><dc:title/></cc:Work></rdf:RDF></metadata>
<g transform="translate(-.532 -.70312)" fill="#fff">
	<path d="m56.129 3.5723a22.965 22.965 0 0 0-22.965 22.965 22.965 22.965 0 0 0 22.965 22.965 22.965 22.965 0 0 0 22.5-18.373c-5.1498-0.43538-9.5479 0.43809-12.34 1.0352-3.485 0.748-6.0558 3.1536-6.5508 5.6016-0.497 2.447 0.04011 0.82709 1.0371 9.9961-1.534-8.296-8.6721-12.238-10.289-13.357-1.618-1.119-1.9502-1.5325-1.7852-3.9395 0.167-2.407 1.2871-5.2296 1.3711-6.5566-0.084 0.375-0.58111 1.4113-1.2871 3.3613-0.248-2.324-2.1563-4.6866-2.6543-5.6406 0.663 0 3.6504 0.33166 3.4414-3.0273-0.508 1.63-1.4853 2.2433-2.5703 2.3633-0.958 0.105-2.0262-0.16108-2.5312-0.70508-0.494-0.531-1.0051-0.48006-1.3691-0.41406-0.313 0.056-0.45306 0.37808-0.66406 0.45508-0.457 0.166-1.4112 1.0801-2.0742 1.2461-0.415-0.029-1.0791-0.19402-1.1621-0.54102 0.123-0.496 0.84767-0.51914 1.1387-0.61914s0.49359-0.25077 0.68359-0.75977c-0.317-0.139-1.1412-0.19023-1.6152 0.0098-0.552 0.234-0.75411 0.74517-1.0371 0.82617-0.533 0.15-0.75716-0.45572-0.91016-1.1367-0.151-0.684 0.45394-1.288 1.2109-1.668 0.759-0.378 3.8648-1.5902 4.0918-1.7422 0.228-0.152 0.3782-0.52998 0.9082-0.83398 0.532-0.302 0.90928 0.0016 1.3633-0.15039 0.453-0.151 1.5578-0.60758 1.6328-1.5176 0.074-0.907-0.36-1.2427-0.875-1.9688 1.013-0.106 2.3396 1.6641 2.7266 2.1641 0.388 0.497 0.55239 0.71678 0.77539 0.55078 0.219-0.165 0.74794-0.58205 2.2109-0.62305 0.151-5e-3 0.31895-0.0049 0.50195-0.0039l2e-3 2e-3c0.572 0.014 3.41 0.11352 5.332 0.72852-2.769 0-4.2046 0.82042-4.2676 0.85742v2e-3c0.074-0.025 2.5427-0.84405 5.6797 2e-3 -4.348 0-5.0293 0.98633-5.0293 0.98633s3.8911-0.96061 6.6211 0.02539c-4.802 0-5.7363 1.2129-5.7363 1.2129s3.2602-1.2384 7.6582-0.02539c-5.788 0-6.8242 1.1387-6.8242 1.1387s4.3975-1.2146 8.6445 0.02344c-6.319 0-7.6855 1.3652-7.6855 1.3652s5.5604-1.744 9.8574 0c-7.658 0-8.8711 1.3398-8.8711 1.3398s6.0904-1.668 10.943 0c-7.33 0-9.8184 1.3438-9.8184 1.3438s5.9516-2.028 12.852 0.5c-6.8524-0.87455-10.52 0.39512-11.449 0.77734 1.1694-0.42173 5.3317-1.4035 14.736 1.3711-17.37-2.032-18.943 2.9404-18.943 5.8184 0 4.066 2.8613 7.5898 2.8613 7.5898-0.288-3.484-0.12234-5.7111 6.5977-7.6191 4.7556-1.3507 9.7833-1.0397 13.533-0.30469a22.965 22.965 0 0 0 0.39253-4.131 22.965 22.965 0 0 0-22.965-22.965zm-11.861 12.182c-0.13675 0.0027-0.30094 0.05012-0.46094 0.14062-0.318 0.18-0.49739 0.46472-0.40039 0.63672 0.097 0.175 0.43491 0.16828 0.75391-0.01172 0.318-0.182 0.49834-0.46462 0.40234-0.64062-0.049-0.0855-0.15817-0.12775-0.29492-0.125zm-6.2012 2.5742c-0.10575 0.03309-0.21991 0.15998-0.28516 0.33398-0.087 0.235-0.05569 0.46277 0.07031 0.50977 0.125 0.046 0.29772-0.10294 0.38672-0.33594 0.087-0.233 0.05669-0.45981-0.07031-0.50781-0.03125-0.012-0.06631-0.01103-0.10156 0z"/>
		<path d="m15.089 61.062h-4.165c-0.122-0.286-0.388-0.776-1.184-0.816h-3.123c-0.368 0-0.714 0.04-1.021 0.081-0.204 0.041-0.469 0.103-0.633 0.307-0.143 0.182-0.163 0.428-0.082 0.652 0.123 0.306 0.47 0.367 0.776 0.388 0.388 0.041 0.449 0.041 0.837 0.041h4.022c1.511 0 3.777-0.123 4.859 1.756 0.47 0.816 0.408 3.45-0.041 4.226-1.041 1.756-3.369 1.613-4.655 1.613h-5.267c-0.796 0-3.471-0.163-4.41-1.531-0.409-0.592-0.47-1.123-0.47-2.103h4.349c0 0.204 0 0.429 0.266 0.653 0.49 0.449 0.979 0.388 1.837 0.388h2.553c0.612 0 1.511-0.062 1.775-0.552 0.123-0.163 0.123-0.755 0-0.938-0.326-0.572-0.979-0.572-2.389-0.572h-3.082c-1.919 0-3.879 0.184-4.838-1.633-0.49-0.898-0.551-2.981-0.062-3.839 0.959-1.633 3.348-1.531 4.716-1.531h5.267c1.49 0 2.675 0.266 3.553 1.185 0.449 0.489 0.571 1.326 0.612 2.225z"/>
		<path d="m17.659 57.896h4.124v4.553c0 1.797-0.082 2.777 0.857 3.328 0.674 0.429 3.92 0.327 4.695-0.102 1.041-0.593 0.898-1.716 0.898-3.41v-4.369h4.124v11.168h-3.981v-1.878c-0.489 1.021-0.918 1.612-2.593 1.898-1.612 0.326-5.206 0.429-6.839-0.939-1.471-1.225-1.286-2.838-1.286-4.716v-5.533z"/>
		<path d="m44.727 57.651c1.184 0 1.816 0.123 2.327 0.266 1 0.307 1.837 0.96 2.246 2.063 0.225 0.51 0.367 1.408 0.367 2.49v2.021c0 1.021-0.143 1.98-0.367 2.491-0.409 1.122-1.246 1.755-2.246 2.062-0.511 0.143-1.144 0.286-2.327 0.266 0 0-2.858-0.041-3.614-0.163-1.266-0.164-2.286-0.919-2.675-2.042v5.839h-4.145v-15.048h4.145v1.899c0.389-1.123 1.409-1.776 2.675-1.96 0.756-0.122 2.123-0.203 3.614-0.184zm-6.37 5.983c0 0.367 0.021 0.939 0.021 0.939 0 0.714 0.408 1.571 1.47 1.571 0 0 1.185 0.062 1.98 0.062 0.919 0 2.348-0.062 2.348-0.062 1.062 0 1.47-0.857 1.47-1.571 0 0 0.021-0.613 0.021-1.021s-0.021-1.021-0.021-1.021c0-0.694-0.408-1.572-1.47-1.572 0 0-1.388-0.041-2.246-0.041-0.837 0-2.082 0.041-2.082 0.041-1.062 0-1.47 0.878-1.47 1.572-1e-3 0-0.021 0.674-0.021 1.103z"/>
		<path d="m65.751 64.246h-10.187c0 0.837 0.021 1.898 0.735 2.267 0.592 0.326 4.349 0.285 4.981-0.041 0.408-0.143 0.571-0.388 0.571-0.98h3.92c-0.204 3.594-2.797 3.818-5.451 3.818h-2.245c-2.879 0-4.717 0.225-6.064-2.083-0.714-1.225-0.796-6.369-0.02-7.655 1.184-2.021 3.675-1.92 4.491-1.92h4.532c0.816 0 2.613 0.164 3.716 1.327 1.021 1.082 1.021 3.083 1.021 4.553zm-4.837-3.736c-0.49-0.143-4.309-0.204-4.676 0-0.796 0.429-0.674 0.878-0.674 1.348h6.125c0-0.572-0.062-1.144-0.775-1.348z"/>
		<path d="m79.978 63.001h-3.572c0-0.674 0-1.49-0.878-1.919-0.653-0.286-2.104-0.307-2.797 0.184-0.919 0.674-0.797 2.226-0.797 3.45v4.349h-4.144v-11.169h4.002v1.879c0.694-1.226 1.511-1.899 3.001-2.063 1.103-0.102 3.45-0.163 4.573 1.286 0.694 0.92 0.612 2.777 0.612 4.003z"/>
		<path d="m81.201 57.896h4.124v4.553c0 1.797-0.082 2.777 0.857 3.328 0.674 0.429 3.92 0.327 4.695-0.102 1.041-0.593 0.898-1.716 0.898-3.41v-4.369h4.125v11.168h-3.981v-1.878c-0.489 1.021-0.918 1.612-2.593 1.898-1.612 0.326-5.206 0.429-6.839-0.939-1.471-1.225-1.286-2.838-1.286-4.716z"/>
		<path d="m112.19 61.062h-4.165c-0.123-0.286-0.389-0.776-1.185-0.816h-3.124c-0.367 0-0.714 0.04-1.021 0.081-0.204 0.041-0.47 0.103-0.633 0.307-0.143 0.184-0.163 0.429-0.082 0.653 0.123 0.306 0.47 0.367 0.776 0.388 0.388 0.041 0.449 0.041 0.837 0.041h4.022c1.511 0 3.776-0.123 4.858 1.756 0.47 0.816 0.408 3.45-0.041 4.226-1.041 1.756-3.368 1.613-4.654 1.613h-5.268c-0.796 0-3.471-0.163-4.41-1.531-0.408-0.592-0.47-1.123-0.47-2.103h4.349c0 0.204 0 0.429 0.266 0.653 0.49 0.449 0.98 0.388 1.838 0.388h2.552c0.612 0 1.511-0.062 1.776-0.552 0.122-0.163 0.122-0.755 0-0.938-0.327-0.572-0.98-0.572-2.389-0.572h-3.083c-1.919 0-3.879 0.184-4.839-1.633-0.489-0.898-0.551-2.981-0.061-3.839 0.959-1.633 3.348-1.531 4.716-1.531h5.268c1.49 0 2.674 0.266 3.552 1.185 0.451 0.488 0.574 1.325 0.615 2.224z"/>
	<path d="m56.129 0.70312c-14.262 0-25.834 11.572-25.834 25.834s11.572 25.834 25.834 25.834 25.834-11.572 25.834-25.834-11.572-25.834-25.834-25.834zm0 1c13.721 0 24.834 11.113 24.834 24.834s-11.113 24.834-24.834 24.834-24.834-11.113-24.834-24.834 11.113-24.834 24.834-24.834z" color="#000000" color-rendering="auto" dominant-baseline="auto" enable-background="accumulate" image-rendering="auto" shape-rendering="auto" solid-color="#000000" style="font-feature-settings:normal;font-variant-alternates:normal;font-variant-caps:normal;font-variant-ligatures:normal;font-variant-numeric:normal;font-variant-position:normal;isolation:auto;mix-blend-mode:normal;shape-padding:0;text-decoration-color:#000000;text-decoration-line:none;text-decoration-style:solid;text-indent:0;text-orientation:mixed;text-transform:none;white-space:normal"/>
</g>
</svg>
