<?xml version="1.0" encoding="UTF-8"?>
<!-- Created with Inkscape (http://www.inkscape.org/) -->
<svg width="64" height="64" version="1.1" viewBox="0 0 16.933 16.933" xmlns="http://www.w3.org/2000/svg" xmlns:cc="http://creativecommons.org/ns#" xmlns:dc="http://purl.org/dc/elements/1.1/" xmlns:rdf="http://www.w3.org/1999/02/22-rdf-syntax-ns#">
 <metadata>
  <rdf:RDF>
   <cc:Work rdf:about="">
    <dc:format>image/svg+xml</dc:format>
    <dc:type rdf:resource="http://purl.org/dc/dcmitype/StillImage"/>
    <dc:title/>
   </cc:Work>
  </rdf:RDF>
 </metadata>
 <g transform="translate(0 -280.07)" fill="#ffffff">
  <path d="m8.4667 280.07a1.0583 1.0583 0 0 0-1.0583 1.0583 1.0583 1.0583 0 0 0 1.0583 1.0583 1.0583 1.0583 0 0 0 1.0583-1.0583 1.0583 1.0583 0 0 0-1.0583-1.0583zm-7.4083 7.4083a1.0583 1.0583 0 0 0-1.0583 1.0583 1.0583 1.0583 0 0 0 1.0583 1.0583 1.0583 1.0583 0 0 0 1.0583-1.0583 1.0583 1.0583 0 0 0-1.0583-1.0583zm14.817 0a1.0583 1.0583 0 0 0-1.0583 1.0583 1.0583 1.0583 0 0 0 1.0583 1.0583 1.0583 1.0583 0 0 0 1.0583-1.0583 1.0583 1.0583 0 0 0-1.0583-1.0583zm-7.4083 7.4083a1.0583 1.0583 0 0 0-1.0583 1.0583 1.0583 1.0583 0 0 0 1.0583 1.0583 1.0583 1.0583 0 0 0 1.0583-1.0583 1.0583 1.0583 0 0 0-1.0583-1.0583z"/>
  <path d="m12.7 281.2a1.0583 1.0583 0 0 0-1.4457 0.38737 1.0583 1.0583 0 0 0 0.38737 1.4457 1.0583 1.0583 0 0 0 1.4457-0.38738 1.0583 1.0583 0 0 0-0.38738-1.4457zm-10.12 2.7116a1.0583 1.0583 0 0 0-1.4457 0.38739 1.0583 1.0583 0 0 0 0.38738 1.4457 1.0583 1.0583 0 0 0 1.4457-0.38737 1.0583 1.0583 0 0 0-0.38737-1.4457zm12.832 7.4083a1.0583 1.0583 0 0 0-1.4457 0.38738 1.0583 1.0583 0 0 0 0.38738 1.4457 1.0583 1.0583 0 0 0 1.4457-0.38738 1.0583 1.0583 0 0 0-0.38737-1.4457zm-10.12 2.7116a1.0583 1.0583 0 0 0-1.4457 0.38737 1.0583 1.0583 0 0 0 0.38738 1.4457 1.0583 1.0583 0 0 0 1.4457-0.38737 1.0583 1.0583 0 0 0-0.38738-1.4457z"/>
  <path d="m15.799 284.3a1.0583 1.0583 0 0 0-1.4457-0.38738 1.0583 1.0583 0 0 0-0.38738 1.4457 1.0583 1.0583 0 0 0 1.4457 0.38738 1.0583 1.0583 0 0 0 0.38738-1.4457zm-10.12-2.7116a1.0583 1.0583 0 0 0-1.4457-0.38737 1.0583 1.0583 0 0 0-0.38737 1.4457 1.0583 1.0583 0 0 0 1.4457 0.38739 1.0583 1.0583 0 0 0 0.38738-1.4457zm7.4083 12.832a1.0583 1.0583 0 0 0-1.4457-0.38738 1.0583 1.0583 0 0 0-0.38738 1.4457 1.0583 1.0583 0 0 0 1.4457 0.38737 1.0583 1.0583 0 0 0 0.38738-1.4457zm-10.12-2.7116a1.0583 1.0583 0 0 0-1.4457-0.38739 1.0583 1.0583 0 0 0-0.38738 1.4457 1.0583 1.0583 0 0 0 1.4457 0.38738 1.0583 1.0583 0 0 0 0.38738-1.4457z"/>
 </g>
</svg>
